<svg id="ui" xmlns="http://www.w3.org/2000/svg" viewBox="0 0 16 16"><defs><style>.cls-1{fill:#fff;}</style></defs><path class="cls-1" d="M5.55,3.6a2.3,2.3,0,0,1,1.86.78,3.39,3.39,0,0,1,.66,2.25,4.09,4.09,0,0,1-.32,1.68,2.37,2.37,0,0,1-.91,1.08,2.51,2.51,0,0,1-1.39.38A3.78,3.78,0,0,1,4.34,9.6a2.34,2.34,0,0,1-.9-.47L3.93,8a2.91,2.91,0,0,0,.79.42,2.09,2.09,0,0,0,.65.12.92.92,0,0,0,.85-.47A2.76,2.76,0,0,0,6.5,6.66V6.54l.15.2a1.18,1.18,0,0,1-.3.47,1.54,1.54,0,0,1-.49.32,1.8,1.8,0,0,1-.62.11,1.71,1.71,0,0,1-.93-.25,1.81,1.81,0,0,1-.64-.7,2.09,2.09,0,0,1-.23-1A2.14,2.14,0,0,1,3.71,4.6a2,2,0,0,1,.75-.73A2.15,2.15,0,0,1,5.55,3.6Zm.09,1.22A.67.67,0,0,0,5.11,5a.87.87,0,0,0-.19.57.89.89,0,0,0,.19.59.7.7,0,0,0,.53.22A.8.8,0,0,0,6,6.32.68.68,0,0,0,6.27,6a.94.94,0,0,0,.09-.43.91.91,0,0,0-.09-.41A.68.68,0,0,0,6,4.92.7.7,0,0,0,5.64,4.82Z"/><rect class="cls-1" y="14" width="4" height="2"/><rect class="cls-1" width="4" height="2"/><rect class="cls-1" y="12" width="2" height="4"/><rect class="cls-1" y="6" width="2" height="4"/><rect class="cls-1" x="6" width="4" height="2"/><rect class="cls-1" x="6" y="14" width="4" height="2"/><rect class="cls-1" x="12" width="4" height="2"/><rect class="cls-1" x="12" y="14" width="4" height="2"/><rect class="cls-1" width="2" height="4"/><rect class="cls-1" x="14" width="2" height="4"/><rect class="cls-1" x="14" y="6" width="2" height="4"/><rect class="cls-1" x="14" y="12" width="2" height="4"/></svg>