<svg xmlns="http://www.w3.org/2000/svg" viewBox="0 0 16 16"><defs><style>.cls-1{fill:#fff;}</style></defs><g id="ui"><path class="cls-1" d="M7.41,4.38A2.28,2.28,0,0,0,5.55,3.6a2.18,2.18,0,0,0-1.09.27,2.1,2.1,0,0,0-.75.73,2.14,2.14,0,0,0-.27,1.08,2.09,2.09,0,0,0,.24,1,1.73,1.73,0,0,0,.64.7,1.69,1.69,0,0,0,.92.25,1.8,1.8,0,0,0,.62-.11,1.59,1.59,0,0,0,.5-.32.65.65,0,0,0,.13-.16,2.22,2.22,0,0,1-.27,1,.92.92,0,0,1-.85.47,2.09,2.09,0,0,1-.65-.12A2.73,2.73,0,0,1,3.94,8l-.5,1.13a2.38,2.38,0,0,0,.91.47,3.72,3.72,0,0,0,1.1.17,2.55,2.55,0,0,0,1.4-.38,2.41,2.41,0,0,0,.9-1.08,4.09,4.09,0,0,0,.32-1.68A3.39,3.39,0,0,0,7.41,4.38ZM6.27,6A.68.68,0,0,1,6,6.32a.77.77,0,0,1-.38.1.66.66,0,0,1-.52-.22.84.84,0,0,1-.19-.59A.82.82,0,0,1,5.12,5a.63.63,0,0,1,.52-.22.67.67,0,0,1,.63.38.91.91,0,0,1,.09.41A.94.94,0,0,1,6.27,6Z"/><rect class="cls-1" width="2" height="2"/><rect class="cls-1" x="7" width="2" height="2"/><rect class="cls-1" x="3.5" width="2" height="2"/><rect class="cls-1" x="14" width="2" height="2"/><rect class="cls-1" x="10.5" width="2" height="2"/><rect class="cls-1" y="7" width="2" height="2"/><rect class="cls-1" y="3.5" width="2" height="2"/><rect class="cls-1" y="14" width="2" height="2"/><rect class="cls-1" y="10.5" width="2" height="2"/><rect class="cls-1" x="14" y="7" width="2" height="2"/><rect class="cls-1" x="10.25" y="4.67" width="1.19" height="4.02" transform="translate(-1.55 9.63) rotate(-45)"/><rect class="cls-1" x="8.83" y="6.09" width="4.02" height="1.19" transform="translate(-1.55 9.63) rotate(-45)"/><rect class="cls-1" x="14" y="3.5" width="2" height="2"/><rect class="cls-1" x="14" y="10.5" width="2" height="2"/><rect class="cls-1" x="10.5" y="14" width="2" height="2"/><rect class="cls-1" x="14" y="14" width="2" height="2"/><rect class="cls-1" x="3.5" y="14" width="2" height="2"/><rect class="cls-1" x="7" y="14" width="2" height="2"/></g></svg>