<svg id="ui" xmlns="http://www.w3.org/2000/svg" viewBox="0 0 16 16"><defs><style>.cls-1{fill:#fff;}</style></defs><path class="cls-1" d="M8,1A7,7,0,1,1,1,8,7,7,0,0,1,8,1M8,0a8,8,0,1,0,8,8A8,8,0,0,0,8,0Z"/><polygon class="cls-1" points="7.38 6.74 7.38 7.53 4.76 7.53 4.76 6.74 5.57 6.74 5.57 4.84 4.81 5.28 4.81 4.42 5.98 3.76 6.56 3.76 6.56 6.74 7.38 6.74"/><path class="cls-1" d="M11.51,6.74v.79H8.85V6.8l1.23-1.28a1.58,1.58,0,0,0,.26-.35.66.66,0,0,0,.08-.32.32.32,0,0,0-.11-.28A.49.49,0,0,0,10,4.48a1.39,1.39,0,0,0-.47.09A2.06,2.06,0,0,0,9,4.82l-.32-.7a1.77,1.77,0,0,1,.6-.3A2.58,2.58,0,0,1,10,3.71a2,2,0,0,1,.72.13,1,1,0,0,1,.47.38,1,1,0,0,1,.16.56,1.32,1.32,0,0,1-.13.6,2.26,2.26,0,0,1-.44.6l-.75.76Z"/><path class="cls-1" d="M6,12.34a2.41,2.41,0,0,1-.76-.11,1.68,1.68,0,0,1-.6-.29l.31-.7a2.13,2.13,0,0,0,.5.25,1.51,1.51,0,0,0,.51.08.84.84,0,0,0,.45-.09.38.38,0,0,0,.13-.31.35.35,0,0,0-.13-.31.79.79,0,0,0-.43-.09H5.35V10h.49a.76.76,0,0,0,.42-.08.28.28,0,0,0,.13-.27.38.38,0,0,0-.12-.3.52.52,0,0,0-.35-.11,1.45,1.45,0,0,0-.48.09A1.83,1.83,0,0,0,5,9.59l-.31-.71a1.68,1.68,0,0,1,.6-.29A2.65,2.65,0,0,1,6,8.48a1.73,1.73,0,0,1,.71.13A1,1,0,0,1,7.16,9a.92.92,0,0,1,.17.55.89.89,0,0,1-.17.54.9.9,0,0,1-.49.32v0a1,1,0,0,1,.55.33A1,1,0,0,1,7,12.06,1.79,1.79,0,0,1,6,12.34Z"/><path class="cls-1" d="M11,10.91V8.53h-.8l-1.69,2.4v.73H10v.64h1v-.64h.49v-.75Zm-1,0H9.37L10,10Z"/></svg>