<svg xmlns="http://www.w3.org/2000/svg" viewBox="0 0 16 16"><defs><style>.cls-1{fill:#fff;}</style></defs><g id="ui"><path class="cls-1" d="M16,5.62v1.2H0V5.62a3,3,0,0,1,3-3h.46L6,5.12a.52.52,0,0,0,.71,0,.5.5,0,0,0,0-.71L4.88,2.62H6.53L9,5.12a.5.5,0,0,0,.7-.71L7.94,2.62H9.59l2.5,2.5a.52.52,0,0,0,.71,0,.51.51,0,0,0,0-.71L11,2.62h2A3,3,0,0,1,16,5.62Z"/><path class="cls-1" d="M0,9.88H16v.5a3,3,0,0,1-3,3H3a3,3,0,0,1-3-3Z"/><path class="cls-1" d="M14.94,9.23a1.43,1.43,0,0,1-1.29-.62.8.8,0,0,0-.84,0,1.39,1.39,0,0,1-1.27.6,1.44,1.44,0,0,1-1.29-.62s-.09-.11-.41-.11-.42.13-.42.13a1.42,1.42,0,0,1-1.28.6,1.4,1.4,0,0,1-1.28-.62.6.6,0,0,0-.41-.11c-.33,0-.43.13-.43.13a1.39,1.39,0,0,1-1.27.6,1.43,1.43,0,0,1-1.29-.62s-.09-.11-.41-.11a.59.59,0,0,0-.43.13,1.39,1.39,0,0,1-1.27.6.5.5,0,0,1-.5-.5.5.5,0,0,1,.5-.5.59.59,0,0,0,.43-.13,1.39,1.39,0,0,1,1.27-.6,1.44,1.44,0,0,1,1.29.62s.09.11.41.11.42-.13.42-.13a1.42,1.42,0,0,1,1.28-.6,1.4,1.4,0,0,1,1.28.62.6.6,0,0,0,.41.11c.33,0,.43-.13.43-.13a1.39,1.39,0,0,1,1.27-.6,1.43,1.43,0,0,1,1.29.62s.09.11.41.11A.59.59,0,0,0,12,8.1a1.39,1.39,0,0,1,1.27-.6,1.43,1.43,0,0,1,1.29.62s.09.11.41.11a.5.5,0,0,1,.5.5A.51.51,0,0,1,14.94,9.23Z"/></g></svg>