<svg xmlns="http://www.w3.org/2000/svg" viewBox="0 0 16 16"><defs><style>.cls-1{fill:#fff;}</style></defs><g id="ui"><rect class="cls-1" x="10.11" y="3.98" width="0.69" height="3.13" transform="translate(-0.85 9.02) rotate(-45.01)"/><polygon class="cls-1" points="11.85 1.95 14.06 4.16 12.52 5.69 10.31 3.48 11.85 1.95"/><path class="cls-1" d="M15.54,2.67l-.77.78L12.56,1.24l.77-.78a1.56,1.56,0,0,1,2.21,2.21Z"/><path class="cls-1" d="M9.11,4.68,8.46,4h-5L0,7.54v5L3.5,16h5L12,12.5v-5ZM4.33,14,2,11.67V8.37L4.33,6h3.3l.07.07L9.91,8.31l.06.06v3.3L7.63,14Z"/></g></svg>