<svg xmlns="http://www.w3.org/2000/svg" viewBox="0 0 770.98 757.55"><defs><style>.cls-1{fill:#f0edf2;}.cls-10,.cls-11,.cls-12,.cls-13,.cls-14,.cls-15,.cls-16,.cls-19,.cls-2,.cls-20,.cls-21,.cls-22,.cls-23,.cls-24,.cls-28,.cls-29,.cls-30,.cls-31,.cls-4,.cls-6,.cls-7,.cls-8,.cls-9{fill:none;}.cls-10,.cls-11,.cls-12,.cls-13,.cls-14,.cls-19,.cls-2,.cls-21,.cls-22,.cls-23,.cls-24,.cls-27,.cls-6,.cls-7,.cls-8,.cls-9{stroke:#000;}.cls-10,.cls-11,.cls-12,.cls-13,.cls-14,.cls-19,.cls-2,.cls-21,.cls-22,.cls-27,.cls-4,.cls-6,.cls-7,.cls-8,.cls-9{stroke-miterlimit:10;}.cls-2,.cls-22,.cls-23,.cls-24,.cls-27{stroke-width:2px;}.cls-3{fill:#f2ebeb;}.cls-16,.cls-4{stroke:#dedede;stroke-width:20px;}.cls-15,.cls-16,.cls-22,.cls-24,.cls-28,.cls-29,.cls-30,.cls-31,.cls-4{stroke-linecap:round;}.cls-5{fill:#dedede;}.cls-10,.cls-11,.cls-12,.cls-13,.cls-14,.cls-6,.cls-7,.cls-8,.cls-9{stroke-width:1.5px;}.cls-7{stroke-dasharray:6.31 3.16;}.cls-8{stroke-dasharray:6.31 3.15;}.cls-9{stroke-dasharray:6.03 3.01;}.cls-10{stroke-dasharray:6.07 3.03;}.cls-11{stroke-dasharray:6.31 3.16;}.cls-12{stroke-dasharray:5.89 2.94;}.cls-13{stroke-dasharray:5.82 2.91;}.cls-14{stroke-dasharray:6.03 3.01;}.cls-15{stroke:#c7855c;stroke-width:10px;}.cls-15,.cls-16,.cls-20,.cls-23,.cls-24,.cls-28,.cls-29,.cls-30,.cls-31{stroke-linejoin:round;}.cls-17,.cls-27{fill:#fff;}.cls-18{fill:#c9c9c9;}.cls-19{stroke-width:4px;}.cls-20{stroke:#c18bb7;stroke-width:9px;}.cls-25{fill:#4e72b0;}.cls-26{fill:#242424;}.cls-28{stroke:#cf9fcf;}.cls-28,.cls-29,.cls-30,.cls-31{stroke-width:5px;}.cls-29{stroke:#8fcbcf;}.cls-29,.cls-30,.cls-31{stroke-dasharray:8 8;}.cls-30{stroke:#cfa872;}.cls-31{stroke:#cfd184;}</style></defs><g id="ui"><rect class="cls-1" x="217.31" y="597.58" width="78.74" height="78.74"/><polyline class="cls-2" points="266.3 603.69 256.68 606.28 247.05 603.69"/><polyline class="cls-2" points="247.05 670.2 256.68 667.61 266.3 670.2"/><polyline class="cls-2" points="289.93 646.57 287.34 636.95 289.93 627.32"/><rect class="cls-3" x="296.05" y="676.32" width="78.74" height="78.74"/><polyline class="cls-2" points="325.79 685.15 335.42 682.55 345.04 685.15"/><polyline class="cls-2" points="365.95 706.06 368.55 715.68 365.95 725.31"/><polyline class="cls-2" points="304.88 725.31 302.29 715.68 304.88 706.06"/><rect class="cls-3" x="374.79" y="597.58" width="78.74" height="78.74"/><polyline class="cls-2" points="423.78 667.48 414.15 670.08 404.53 667.48"/><polyline class="cls-2" points="444.69 627.32 447.29 636.95 444.69 646.57"/><polyline class="cls-2" points="383.62 646.57 381.02 636.95 383.62 627.32"/><rect class="cls-3" x="374.79" y="518.84" width="78.74" height="78.74"/><polyline class="cls-2" points="404.53 527.67 414.15 525.08 423.78 527.67"/><polyline class="cls-2" points="444.69 548.58 447.29 558.21 444.69 567.83"/><polyline class="cls-2" points="383.62 567.83 381.02 558.21 383.62 548.58"/><rect class="cls-1" x="138.57" y="597.58" width="78.74" height="78.74"/><polyline class="cls-2" points="187.56 603.69 177.94 606.28 168.31 603.69"/><polyline class="cls-2" points="144.68 627.32 147.28 636.95 144.68 646.57"/><polyline class="cls-2" points="168.31 670.2 177.94 667.61 187.56 670.2"/><path class="cls-4" d="M414.16,322V225.34a60.84,60.84,0,0,0-60.84-60.83H337.43"/><circle class="cls-5" cx="337.43" cy="164.67" r="33"/><circle class="cls-5" cx="335.42" cy="85.77" r="33"/><circle class="cls-5" cx="571.61" cy="164.67" r="33"/><circle class="cls-5" cx="571.61" cy="321.21" r="33"/><polyline class="cls-6" points="289.65 430.7 289.65 433.7 286.65 433.7"/><line class="cls-7" x1="283.49" y1="433.7" x2="228.28" y2="433.7"/><polyline class="cls-6" points="226.7 433.7 223.7 433.7 223.7 430.7"/><line class="cls-7" x1="223.7" y1="427.54" x2="223.7" y2="372.33"/><polyline class="cls-6" points="223.7 370.75 223.7 367.75 226.7 367.75"/><line class="cls-7" x1="229.86" y1="367.75" x2="285.07" y2="367.75"/><polyline class="cls-6" points="286.65 367.75 289.65 367.75 289.65 370.75"/><line class="cls-7" x1="289.65" y1="373.91" x2="289.65" y2="429.12"/><polyline class="cls-6" points="207.91 525.24 210.91 525.24 210.91 528.24"/><line class="cls-8" x1="210.91" y1="531.39" x2="210.91" y2="586.6"/><polyline class="cls-6" points="210.91 588.18 210.91 591.18 207.91 591.18"/><line class="cls-9" x1="204.9" y1="591.18" x2="70.73" y2="591.18"/><polyline class="cls-6" points="69.22 591.18 66.22 591.18 66.22 588.18"/><line class="cls-10" x1="66.22" y1="585.14" x2="66.22" y2="450.14"/><polyline class="cls-6" points="66.22 448.63 66.22 445.63 69.22 445.63"/><line class="cls-11" x1="72.38" y1="445.63" x2="127.59" y2="445.63"/><polyline class="cls-6" points="129.17 445.63 132.17 445.63 132.17 448.63"/><line class="cls-12" x1="132.17" y1="451.57" x2="132.17" y2="520.77"/><polyline class="cls-6" points="132.17 522.24 132.17 525.24 135.17 525.24"/><line class="cls-13" x1="138.08" y1="525.24" x2="206.46" y2="525.24"/><polyline class="cls-6" points="207.91 367.76 210.91 367.76 210.91 370.76"/><line class="cls-14" x1="210.91" y1="373.77" x2="210.91" y2="507.93"/><polyline class="cls-6" points="210.91 509.44 210.91 512.44 207.91 512.44"/><line class="cls-11" x1="204.76" y1="512.44" x2="149.54" y2="512.44"/><polyline class="cls-6" points="147.96 512.44 144.96 512.44 144.96 509.44"/><line class="cls-14" x1="144.96" y1="506.42" x2="144.96" y2="372.26"/><polyline class="cls-6" points="144.96 370.76 144.96 367.76 147.96 367.76"/><line class="cls-11" x1="151.12" y1="367.76" x2="206.33" y2="367.76"/><polyline class="cls-15" points="256.68 636.95 414.15 483.01 414.15 321.99"/><path class="cls-4" d="M571.63,322l55.43-55a13.61,13.61,0,0,1,23.19,9.65V400.73"/><path class="cls-4" d="M571.61,164.67l59.38,59a66.43,66.43,0,0,0,46.34,19.28l51.78.34"/><polyline class="cls-16" points="256.68 305.51 256.68 243.58 335.42 243.58"/><rect class="cls-17" x="138.57" y="361.36" width="28.77" height="18.98"/><rect class="cls-17" x="217.31" y="361.36" width="20.64" height="18.98"/><rect class="cls-17" x="59.83" y="440.1" width="28.77" height="18.98"/><path d="M146.61,376.76v-2h7.44v2Zm2.47-1.15v-8.27l1.18.11-3.49,2.07v-2.2l3.35-1.95h1.45v10.24Z"/><path d="M156.2,376.76v-2h7.43v2Zm2.46-1.15v-8.27l1.18.11-3.49,2.07v-2.2l3.35-1.95h1.46v10.24Z"/><rect class="cls-17" x="217.31" y="361.36" width="14.5" height="17.58"/><path d="M229,365.23a4.18,4.18,0,0,1,3.43,1.47,6.5,6.5,0,0,1,1.2,4.21,8.15,8.15,0,0,1-.58,3.21,4.32,4.32,0,0,1-4.21,2.79,6.47,6.47,0,0,1-2.05-.33,4.89,4.89,0,0,1-1.69-.95l.81-1.79a6.29,6.29,0,0,0,1.51.84,3.85,3.85,0,0,0,1.31.26,2,2,0,0,0,1.82-1,5.76,5.76,0,0,0,.61-3v-.58l.26.38a2.45,2.45,0,0,1-.58,1.06,2.91,2.91,0,0,1-1,.7,3.35,3.35,0,0,1-1.28.24,3.31,3.31,0,0,1-1.78-.47,3.25,3.25,0,0,1-1.22-1.3,4.24,4.24,0,0,1,0-3.9,3.66,3.66,0,0,1,1.39-1.37A4,4,0,0,1,229,365.23Zm.15,1.95a1.59,1.59,0,0,0-1.24.5,1.86,1.86,0,0,0-.44,1.31,1.91,1.91,0,0,0,.44,1.33,1.58,1.58,0,0,0,1.24.49,1.72,1.72,0,0,0,.88-.22,1.51,1.51,0,0,0,.61-.64,2,2,0,0,0,.22-1,1.91,1.91,0,0,0-.22-.95,1.67,1.67,0,0,0-.61-.63A1.72,1.72,0,0,0,229.12,367.18Z"/><circle class="cls-5" cx="256.68" cy="321.99" r="33"/><line class="cls-4" x1="335.42" y1="85.77" x2="493.1" y2="243.04"/><path d="M68.19,455.5v-1.84l3.79-4a6,6,0,0,0,.89-1.22,2.42,2.42,0,0,0,.3-1.13,1.27,1.27,0,0,0-.4-1,1.77,1.77,0,0,0-1.15-.33,4.38,4.38,0,0,0-1.48.27,6.78,6.78,0,0,0-1.53.83l-.8-1.79a4.91,4.91,0,0,1,1.76-.94,7,7,0,0,1,2.17-.34,5,5,0,0,1,2.05.38,3,3,0,0,1,1.35,1.1,2.9,2.9,0,0,1,.48,1.67,4.17,4.17,0,0,1-.41,1.84,8,8,0,0,1-1.37,1.85l-3.26,3.43-.33-.74H76v2Z"/><path d="M81.55,455.65a3.67,3.67,0,0,1-3.16-1.5,7.32,7.32,0,0,1-1.1-4.36,7.16,7.16,0,0,1,1.1-4.3,4.1,4.1,0,0,1,6.32,0,7.16,7.16,0,0,1,1.1,4.3,7.31,7.31,0,0,1-1.1,4.35A3.65,3.65,0,0,1,81.55,455.65Zm0-1.92a1.44,1.44,0,0,0,1.38-.93,7.81,7.81,0,0,0,.43-3,7.65,7.65,0,0,0-.43-3,1.49,1.49,0,0,0-2.76,0,7.65,7.65,0,0,0-.43,3,7.81,7.81,0,0,0,.43,3A1.44,1.44,0,0,0,81.55,453.73Z"/><path class="cls-18" d="M335.42,434.61h0l-33.06-33.06h0l33.06-33.06h0l33.06,33.06h0Z"/><rect class="cls-18" x="381.18" y="367.75" width="65.95" height="65.95" rx="32.97"/><rect class="cls-18" x="538.64" y="288.24" width="65.95" height="65.95" rx="32.97"/><rect class="cls-18" x="459.92" y="289.02" width="65.95" height="65.95" rx="32.97"/><path class="cls-18" d="M335.42,118.83h0L302.36,85.77h0l33.06-33.06h0l33.06,33.06h0Z"/><path class="cls-18" d="M492.89,118.83h0L459.83,85.77h0l33.06-33.06h0L526,85.77h0Z"/></g><g id="puzzle"><rect class="cls-19" x="59.83" y="46.4" width="708.65" height="708.65" transform="translate(814.88 -13.43) rotate(90)"/><polyline class="cls-20" points="99.53 243.25 178.26 164.51 99.2 87.38 178.26 87.38"/><line class="cls-19" x1="768.48" y1="282.62" x2="59.83" y2="282.62"/><line class="cls-19" x1="768.48" y1="518.84" x2="59.83" y2="518.84"/><line class="cls-19" x1="532.26" y1="46.4" x2="532.26" y2="755.05"/><line class="cls-19" x1="296.05" y1="755.05" x2="296.05" y2="46.4"/><line class="cls-21" x1="768.48" y1="597.58" x2="532.26" y2="597.58"/><line class="cls-21" x1="768.48" y1="676.32" x2="532.26" y2="676.32"/><line class="cls-21" x1="689.74" y1="755.05" x2="689.74" y2="518.84"/><line class="cls-21" x1="611" y1="755.05" x2="611" y2="518.84"/><line class="cls-21" x1="768.48" y1="361.36" x2="532.26" y2="361.36"/><line class="cls-21" x1="768.48" y1="440.1" x2="532.26" y2="440.1"/><line class="cls-21" x1="689.74" y1="518.84" x2="689.74" y2="282.62"/><line class="cls-21" x1="611" y1="518.84" x2="611" y2="282.62"/><line class="cls-21" x1="768.48" y1="125.14" x2="532.26" y2="125.14"/><line class="cls-21" x1="768.48" y1="203.88" x2="532.26" y2="203.88"/><line class="cls-21" x1="689.74" y1="282.62" x2="689.74" y2="46.4"/><line class="cls-21" x1="611" y1="282.62" x2="611" y2="46.4"/><line class="cls-21" x1="532.26" y1="597.58" x2="296.05" y2="597.58"/><line class="cls-21" x1="296.05" y1="676.32" x2="532.26" y2="676.32"/><line class="cls-21" x1="453.52" y1="755.05" x2="453.52" y2="518.84"/><line class="cls-21" x1="374.79" y1="755.05" x2="374.79" y2="518.84"/><line class="cls-21" x1="532.26" y1="361.36" x2="296.05" y2="361.36"/><line class="cls-21" x1="532.26" y1="440.1" x2="296.05" y2="440.1"/><line class="cls-21" x1="453.52" y1="518.84" x2="453.52" y2="282.62"/><line class="cls-21" x1="374.79" y1="518.84" x2="374.79" y2="282.62"/><line class="cls-21" x1="532.26" y1="125.14" x2="296.05" y2="125.14"/><line class="cls-21" x1="532.26" y1="203.88" x2="296.05" y2="203.88"/><line class="cls-21" x1="453.52" y1="282.62" x2="453.52" y2="46.4"/><line class="cls-21" x1="374.79" y1="282.62" x2="374.79" y2="46.4"/><line class="cls-21" x1="296.05" y1="597.58" x2="59.83" y2="597.58"/><line class="cls-21" x1="296.05" y1="676.32" x2="59.83" y2="676.32"/><line class="cls-21" x1="217.31" y1="755.05" x2="217.31" y2="518.84"/><line class="cls-21" x1="138.57" y1="755.05" x2="138.57" y2="518.84"/><rect class="cls-17" x="282.39" y="308.34" width="27.3" height="27.3" rx="13.65"/><polygon points="304.82 330.66 300 330.66 288.29 314.95 293.07 314.95 304.82 330.66"/><polygon points="304.74 314.95 292.96 330.66 288.15 330.66 299.93 314.95 304.74 314.95"/><line class="cls-21" x1="296.05" y1="361.36" x2="59.83" y2="361.36"/><line class="cls-21" x1="296.05" y1="440.1" x2="59.83" y2="440.1"/><line class="cls-21" x1="217.31" y1="518.84" x2="217.31" y2="282.62"/><line class="cls-21" x1="138.57" y1="518.84" x2="138.57" y2="282.62"/><line class="cls-21" x1="296.05" y1="125.14" x2="59.83" y2="125.14"/><line class="cls-21" x1="296.05" y1="203.88" x2="59.83" y2="203.88"/><line class="cls-21" x1="217.31" y1="282.62" x2="217.31" y2="46.4"/><line class="cls-21" x1="138.57" y1="282.62" x2="138.57" y2="46.4"/><circle class="cls-2" cx="256.68" cy="479.47" r="32.05"/><circle class="cls-2" cx="256.68" cy="558.21" r="32.05"/><circle class="cls-2" cx="414.15" cy="715.68" r="32.05"/><polyline class="cls-22" points="256.68 511.51 256.68 558.21 180.11 558.21"/><polygon points="186.73 550.03 188.1 551.49 180.87 558.2 188.1 564.92 186.73 566.38 177.94 558.2 186.73 550.03"/><polyline class="cls-23" points="492.89 354.03 492.89 400.73 424.33 469.29"/><polygon points="423.24 458.82 425.24 458.89 424.88 468.74 434.73 468.38 434.8 470.38 422.8 470.82 423.24 458.82"/><polyline class="cls-23" points="335.42 275.62 335.42 322.32 412.62 245.11"/><polygon points="413.72 255.58 411.72 255.51 412.08 245.66 402.22 246.01 402.15 244.01 414.16 243.58 413.72 255.58"/><line class="cls-2" x1="288.72" y1="558.21" x2="333.25" y2="558.21"/><polygon points="326.62 566.39 325.25 564.92 332.48 558.21 325.25 551.49 326.62 550.03 335.42 558.21 326.62 566.39"/><line class="cls-2" x1="460.85" y1="479.47" x2="428.55" y2="479.47"/><polygon points="435.18 471.29 436.54 472.75 429.32 479.46 436.54 486.18 435.18 487.64 426.38 479.46 435.18 471.29"/><polyline class="cls-23" points="603.68 243.25 639.17 243.25 639.17 307.59"/><polygon points="630.99 300.97 632.45 299.6 639.16 306.82 645.88 299.6 647.34 300.97 639.16 309.76 630.99 300.97"/><polyline class="cls-23" points="697.07 243.25 661.58 243.25 661.58 307.59"/><polygon points="653.4 300.97 654.87 299.6 661.58 306.82 668.29 299.6 669.76 300.97 661.58 309.76 653.4 300.97"/><circle class="cls-2" cx="492.89" cy="479.47" r="32.05"/><circle class="cls-2" cx="492.89" cy="321.99" r="32.05"/><circle class="cls-2" cx="729.11" cy="243.25" r="32.05"/><circle class="cls-2" cx="571.63" cy="243.25" r="32.05"/><line class="cls-2" x1="524.94" y1="321.99" x2="726.94" y2="321.99"/><polygon points="720.32 330.17 718.95 328.7 726.18 321.99 718.95 315.27 720.32 313.81 729.11 321.99 720.32 330.17"/><circle class="cls-2" cx="492.89" cy="85.77" r="32.05"/><line class="cls-2" x1="524.94" y1="85.77" x2="726.94" y2="85.77"/><polygon points="720.32 93.95 718.95 92.48 726.18 85.77 718.95 79.06 720.32 77.59 729.11 85.77 720.32 93.95"/><line class="cls-2" x1="279.17" y1="108.26" x2="333.88" y2="162.98"/><polygon points="323.41 164.07 323.48 162.07 333.34 162.43 332.98 152.58 334.98 152.51 335.41 164.51 323.41 164.07"/><circle class="cls-2" cx="256.68" cy="85.44" r="32.05"/><circle class="cls-2" cx="256.68" cy="164.51" r="32.05"/><line class="cls-2" x1="234.18" y1="187.33" x2="179.47" y2="242.04"/><polygon points="178.37 231.57 180.37 231.64 180.01 241.5 189.87 241.14 189.94 243.14 177.94 243.57 178.37 231.57"/><circle class="cls-2" cx="335.42" cy="243.58" r="32.05"/><circle class="cls-2" cx="650.37" cy="558.21" r="32.05"/><polyline class="cls-24" points="682.42 558.21 729.11 558.21 729.11 713.52"/><polygon points="720.93 706.89 722.4 705.52 729.11 712.75 735.83 705.52 737.29 706.89 729.11 715.68 720.93 706.89"/><circle class="cls-2" cx="99.2" cy="400.73" r="32.05"/><circle class="cls-2" cx="99.53" cy="321.99" r="32.05"/><circle class="cls-2" cx="178.26" cy="321.99" r="32.05"/><polyline class="cls-23" points="99.2 368.68 99.2 333.91 254.51 333.91"/><polygon points="247.88 342.09 246.52 340.63 253.74 333.91 246.52 327.2 247.88 325.73 256.68 333.91 247.88 342.09"/><line class="cls-2" x1="446.2" y1="715.68" x2="569.46" y2="715.68"/><polygon points="562.84 723.87 561.47 722.4 568.7 715.69 561.47 708.97 562.84 707.51 571.63 715.69 562.84 723.87"/><circle class="cls-2" cx="492.89" cy="636.95" r="32.05"/><line class="cls-2" x1="460.85" y1="636.95" x2="337.58" y2="636.95"/><polygon points="344.21 628.77 345.58 630.23 338.35 636.94 345.58 643.66 344.21 645.12 335.42 636.94 344.21 628.77"/><line class="cls-2" x1="131.57" y1="321.99" x2="254.51" y2="321.99"/><polygon points="247.88 330.17 246.52 328.7 253.74 321.99 246.52 315.27 247.88 313.81 256.68 321.99 247.88 330.17"/><line class="cls-2" x1="208.02" y1="310.07" x2="254.51" y2="310.07"/><polygon points="247.88 318.25 246.52 316.78 253.74 310.07 246.52 303.35 247.88 301.89 256.68 310.07 247.88 318.25"/><path d="M12.58,415.59a13.83,13.83,0,0,1-4.68-.83,10.89,10.89,0,0,1-3.82-2.23l1.3-2.77a15,15,0,0,0,3.56,2.09,9.84,9.84,0,0,0,3.68.72,5.45,5.45,0,0,0,4-1.39A5.09,5.09,0,0,0,18,407.35a5.63,5.63,0,0,0-.65-2.76,4.62,4.62,0,0,0-1.82-1.82,5.62,5.62,0,0,0-2.75-.64,7.2,7.2,0,0,0-3.06.64,7.37,7.37,0,0,0-2.52,2H4.84v-15h15.7v3h-12v9.51L7.36,402A7.19,7.19,0,0,1,10,399.86a8,8,0,0,1,3.58-.76,8.39,8.39,0,0,1,4.23,1A7.1,7.1,0,0,1,20.63,403a8.87,8.87,0,0,1,1,4.28,8.4,8.4,0,0,1-1.12,4.34,7.66,7.66,0,0,1-3.13,2.94A10.38,10.38,0,0,1,12.58,415.59Z"/><path d="M83.09,30.82V27.76h15v3.06Zm5.62-1.7V7.67l2,.72-7.2,4.46V9.43l6.8-4.25h2.17V29.12Z"/><path d="M111.1,31.07a13,13,0,0,1-4.93-.85,7.3,7.3,0,0,1-3.26-2.45A6.23,6.23,0,0,1,101.74,24a6,6,0,0,1,1.79-4.45,8.13,8.13,0,0,1,4.8-2.14l-.14.54a7.81,7.81,0,0,1-4.32-2.18,5.59,5.59,0,0,1-1.55-4,6,6,0,0,1,1.13-3.66,7.36,7.36,0,0,1,3.1-2.36,13.06,13.06,0,0,1,9.11,0,7.33,7.33,0,0,1,3.09,2.36,6,6,0,0,1,1.14,3.66,5.71,5.71,0,0,1-1.55,4,7.58,7.58,0,0,1-4.29,2.16l-.17-.54a8.24,8.24,0,0,1,4.84,2.19,6,6,0,0,1,1.74,4.4,6.23,6.23,0,0,1-1.17,3.79A7.27,7.27,0,0,1,116,30.22,13,13,0,0,1,111.1,31.07Zm0-2.95A7,7,0,0,0,115.37,27a3.8,3.8,0,0,0,1.53-3.26,3.71,3.71,0,0,0-1.64-3.2,8.82,8.82,0,0,0-4.16-1.44A8.78,8.78,0,0,0,107,20.52a3.69,3.69,0,0,0-1.64,3.2A3.8,3.8,0,0,0,106.84,27,7,7,0,0,0,111.1,28.12Zm0-11.52a7.4,7.4,0,0,0,3.71-1.44,3.76,3.76,0,0,0,1.44-3.1A3.77,3.77,0,0,0,114.88,9a7,7,0,0,0-7.56,0A3.76,3.76,0,0,0,106,12.06a3.76,3.76,0,0,0,1.43,3.1A7.43,7.43,0,0,0,111.1,16.6Z"/><path d="M179.06,31.1a7.78,7.78,0,0,1-6.8-3.33q-2.34-3.33-2.34-9.77t2.32-9.76a8.63,8.63,0,0,1,13.64,0q2.33,3.36,2.33,9.72c0,4.3-.79,7.56-2.34,9.8A7.8,7.8,0,0,1,179.06,31.1Zm0-3a4.36,4.36,0,0,0,4.12-2.45q1.32-2.45,1.32-7.71t-1.32-7.63a4.72,4.72,0,0,0-8.24,0q-1.32,2.43-1.32,7.61t1.32,7.71A4.36,4.36,0,0,0,179.06,28.12Z"/><path d="M241.47,25.68V21.21h14.82v4.47Zm4.59-2.61V9h2.58l-6.87,3.93V8.07l6.6-3.75h3.3V23.07Z"/><path d="M265.29,25.92a14.51,14.51,0,0,1-4.11-.61,9,9,0,0,1-3.27-1.67l1.74-4a11.58,11.58,0,0,0,2.85,1.44,9.06,9.06,0,0,0,2.88.48,3.84,3.84,0,0,0,2.49-.67,2.57,2.57,0,0,0,.81-2.09,2.91,2.91,0,0,0-.39-1.56,2.49,2.49,0,0,0-1.11-1,4.16,4.16,0,0,0-1.74-.33,6.67,6.67,0,0,0-1.83.29,8.57,8.57,0,0,0-1.8.73h-3.09V4.32h14.1V8.58h-8.64v5l-1.65-.3a6.18,6.18,0,0,1,2-1.24,7.41,7.41,0,0,1,2.55-.41,7,7,0,0,1,3.54.87A6.37,6.37,0,0,1,273.07,15a7.13,7.13,0,0,1,.89,3.61,7,7,0,0,1-1.07,3.9,6.94,6.94,0,0,1-3,2.55A10.86,10.86,0,0,1,265.29,25.92Z"/><path d="M3.27,254.85v-4.14l7-7.26a9.1,9.1,0,0,0,1.46-2,4,4,0,0,0,.49-1.85,1.89,1.89,0,0,0-.63-1.56,2.85,2.85,0,0,0-1.83-.51,8.08,8.08,0,0,0-2.67.5,12.25,12.25,0,0,0-2.79,1.42l-1.77-4a9.63,9.63,0,0,1,3.35-1.66,14.49,14.49,0,0,1,4.18-.62,10.26,10.26,0,0,1,4,.74,6,6,0,0,1,2.67,2.1,5.45,5.45,0,0,1,.94,3.19,7.72,7.72,0,0,1-.73,3.41A14.07,14.07,0,0,1,14.43,246l-5.67,5.79L8,250.38H18.33v4.47Z"/><path d="M28.56,255.12a7.13,7.13,0,0,1-6.07-2.82q-2.11-2.82-2.12-8.16t2.12-8a7.14,7.14,0,0,1,6.07-2.81,7.16,7.16,0,0,1,6.08,2.81q2.11,2.81,2.11,8t-2.11,8.16A7.14,7.14,0,0,1,28.56,255.12Zm0-4.23a2.15,2.15,0,0,0,2.07-1.57,15.23,15.23,0,0,0,.63-5.18,14.69,14.69,0,0,0-.63-5.07,2.15,2.15,0,0,0-4.14,0,14.69,14.69,0,0,0-.63,5.07,15.23,15.23,0,0,0,.63,5.18A2.15,2.15,0,0,0,28.56,250.89Z"/><path d="M14.67,100.71v-21h1L5.81,93.87l0-1.48H22.12v3H3.18V92.61L15.35,75.08h3v25.63Z"/><path d="M25.94,100.71V97.94l8.81-9.69a15.74,15.74,0,0,0,2.47-3.4,6.64,6.64,0,0,0,.78-3,3.78,3.78,0,0,0-1.14-3,4.6,4.6,0,0,0-3.22-1,9.67,9.67,0,0,0-3.58.71,13.9,13.9,0,0,0-3.55,2.1l-1.33-2.77a11.22,11.22,0,0,1,3.87-2.23,13.78,13.78,0,0,1,4.73-.83,9.78,9.78,0,0,1,4.2.83A6.31,6.31,0,0,1,40.73,78a6.63,6.63,0,0,1,1,3.65,9.43,9.43,0,0,1-1,4.19,19.37,19.37,0,0,1-3.24,4.45l-8.24,8.89-.36-1.51H42.75v3.06Z"/><path d="M482.88,31.07a14.75,14.75,0,0,1-4.86-.81A10.8,10.8,0,0,1,474.13,28l1.33-2.77a13.42,13.42,0,0,0,3.53,2.1,10.27,10.27,0,0,0,3.78.7A6.05,6.05,0,0,0,486.71,27,4.1,4.1,0,0,0,488,23.62a3.84,3.84,0,0,0-1.36-3.23,6.79,6.79,0,0,0-4.14-1.06h-3.14v-3h2.56A6.29,6.29,0,0,0,486,15.19,3.92,3.92,0,0,0,487.38,12a3.84,3.84,0,0,0-1.16-3,4.72,4.72,0,0,0-3.27-1,9.75,9.75,0,0,0-3.62.7,13.26,13.26,0,0,0-3.51,2.11L474.49,8a11.4,11.4,0,0,1,3.87-2.24,14.16,14.16,0,0,1,4.77-.82,10.07,10.07,0,0,1,4.17.81A6.15,6.15,0,0,1,490.06,8a6.52,6.52,0,0,1,.95,3.53,6.55,6.55,0,0,1-1.22,4,6.16,6.16,0,0,1-3.39,2.27l-.07-.36a6.68,6.68,0,0,1,3.93,2.2,6.38,6.38,0,0,1,1.36,4.21,6.43,6.43,0,0,1-2.35,5.27A9.8,9.8,0,0,1,482.88,31.07Z"/><path d="M505.63,31.1a8.82,8.82,0,0,1-7.31-3.24q-2.6-3.24-2.59-9.28a20.23,20.23,0,0,1,1.2-7.38,10.08,10.08,0,0,1,3.5-4.68,9.17,9.17,0,0,1,5.45-1.62,12.4,12.4,0,0,1,4.39.79A11.35,11.35,0,0,1,514,8l-1.34,2.77a12.52,12.52,0,0,0-3.42-2.14A8.58,8.58,0,0,0,506,7.92a5.4,5.4,0,0,0-4.84,2.75q-1.71,2.76-1.71,7.83v2.6l-.47-.94a6.51,6.51,0,0,1,1.33-3,6.9,6.9,0,0,1,2.5-1.93,8,8,0,0,1,3.3-.68,8.15,8.15,0,0,1,4.14,1A7,7,0,0,1,513,18.49a8.87,8.87,0,0,1,1,4.26,8.5,8.5,0,0,1-1.08,4.3,7.84,7.84,0,0,1-3,3A8.6,8.6,0,0,1,505.63,31.1Zm-.18-3a4.81,4.81,0,0,0,3.62-1.44,5.28,5.28,0,0,0,1.38-3.82A5.24,5.24,0,0,0,509.07,19a4.87,4.87,0,0,0-3.66-1.44,5.38,5.38,0,0,0-2.68.67,4.63,4.63,0,0,0-1.82,1.85,6.06,6.06,0,0,0,0,5.46,4.64,4.64,0,0,0,1.82,1.83A5.35,5.35,0,0,0,505.45,28.08Z"/><path d="M5.92,730.62v-3.06h15v3.06Zm5.62-1.69V707.48l2,.72-7.2,4.46v-3.42l6.8-4.25h2.16v23.94Z"/><path d="M34.14,730.88a13.83,13.83,0,0,1-4.68-.83,11.09,11.09,0,0,1-3.81-2.23L26.94,725a14.69,14.69,0,0,0,3.57,2.09,9.79,9.79,0,0,0,3.67.72,5.49,5.49,0,0,0,4-1.38,5.12,5.12,0,0,0,1.42-3.84,5.62,5.62,0,0,0-.65-2.75,4.55,4.55,0,0,0-1.82-1.82,5.59,5.59,0,0,0-2.75-.65,7.24,7.24,0,0,0-3.06.65,7.14,7.14,0,0,0-2.52,2H26.4V705H42.1v3h-12v9.5l-1.16-.18a7.48,7.48,0,0,1,2.65-2.16,8.19,8.19,0,0,1,3.58-.75,8.49,8.49,0,0,1,4.23,1,7.12,7.12,0,0,1,2.81,2.87,8.87,8.87,0,0,1,1,4.28,8.33,8.33,0,0,1-1.12,4.34,7.51,7.51,0,0,1-3.13,2.93A10.23,10.23,0,0,1,34.14,730.88Z"/><path d="M418.67,189.62V150h1.84L401.94,176.7l.07-2.79h30.74v5.65H397v-5.24l23-33.12h5.65v48.42Z"/><path d="M336.7,424.37V384.73h1.84L320,411.45l.06-2.79h30.74v5.65H315v-5.24L338,376h5.64v48.41Z"/><path d="M177.29,662.81a27.89,27.89,0,0,1-9.18-1.53,20.2,20.2,0,0,1-7.34-4.25l2.51-5.23a25.15,25.15,0,0,0,6.67,4,19.31,19.31,0,0,0,7.14,1.33c3.3,0,5.79-.69,7.44-2.07s2.48-3.48,2.48-6.29-.86-4.75-2.58-6.09-4.33-2-7.82-2h-5.92v-5.71h4.83q5,0,7.65-2.11a7.37,7.37,0,0,0,2.62-6.12,7.24,7.24,0,0,0-2.18-5.64,8.9,8.9,0,0,0-6.18-2,18.6,18.6,0,0,0-6.84,1.32,25.49,25.49,0,0,0-6.63,4l-2.51-5.23a21.24,21.24,0,0,1,7.31-4.22,26.65,26.65,0,0,1,9-1.56,19,19,0,0,1,7.88,1.53,11.64,11.64,0,0,1,5.21,4.38,13.37,13.37,0,0,1-.51,14.21,11.64,11.64,0,0,1-6.4,4.29l-.13-.68a12.58,12.58,0,0,1,7.41,4.15,13.44,13.44,0,0,1-1.87,17.91Q184.9,662.82,177.29,662.81Z"/><path class="cls-25" d="M255.15,375.41q9,0,13.83,6.12t4.87,17.55A38,38,0,0,1,271.57,413a19.18,19.18,0,0,1-6.56,8.84,17.35,17.35,0,0,1-10.34,3.06,23.56,23.56,0,0,1-8.26-1.5,21.51,21.51,0,0,1-7.11-4.28l2.59-5.24a25.71,25.71,0,0,0,6.49,4.05,16.17,16.17,0,0,0,6.15,1.25,10.13,10.13,0,0,0,9.12-5.2q3.19-5.21,3.19-14.79v-4.89l1,1.76a12.21,12.21,0,0,1-2.51,5.61,12.82,12.82,0,0,1-4.76,3.64,15,15,0,0,1-6.26,1.29,15.3,15.3,0,0,1-7.78-1.93,13.66,13.66,0,0,1-5.27-5.44,16.61,16.61,0,0,1-1.91-8.06,16.09,16.09,0,0,1,2-8.13,14.71,14.71,0,0,1,5.65-5.61A16.26,16.26,0,0,1,255.15,375.41Zm.4,5.71a9,9,0,0,0-6.86,2.72,10,10,0,0,0-2.59,7.21,9.9,9.9,0,0,0,2.59,7.14,9.08,9.08,0,0,0,6.93,2.72,10.07,10.07,0,0,0,5-1.26,8.6,8.6,0,0,0,3.47-3.5,10.4,10.4,0,0,0,1.23-5.1,10.52,10.52,0,0,0-1.23-5.2,8.77,8.77,0,0,0-3.47-3.47A10.2,10.2,0,0,0,255.55,381.12Z"/><path class="cls-25" d="M248.17,489.92a10.69,10.69,0,0,1-3.51-.59,7.82,7.82,0,0,1-2.8-1.62l1-2a9.55,9.55,0,0,0,2.54,1.52,7.43,7.43,0,0,0,2.73.51,4.33,4.33,0,0,0,2.84-.8,2.94,2.94,0,0,0,.95-2.4,2.74,2.74,0,0,0-1-2.32,4.83,4.83,0,0,0-3-.77h-2.26v-2.18h1.84a4.54,4.54,0,0,0,2.92-.8,2.83,2.83,0,0,0,1-2.34,2.77,2.77,0,0,0-.83-2.15,3.39,3.39,0,0,0-2.36-.75,7.24,7.24,0,0,0-2.61.5,9.78,9.78,0,0,0-2.53,1.52l-1-2a8.22,8.22,0,0,1,2.79-1.61,10.37,10.37,0,0,1,3.44-.59,7.28,7.28,0,0,1,3,.58,4.42,4.42,0,0,1,2,1.67,5.11,5.11,0,0,1-.19,5.43,4.38,4.38,0,0,1-2.44,1.63l-.05-.26a4.81,4.81,0,0,1,2.83,1.59,4.59,4.59,0,0,1,1,3,4.64,4.64,0,0,1-1.7,3.8A7.09,7.09,0,0,1,248.17,489.92Z"/><path class="cls-25" d="M264.57,489.94a6.38,6.38,0,0,1-5.27-2.33c-1.24-1.56-1.87-3.79-1.87-6.7a14.49,14.49,0,0,1,.87-5.32,7.29,7.29,0,0,1,2.52-3.38,6.68,6.68,0,0,1,3.93-1.16,9,9,0,0,1,3.17.57,8.23,8.23,0,0,1,2.7,1.63l-1,2a9.29,9.29,0,0,0-2.47-1.54,6.26,6.26,0,0,0-2.36-.48,3.9,3.9,0,0,0-3.49,2,10.79,10.79,0,0,0-1.23,5.65v1.87l-.34-.68a4.71,4.71,0,0,1,1-2.14,4.93,4.93,0,0,1,1.8-1.39,5.63,5.63,0,0,1,2.38-.49,5.83,5.83,0,0,1,3,.74,5.1,5.1,0,0,1,2,2.07,6.54,6.54,0,0,1,.71,3.08,6.13,6.13,0,0,1-.78,3.1,5.64,5.64,0,0,1-2.14,2.14A6.19,6.19,0,0,1,264.57,489.94Zm-.13-2.18a3.44,3.44,0,0,0,2.61-1,3.78,3.78,0,0,0,1-2.75,3.74,3.74,0,0,0-1-2.72,3.46,3.46,0,0,0-2.63-1,3.85,3.85,0,0,0-1.94.48,3.31,3.31,0,0,0-1.31,1.34,4,4,0,0,0-.47,1.94,4.07,4.07,0,0,0,.47,2,3.39,3.39,0,0,0,1.31,1.32A3.9,3.9,0,0,0,264.44,487.76Z"/><path class="cls-25" d="M326.18,489.92a10.69,10.69,0,0,1-3.51-.59,7.82,7.82,0,0,1-2.8-1.62l1-2a9.55,9.55,0,0,0,2.54,1.52,7.43,7.43,0,0,0,2.73.51,4.33,4.33,0,0,0,2.84-.8,2.94,2.94,0,0,0,.95-2.4,2.74,2.74,0,0,0-1-2.32,4.81,4.81,0,0,0-3-.77h-2.26v-2.18h1.84a4.54,4.54,0,0,0,2.92-.8,2.83,2.83,0,0,0,1-2.34,2.73,2.73,0,0,0-.83-2.15,3.39,3.39,0,0,0-2.36-.75,7.24,7.24,0,0,0-2.61.5,9.78,9.78,0,0,0-2.53,1.52l-1-2a8.22,8.22,0,0,1,2.79-1.61,10.37,10.37,0,0,1,3.44-.59,7.28,7.28,0,0,1,3,.58,4.45,4.45,0,0,1,2,1.67,4.76,4.76,0,0,1,.68,2.55,4.71,4.71,0,0,1-.88,2.88,4.38,4.38,0,0,1-2.44,1.63l-.05-.26a4.81,4.81,0,0,1,2.83,1.59,4.59,4.59,0,0,1,1,3,4.67,4.67,0,0,1-1.7,3.8A7.12,7.12,0,0,1,326.18,489.92Z"/><path class="cls-25" d="M342.58,489.94a6.38,6.38,0,0,1-5.27-2.33c-1.24-1.56-1.87-3.79-1.87-6.7a14.49,14.49,0,0,1,.87-5.32,7.29,7.29,0,0,1,2.52-3.38,6.68,6.68,0,0,1,3.93-1.16,9,9,0,0,1,3.17.57,8.23,8.23,0,0,1,2.7,1.63l-1,2a9.29,9.29,0,0,0-2.47-1.54,6.26,6.26,0,0,0-2.36-.48,3.9,3.9,0,0,0-3.49,2,10.79,10.79,0,0,0-1.23,5.65v1.87l-.34-.68a4.82,4.82,0,0,1,1-2.14,4.93,4.93,0,0,1,1.8-1.39,5.63,5.63,0,0,1,2.38-.49,5.83,5.83,0,0,1,3,.74,5.1,5.1,0,0,1,2,2.07,6.54,6.54,0,0,1,.71,3.08,6.13,6.13,0,0,1-.78,3.1,5.64,5.64,0,0,1-2.14,2.14A6.19,6.19,0,0,1,342.58,489.94Zm-.13-2.18a3.43,3.43,0,0,0,2.61-1,3.78,3.78,0,0,0,1-2.75,3.74,3.74,0,0,0-1-2.72,3.46,3.46,0,0,0-2.63-1,3.85,3.85,0,0,0-1.94.48,3.31,3.31,0,0,0-1.31,1.34,4,4,0,0,0-.47,1.94,4.07,4.07,0,0,0,.47,2,3.39,3.39,0,0,0,1.31,1.32A3.9,3.9,0,0,0,342.45,487.76Z"/><path class="cls-25" d="M179.49,426.84a25.75,25.75,0,0,1-8.84-1.57,20.56,20.56,0,0,1-7.21-4.21l2.45-5.24a27.81,27.81,0,0,0,6.73,3.95,18.63,18.63,0,0,0,6.93,1.36c3.22,0,5.73-.88,7.52-2.62a9.65,9.65,0,0,0,2.68-7.24,10.56,10.56,0,0,0-1.22-5.21,8.7,8.7,0,0,0-3.43-3.43,10.56,10.56,0,0,0-5.21-1.22,13.59,13.59,0,0,0-5.78,1.22,13.84,13.84,0,0,0-4.76,3.74h-4.48V378h29.64v5.64H171.8v18l-2.17-.34a13.76,13.76,0,0,1,5-4.08,15.44,15.44,0,0,1,6.77-1.43,16,16,0,0,1,8,1.94,13.34,13.34,0,0,1,5.3,5.41,16.75,16.75,0,0,1,1.87,8.09,15.85,15.85,0,0,1-2.1,8.19,14.48,14.48,0,0,1-5.92,5.55A19.48,19.48,0,0,1,179.49,426.84Z"/><path class="cls-25" d="M179.67,502.42q-8.91,0-13.8-6.12T161,478.75a38,38,0,0,1,2.28-13.94,19,19,0,0,1,6.6-8.84,17.35,17.35,0,0,1,10.3-3.06,23.57,23.57,0,0,1,8.3,1.5,21.81,21.81,0,0,1,7.07,4.28L193,463.93a24.42,24.42,0,0,0-6.46-4.05,16.64,16.64,0,0,0-6.19-1.25,10.18,10.18,0,0,0-9.14,5.2Q168,469,168,478.62v4.89l-.89-1.76a12.33,12.33,0,0,1,2.52-5.61,12.84,12.84,0,0,1,4.72-3.64,14.84,14.84,0,0,1,6.23-1.29,15.56,15.56,0,0,1,7.82,1.93,13.53,13.53,0,0,1,5.27,5.44,16.94,16.94,0,0,1,1.87,8.06,16.09,16.09,0,0,1-2,8.13,14.82,14.82,0,0,1-5.61,5.61A16.25,16.25,0,0,1,179.67,502.42Zm-.34-5.71a9.09,9.09,0,0,0,6.84-2.72,10,10,0,0,0,2.62-7.21,9.88,9.88,0,0,0-2.62-7.14,9.14,9.14,0,0,0-6.91-2.72,10,10,0,0,0-5.06,1.26,8.84,8.84,0,0,0-3.44,3.5,10.51,10.51,0,0,0-1.22,5.1,10.63,10.63,0,0,0,1.22,5.2,9,9,0,0,0,3.44,3.47A10.16,10.16,0,0,0,179.33,496.71Z"/><path d="M402,424.37v-5.78H430.3v5.78Zm10.6-3.19V380.65l3.75,1.36-13.61,8.43V384l12.86-8h4.08v45.22Z"/><path d="M335.64,190.1a27.86,27.86,0,0,1-9.18-1.54,20.2,20.2,0,0,1-7.34-4.25l2.51-5.23a25.31,25.31,0,0,0,6.66,4,19.58,19.58,0,0,0,7.14,1.32c3.31,0,5.8-.69,7.45-2.07s2.48-3.48,2.48-6.29-.86-4.75-2.58-6.09-4.33-2-7.82-2H329v-5.71h4.83c3.36,0,5.91-.71,7.65-2.11a7.4,7.4,0,0,0,2.62-6.12,7.25,7.25,0,0,0-2.18-5.65,8.9,8.9,0,0,0-6.18-2,18.37,18.37,0,0,0-6.84,1.33,25.22,25.22,0,0,0-6.63,4l-2.52-5.24a21.59,21.59,0,0,1,7.31-4.22,26.75,26.75,0,0,1,9-1.56,19,19,0,0,1,7.88,1.53,11.59,11.59,0,0,1,5.21,4.39,12.21,12.21,0,0,1,1.8,6.66,12.36,12.36,0,0,1-2.31,7.55,11.68,11.68,0,0,1-6.4,4.28l-.13-.68a12.58,12.58,0,0,1,7.41,4.15,13.45,13.45,0,0,1-1.87,17.92Q343.26,190.09,335.64,190.1Z"/><circle cx="453.52" cy="400.73" r="10"/><circle class="cls-17" cx="492.89" cy="361.36" r="9"/><path class="cls-26" d="M492.89,353.36a8,8,0,1,1-8,8,8,8,0,0,1,8-8m0-2a10,10,0,1,0,10,10,10,10,0,0,0-10-10Z"/><circle class="cls-27" cx="178.26" cy="87.38" r="32.05"/><circle class="cls-27" cx="99.53" cy="243.25" r="32.05"/><circle class="cls-27" cx="296.05" cy="518.84" r="17.65"/><path d="M291.22,517.48a6.85,6.85,0,0,1-2.08-.32,4.46,4.46,0,0,1-1.64-.91l.66-1.41a5.3,5.3,0,0,0,1.44.83,4.28,4.28,0,0,0,1.54.28,2.39,2.39,0,0,0,1.53-.4,1.48,1.48,0,0,0,.5-1.24,1.39,1.39,0,0,0-.51-1.19,2.54,2.54,0,0,0-1.58-.39h-1.41v-1.54h1.16a2.64,2.64,0,0,0,1.55-.38,1.62,1.62,0,0,0,.07-2.31,1.81,1.81,0,0,0-1.25-.4,4.25,4.25,0,0,0-1.47.28,5.6,5.6,0,0,0-1.42.83l-.66-1.4a4.65,4.65,0,0,1,1.63-.91,6.68,6.68,0,0,1,2-.32,4.45,4.45,0,0,1,1.82.34,2.76,2.76,0,0,1,1.19,1,2.69,2.69,0,0,1,.42,1.5,2.51,2.51,0,0,1-1.89,2.56v-.15a2.86,2.86,0,0,1,1.61.92,2.7,2.7,0,0,1,.56,1.75,2.64,2.64,0,0,1-1,2.2A4.38,4.38,0,0,1,291.22,517.48Z"/><path d="M301,517.5a3.79,3.79,0,0,1-3.11-1.36,6.05,6.05,0,0,1-1.1-3.91,8.14,8.14,0,0,1,.51-3.05,4.24,4.24,0,0,1,1.5-1.94,4.12,4.12,0,0,1,2.34-.66,5.59,5.59,0,0,1,1.86.31,4.64,4.64,0,0,1,1.59.92l-.66,1.4a5.66,5.66,0,0,0-1.42-.84,3.56,3.56,0,0,0-1.3-.27,2.09,2.09,0,0,0-1.87,1.06,5.9,5.9,0,0,0-.65,3V513l-.21-.38a2.46,2.46,0,0,1,.54-1.11,2.75,2.75,0,0,1,1-.74,3.43,3.43,0,0,1,3,.18,3.17,3.17,0,0,1,1.16,1.22,3.66,3.66,0,0,1,.42,1.78,3.56,3.56,0,0,1-.47,1.83,3.18,3.18,0,0,1-1.27,1.25A3.6,3.6,0,0,1,301,517.5ZM301,516a1.73,1.73,0,0,0,1.33-.53,2.25,2.25,0,0,0,0-2.83,1.75,1.75,0,0,0-1.34-.54,2,2,0,0,0-1,.25,1.82,1.82,0,0,0-.66.69,2.13,2.13,0,0,0-.24,1,2.11,2.11,0,0,0,.24,1,1.8,1.8,0,0,0,.66.68A2,2,0,0,0,301,516Z"/><path d="M292,530.38v-8.3h.45l-3.69,5.3,0-.62h6.64v1.51h-8v-1.42l5-7.16h1.55v10.69Z"/><path d="M300.85,530.48a5.83,5.83,0,0,1-2.09-.35,3.12,3.12,0,0,1-1.4-1,2.56,2.56,0,0,1-.5-1.6,2.44,2.44,0,0,1,.73-1.84,3.4,3.4,0,0,1,2-.88l-.06.22a3.32,3.32,0,0,1-1.78-.9,2.31,2.31,0,0,1-.66-1.66,2.49,2.49,0,0,1,.48-1.53,3.1,3.1,0,0,1,1.34-1,5.07,5.07,0,0,1,1.93-.34,5,5,0,0,1,1.92.34,3.1,3.1,0,0,1,1.34,1,2.5,2.5,0,0,1,.49,1.53,2.34,2.34,0,0,1-.66,1.68,3.05,3.05,0,0,1-1.77.88l-.06-.22a3.45,3.45,0,0,1,2,.9,2.48,2.48,0,0,1,.73,1.82,2.57,2.57,0,0,1-.51,1.6,3.12,3.12,0,0,1-1.4,1A5.77,5.77,0,0,1,300.85,530.48Zm0-1.5a2.75,2.75,0,0,0,1.59-.41,1.39,1.39,0,0,0,.58-1.21,1.42,1.42,0,0,0-.61-1.21,3.32,3.32,0,0,0-1.56-.56,3.36,3.36,0,0,0-1.57.56,1.42,1.42,0,0,0-.61,1.21,1.4,1.4,0,0,0,.59,1.21A2.75,2.75,0,0,0,300.85,529Zm0-4.62a3,3,0,0,0,1.36-.56,1.42,1.42,0,0,0,.54-1.17,1.37,1.37,0,0,0-.52-1.16,2.22,2.22,0,0,0-1.38-.39,2.25,2.25,0,0,0-1.39.39,1.37,1.37,0,0,0-.52,1.16,1.42,1.42,0,0,0,.54,1.17A3,3,0,0,0,300.85,524.36Z"/><circle class="cls-27" cx="374.78" cy="518.84" r="17.65"/><path d="M366.73,517.38V516l3.62-3.91a7,7,0,0,0,.93-1.29,2.57,2.57,0,0,0,.3-1.16,1.41,1.41,0,0,0-.42-1.11,1.78,1.78,0,0,0-1.22-.38,4.19,4.19,0,0,0-1.45.28,6.54,6.54,0,0,0-1.45.83l-.65-1.4a4.65,4.65,0,0,1,1.63-.91,6.6,6.6,0,0,1,2-.32,4.49,4.49,0,0,1,1.83.34,2.64,2.64,0,0,1,1.2,1,2.79,2.79,0,0,1,.42,1.55,3.88,3.88,0,0,1-.39,1.73,7.76,7.76,0,0,1-1.32,1.81l-3.25,3.45-.23-.65h5.6v1.57Z"/><path d="M379.44,517.48a6.23,6.23,0,0,1-2-.33,4.54,4.54,0,0,1-1.61-.9l.65-1.41a6,6,0,0,0,1.46.83,4.39,4.39,0,0,0,1.51.28,2.18,2.18,0,0,0,1.53-.5,1.86,1.86,0,0,0,.54-1.43,2.13,2.13,0,0,0-.25-1,1.67,1.67,0,0,0-.7-.67,2.21,2.21,0,0,0-1.06-.25,2.92,2.92,0,0,0-1.17.24,3.05,3.05,0,0,0-1,.68H376.2v-6.29h6.69v1.52h-4.8v3.52l-.59-.08a3,3,0,0,1,1.08-.83,3.81,3.81,0,0,1,3.19.15,3.09,3.09,0,0,1,1.18,1.2,3.54,3.54,0,0,1,.43,1.79,3.46,3.46,0,0,1-.49,1.85,3.25,3.25,0,0,1-1.36,1.23A4.67,4.67,0,0,1,379.44,517.48Z"/><path d="M374.45,519.58a3.79,3.79,0,0,1,3.12,1.35,6.11,6.11,0,0,1,1.09,3.91,8.14,8.14,0,0,1-.51,3,4.24,4.24,0,0,1-1.5,1.94,4.08,4.08,0,0,1-2.34.67,5.6,5.6,0,0,1-1.86-.32,4.62,4.62,0,0,1-1.59-.91l.66-1.42a5.36,5.36,0,0,0,1.43.85,3.46,3.46,0,0,0,1.3.26,2.06,2.06,0,0,0,1.86-1.05,5.9,5.9,0,0,0,.65-3v-.81l.21.38a2.41,2.41,0,0,1-.54,1.11,2.75,2.75,0,0,1-1,.74,3.41,3.41,0,0,1-3-.18,3.12,3.12,0,0,1-1.17-1.22,3.62,3.62,0,0,1-.42-1.77,3.57,3.57,0,0,1,.47-1.84A3.34,3.34,0,0,1,372.6,520,3.86,3.86,0,0,1,374.45,519.58Zm.1,1.52a1.73,1.73,0,0,0-1.34.54,2.25,2.25,0,0,0,0,2.83,1.73,1.73,0,0,0,1.34.53,2,2,0,0,0,1-.24,1.71,1.71,0,0,0,.67-.69,2.35,2.35,0,0,0,0-2,1.71,1.71,0,0,0-.67-.69A2,2,0,0,0,374.55,521.1Z"/><line class="cls-2" x1="232.45" y1="25.2" x2="222" y2="35.65"/><polygon points="220.9 25.18 222.9 25.25 222.54 35.11 232.4 34.75 232.47 36.75 220.47 37.18 220.9 25.18"/><line class="cls-2" x1="280.9" y1="25.2" x2="291.35" y2="35.65"/><polygon points="280.88 36.75 280.95 34.75 290.81 35.11 290.45 25.25 292.45 25.18 292.88 37.19 280.88 36.75"/><line class="cls-2" x1="36.46" y1="263.79" x2="46.91" y2="274.24"/><polygon points="36.44 275.34 36.51 273.34 46.36 273.7 46 263.84 48 263.77 48.44 275.77 36.44 275.34"/><rect class="cls-17" x="361.13" y="308.34" width="27.3" height="27.3" rx="13.65"/><polygon points="383.56 330.66 378.74 330.66 367.03 314.95 371.81 314.95 383.56 330.66"/><polygon points="383.48 314.95 371.7 330.66 366.89 330.66 378.67 314.95 383.48 314.95"/><polyline class="cls-28" points="492.89 558.21 414.15 558.21 492.89 636.95"/><path class="cls-25" d="M407.12,571.28a10.64,10.64,0,0,1-3.51-.59,7.82,7.82,0,0,1-2.8-1.62l1-2a9.55,9.55,0,0,0,2.54,1.52,7.4,7.4,0,0,0,2.73.51,4.33,4.33,0,0,0,2.84-.8,2.94,2.94,0,0,0,.95-2.4,2.76,2.76,0,0,0-1-2.32,4.83,4.83,0,0,0-3-.77H404.6v-2.18h1.84a4.56,4.56,0,0,0,2.92-.8,2.81,2.81,0,0,0,1-2.34,2.77,2.77,0,0,0-.83-2.15,3.41,3.41,0,0,0-2.36-.75,7.2,7.2,0,0,0-2.61.5,9.78,9.78,0,0,0-2.53,1.52l-1-2a8.22,8.22,0,0,1,2.79-1.61,10.32,10.32,0,0,1,3.44-.59,7.28,7.28,0,0,1,3,.58,4.48,4.48,0,0,1,2,1.67,5.11,5.11,0,0,1-.19,5.43,4.38,4.38,0,0,1-2.44,1.63l-.05-.26a4.84,4.84,0,0,1,2.83,1.59,5.14,5.14,0,0,1-.72,6.84A7.09,7.09,0,0,1,407.12,571.28Z"/><path class="cls-25" d="M423.52,571.3a6.38,6.38,0,0,1-5.27-2.33q-1.87-2.34-1.87-6.7a14.49,14.49,0,0,1,.87-5.32,7.29,7.29,0,0,1,2.52-3.38,6.68,6.68,0,0,1,3.93-1.16,9,9,0,0,1,3.17.57,8.23,8.23,0,0,1,2.7,1.63l-1,2a9.29,9.29,0,0,0-2.47-1.54,6.3,6.3,0,0,0-2.36-.48,3.88,3.88,0,0,0-3.49,2,10.79,10.79,0,0,0-1.24,5.65v1.87l-.33-.68a4.61,4.61,0,0,1,1-2.14,4.85,4.85,0,0,1,1.8-1.39,5.63,5.63,0,0,1,2.38-.49,5.93,5.93,0,0,1,3,.74,5,5,0,0,1,2,2.07,6.42,6.42,0,0,1,.72,3.08,6.13,6.13,0,0,1-.78,3.1,5.64,5.64,0,0,1-2.14,2.14A6.19,6.19,0,0,1,423.52,571.3Zm-.13-2.18a3.44,3.44,0,0,0,2.61-1,3.82,3.82,0,0,0,1-2.75,3.78,3.78,0,0,0-1-2.72,3.52,3.52,0,0,0-2.64-1,3.84,3.84,0,0,0-1.93.48,3.31,3.31,0,0,0-1.31,1.34,4,4,0,0,0-.47,1.94,4.07,4.07,0,0,0,.47,2,3.39,3.39,0,0,0,1.31,1.32A3.9,3.9,0,0,0,423.39,569.12Z"/><path class="cls-25" d="M564.47,410.93a6.35,6.35,0,0,1-5.27-2.33q-1.87-2.34-1.87-6.7a14.53,14.53,0,0,1,.87-5.32,7.26,7.26,0,0,1,2.52-3.37,6.62,6.62,0,0,1,3.93-1.17,9,9,0,0,1,3.17.57,8.26,8.26,0,0,1,2.7,1.64l-1,2a9.29,9.29,0,0,0-2.47-1.54,6.3,6.3,0,0,0-2.36-.48,3.88,3.88,0,0,0-3.49,2,10.79,10.79,0,0,0-1.24,5.65v1.87l-.33-.68a4.61,4.61,0,0,1,1-2.14,5,5,0,0,1,1.8-1.39,5.79,5.79,0,0,1,2.38-.49,5.93,5.93,0,0,1,3,.74,5,5,0,0,1,2,2.08,6.36,6.36,0,0,1,.72,3.07,6.1,6.1,0,0,1-.78,3.1,5.74,5.74,0,0,1-2.14,2.15A6.18,6.18,0,0,1,564.47,410.93Zm-.13-2.18a3.47,3.47,0,0,0,2.61-1,3.85,3.85,0,0,0,1-2.76,3.78,3.78,0,0,0-1-2.72,3.52,3.52,0,0,0-2.64-1,3.84,3.84,0,0,0-1.93.48,3.38,3.38,0,0,0-1.31,1.34,4.34,4.34,0,0,0,0,3.93,3.39,3.39,0,0,0,1.31,1.32A3.87,3.87,0,0,0,564.34,408.75Z"/><path class="cls-25" d="M579.42,410.91a9.41,9.41,0,0,1-3.56-.61,5.38,5.38,0,0,1-2.35-1.77,4.52,4.52,0,0,1-.84-2.73,4.29,4.29,0,0,1,1.29-3.21,5.85,5.85,0,0,1,3.46-1.54l-.1.38a5.59,5.59,0,0,1-3.12-1.57,4,4,0,0,1-1.11-2.89,4.25,4.25,0,0,1,.82-2.63,5.07,5.07,0,0,1,2.23-1.7,9.27,9.27,0,0,1,6.56,0,5.16,5.16,0,0,1,2.24,1.7,4.31,4.31,0,0,1,.81,2.63,4.13,4.13,0,0,1-1.11,2.91,5.49,5.49,0,0,1-3.09,1.55l-.13-.38a5.83,5.83,0,0,1,3.49,1.58,4.32,4.32,0,0,1,1.26,3.17,4.52,4.52,0,0,1-.84,2.73A5.38,5.38,0,0,1,583,410.3,9.41,9.41,0,0,1,579.42,410.91Zm0-2.13a5.06,5.06,0,0,0,3.08-.82,2.75,2.75,0,0,0,1.1-2.35,2.67,2.67,0,0,0-1.18-2.31,4.88,4.88,0,0,0-6,0,2.67,2.67,0,0,0-1.18,2.31,2.75,2.75,0,0,0,1.1,2.35A5.06,5.06,0,0,0,579.42,408.78Zm0-8.31a5.18,5.18,0,0,0,2.67-1,3,3,0,0,0,.06-4.48,5.11,5.11,0,0,0-5.46,0,3,3,0,0,0,.06,4.48A5.18,5.18,0,0,0,579.42,400.47Z"/><rect class="cls-17" x="439.87" y="308.34" width="27.3" height="27.3" rx="13.65"/><polygon points="462.4 314.95 455.25 330.66 451.96 330.66 444.81 314.95 449.11 314.95 453.65 325.49 458.22 314.95 462.4 314.95"/><rect class="cls-17" x="518.61" y="387.08" width="27.3" height="27.3" rx="13.65"/><polygon points="541.14 393.69 533.99 409.4 530.7 409.4 523.55 393.69 527.85 393.69 532.38 404.23 536.96 393.69 541.14 393.69"/><line class="cls-29" x1="650.37" y1="400.73" x2="492.89" y2="558.21"/><line class="cls-30" x1="494" y1="401.55" x2="727.03" y2="634.57"/><line class="cls-2" x1="524.94" y1="479.47" x2="726.94" y2="479.47"/><polygon points="720.32 487.65 718.95 486.18 726.18 479.47 718.95 472.75 720.32 471.29 729.11 479.47 720.32 487.65"/><polyline class="cls-31" points="650.25 479.34 571.63 480.28 571.63 560.06 649.45 637.87"/><path class="cls-25" d="M561.59,486.91h-2.88l9-17.21.13.94H557.62v-2.21h12.51v2Z"/><path class="cls-25" d="M579.42,487.1a9.61,9.61,0,0,1-3.56-.61,5.38,5.38,0,0,1-2.35-1.77,4.53,4.53,0,0,1-.84-2.74,4.27,4.27,0,0,1,1.29-3.2,5.85,5.85,0,0,1,3.46-1.55l-.1.39a5.66,5.66,0,0,1-3.12-1.57,4.07,4.07,0,0,1-1.11-2.89,4.3,4.3,0,0,1,.82-2.64,5.22,5.22,0,0,1,2.23-1.7,9.41,9.41,0,0,1,6.56,0,5.31,5.31,0,0,1,2.24,1.7,4.36,4.36,0,0,1,.81,2.64,4.09,4.09,0,0,1-1.11,2.9,5.44,5.44,0,0,1-3.09,1.56l-.13-.39a5.89,5.89,0,0,1,3.49,1.59,4.3,4.3,0,0,1,1.26,3.16,4.53,4.53,0,0,1-.84,2.74,5.38,5.38,0,0,1-2.35,1.77A9.61,9.61,0,0,1,579.42,487.1Zm0-2.13a5.12,5.12,0,0,0,3.08-.82,2.77,2.77,0,0,0,1.1-2.35,2.65,2.65,0,0,0-1.18-2.31,4.85,4.85,0,0,0-6,0,2.65,2.65,0,0,0-1.18,2.31,2.77,2.77,0,0,0,1.1,2.35A5.12,5.12,0,0,0,579.42,485Zm0-8.31a5.19,5.19,0,0,0,2.67-1,3,3,0,0,0,.06-4.47,5.06,5.06,0,0,0-5.46,0,3,3,0,0,0,.06,4.47A5.19,5.19,0,0,0,579.42,476.66Z"/><path class="cls-25" d="M648.84,533.88q9,0,13.84,6.12t4.86,17.55a38.23,38.23,0,0,1-2.27,13.94,19.13,19.13,0,0,1-6.57,8.84,17.29,17.29,0,0,1-10.33,3.06,23.56,23.56,0,0,1-8.26-1.5,21.34,21.34,0,0,1-7.11-4.28l2.58-5.24a25.75,25.75,0,0,0,6.5,4,16.19,16.19,0,0,0,6.15,1.26,10.11,10.11,0,0,0,9.11-5.21q3.2-5.19,3.2-14.79v-4.89l1,1.77a12.52,12.52,0,0,1-2.51,5.61,12.9,12.9,0,0,1-4.76,3.63,14.9,14.9,0,0,1-6.26,1.3,15.37,15.37,0,0,1-7.79-1.94,13.73,13.73,0,0,1-5.27-5.44,16.61,16.61,0,0,1-1.9-8.06,16.09,16.09,0,0,1,2-8.13,14.75,14.75,0,0,1,5.64-5.61A16.31,16.31,0,0,1,648.84,533.88Zm.41,5.72a9,9,0,0,0-6.87,2.72,11.25,11.25,0,0,0,0,14.34,9.11,9.11,0,0,0,6.94,2.72,10.07,10.07,0,0,0,5-1.25,8.75,8.75,0,0,0,3.47-3.51,10.4,10.4,0,0,0,1.22-5.1,10.55,10.55,0,0,0-1.22-5.2,8.84,8.84,0,0,0-3.47-3.47A10.3,10.3,0,0,0,649.25,539.6Z"/></g></svg>