<svg xmlns="http://www.w3.org/2000/svg" viewBox="0 0 770.98 757.55"><defs><style>.cls-1,.cls-10,.cls-11,.cls-12,.cls-13,.cls-16,.cls-17,.cls-18,.cls-2,.cls-22,.cls-4,.cls-5,.cls-6,.cls-7,.cls-8,.cls-9{fill:none;}.cls-1{stroke:#d8d8d8;stroke-width:20px;}.cls-1,.cls-13,.cls-2{stroke-linecap:round;}.cls-1,.cls-10,.cls-11,.cls-12,.cls-16,.cls-17,.cls-18,.cls-22,.cls-23,.cls-4,.cls-5,.cls-6,.cls-7,.cls-8,.cls-9{stroke-miterlimit:10;}.cls-2{stroke:#8fcbcf;}.cls-13,.cls-2{stroke-linejoin:round;}.cls-16,.cls-2{stroke-width:5px;}.cls-3{fill:#d8d8d8;}.cls-10,.cls-11,.cls-12,.cls-16,.cls-17,.cls-4,.cls-5,.cls-6,.cls-7,.cls-8,.cls-9{stroke:#737373;}.cls-10,.cls-11,.cls-12,.cls-4,.cls-5,.cls-6,.cls-7,.cls-8,.cls-9{stroke-width:2px;}.cls-5{stroke-dasharray:4.13 4.13;}.cls-6{stroke-dasharray:4.13 4.13;}.cls-7{stroke-dasharray:4.02 4.02;}.cls-8{stroke-dasharray:4.04 4.04;}.cls-9{stroke-dasharray:4.13 4.13;}.cls-10{stroke-dasharray:3.98 3.98;}.cls-11{stroke-dasharray:3.93 3.93;}.cls-12{stroke-dasharray:4.02 4.02;}.cls-13{stroke:#c7a189;stroke-width:10px;}.cls-14,.cls-23{fill:#fff;}.cls-15{fill:#737373;}.cls-18{stroke:#999;}.cls-18,.cls-23{stroke-width:4px;}.cls-19{fill:#999;}.cls-20{fill:#4e72b0;}.cls-21{fill:#242424;}.cls-22,.cls-23{stroke:#c18bb7;}.cls-22{stroke-width:9px;}</style></defs><g id="ui"><path class="cls-1" d="M414.16,322V225.34a60.84,60.84,0,0,0-60.84-60.83H337.43"/><polyline class="cls-2" points="571.63 400.73 571.63 560.06 649.45 637.87"/><circle class="cls-3" cx="337.43" cy="164.67" r="30"/><circle class="cls-3" cx="337.43" cy="87.38" r="30"/><circle class="cls-3" cx="256.68" cy="321.99" r="30"/><circle class="cls-3" cx="571.61" cy="164.67" r="30"/><circle class="cls-3" cx="571.61" cy="321.21" r="30"/><rect class="cls-3" x="309.33" y="373.59" width="54.28" height="54.28"/><polyline class="cls-4" points="289.65 431.7 289.65 433.7 287.65 433.7"/><line class="cls-5" x1="283.52" y1="433.7" x2="227.77" y2="433.7"/><polyline class="cls-4" points="225.7 433.7 223.7 433.7 223.7 431.7"/><line class="cls-5" x1="223.7" y1="427.57" x2="223.7" y2="371.82"/><polyline class="cls-4" points="223.7 369.75 223.7 367.75 225.7 367.75"/><line class="cls-5" x1="229.83" y1="367.75" x2="285.58" y2="367.75"/><polyline class="cls-4" points="287.65 367.75 289.65 367.75 289.65 369.75"/><line class="cls-5" x1="289.65" y1="373.88" x2="289.65" y2="429.64"/><rect class="cls-3" x="387.01" y="373.59" width="54.28" height="54.28" rx="27.14"/><polyline class="cls-4" points="208.91 525.24 210.91 525.24 210.91 527.24"/><line class="cls-6" x1="210.91" y1="531.37" x2="210.91" y2="587.11"/><polyline class="cls-4" points="210.91 589.18 210.91 591.18 208.91 591.18"/><line class="cls-7" x1="204.89" y1="591.18" x2="70.23" y2="591.18"/><polyline class="cls-4" points="68.22 591.18 66.22 591.18 66.22 589.18"/><line class="cls-8" x1="66.22" y1="585.13" x2="66.22" y2="449.65"/><polyline class="cls-4" points="66.22 447.63 66.22 445.63 68.22 445.63"/><line class="cls-9" x1="72.35" y1="445.63" x2="128.11" y2="445.63"/><polyline class="cls-4" points="130.17 445.63 132.17 445.63 132.17 447.63"/><line class="cls-10" x1="132.17" y1="451.61" x2="132.17" y2="521.25"/><polyline class="cls-4" points="132.17 523.24 132.17 525.24 134.17 525.24"/><line class="cls-11" x1="138.11" y1="525.24" x2="206.95" y2="525.24"/><polyline class="cls-4" points="208.91 367.76 210.91 367.76 210.91 369.76"/><line class="cls-12" x1="210.91" y1="373.78" x2="210.91" y2="508.43"/><polyline class="cls-4" points="210.91 510.44 210.91 512.44 208.91 512.44"/><line class="cls-9" x1="204.78" y1="512.44" x2="149.03" y2="512.44"/><polyline class="cls-4" points="146.96 512.44 144.96 512.44 144.96 510.44"/><line class="cls-12" x1="144.96" y1="506.42" x2="144.96" y2="371.77"/><polyline class="cls-4" points="144.96 369.76 144.96 367.76 146.96 367.76"/><line class="cls-9" x1="151.09" y1="367.76" x2="206.85" y2="367.76"/><polyline class="cls-13" points="256.68 636.95 414.15 483.01 414.15 321.99"/><path class="cls-1" d="M571.63,322l55.43-55a13.61,13.61,0,0,1,23.19,9.65V400.73"/><path class="cls-1" d="M571.61,164.67l59.38,59a66.43,66.43,0,0,0,46.34,19.28l51.78.34"/><line class="cls-1" x1="337.43" y1="87.38" x2="493.1" y2="243.04"/><path class="cls-1" d="M256.68,305.51V264.34a20.75,20.75,0,0,1,20.76-20.76h58"/><rect class="cls-14" x="138.57" y="361.36" width="23.01" height="17.58"/><path class="cls-15" d="M142.66,376.76v-2h7.44v2Zm2.47-1.15v-8.27l1.18.11-3.49,2.07v-2.2l3.35-1.95h1.45v10.24Z"/><path class="cls-15" d="M152.25,376.76v-2h7.44v2Zm2.46-1.15v-8.27l1.18.11-3.48,2.07v-2.2l3.34-1.95h1.46v10.24Z"/><rect class="cls-14" x="61.83" y="440.1" width="23.01" height="17.58"/><path class="cls-15" d="M65.32,455.5v-1.84l3.79-4a6.42,6.42,0,0,0,.89-1.22,2.53,2.53,0,0,0,.29-1.13,1.24,1.24,0,0,0-.4-1,1.77,1.77,0,0,0-1.15-.33,4.42,4.42,0,0,0-1.48.27,6.78,6.78,0,0,0-1.53.83l-.8-1.79a5,5,0,0,1,1.76-.94,7.09,7.09,0,0,1,2.18-.34,5,5,0,0,1,2,.38,3.08,3.08,0,0,1,1.35,1.1,3,3,0,0,1,.47,1.67,4.17,4.17,0,0,1-.41,1.84A8,8,0,0,1,71,450.81l-3.26,3.43-.32-.74h5.76v2Z"/><path class="cls-15" d="M78.67,455.65a3.69,3.69,0,0,1-3.16-1.5,7.33,7.33,0,0,1-1.09-4.36,7.16,7.16,0,0,1,1.09-4.3,4.1,4.1,0,0,1,6.32,0,7.09,7.09,0,0,1,1.1,4.3,7.24,7.24,0,0,1-1.1,4.35A3.65,3.65,0,0,1,78.67,455.65Zm0-1.92a1.44,1.44,0,0,0,1.38-.93,7.62,7.62,0,0,0,.43-3,7.47,7.47,0,0,0-.43-3,1.48,1.48,0,0,0-2.75,0,7.47,7.47,0,0,0-.43,3,7.62,7.62,0,0,0,.43,3A1.44,1.44,0,0,0,78.67,453.73Z"/><rect class="cls-14" x="217.31" y="361.36" width="14.5" height="17.58"/><path class="cls-15" d="M224.17,365.23a4.16,4.16,0,0,1,3.42,1.47,6.5,6.5,0,0,1,1.2,4.21,8.15,8.15,0,0,1-.57,3.21,4.65,4.65,0,0,1-1.65,2.07,4.48,4.48,0,0,1-2.56.72,6.47,6.47,0,0,1-2-.33,4.89,4.89,0,0,1-1.69-.95l.81-1.79a6.29,6.29,0,0,0,1.51.84,3.81,3.81,0,0,0,1.31.26,2,2,0,0,0,1.81-1,5.75,5.75,0,0,0,.62-3v-.58l.26.38a2.45,2.45,0,0,1-.58,1.06,2.91,2.91,0,0,1-1,.7,3.35,3.35,0,0,1-1.28.24,3.31,3.31,0,0,1-1.78-.47,3.35,3.35,0,0,1-1.23-1.3,4.08,4.08,0,0,1-.44-1.91,3.87,3.87,0,0,1,.5-2,3.7,3.7,0,0,1,1.38-1.37A4.06,4.06,0,0,1,224.17,365.23Zm.14,1.95a1.58,1.58,0,0,0-1.23.5,1.86,1.86,0,0,0-.45,1.31,1.91,1.91,0,0,0,.45,1.33,1.58,1.58,0,0,0,1.23.49,1.75,1.75,0,0,0,.89-.22,1.51,1.51,0,0,0,.61-.64,2.12,2.12,0,0,0,.22-1,2,2,0,0,0-.22-.95,1.67,1.67,0,0,0-.61-.63A1.76,1.76,0,0,0,224.31,367.18Z"/></g><g id="puzzle"><rect class="cls-16" x="59.83" y="46.4" width="708.65" height="708.65" transform="translate(814.88 -13.43) rotate(90)"/><line class="cls-16" x1="768.48" y1="282.62" x2="59.83" y2="282.62"/><line class="cls-16" x1="768.48" y1="518.84" x2="59.83" y2="518.84"/><line class="cls-16" x1="532.26" y1="755.05" x2="532.26" y2="46.4"/><line class="cls-16" x1="296.05" y1="755.05" x2="296.05" y2="46.4"/><rect class="cls-17" x="532.26" y="518.84" width="236.22" height="236.22" transform="translate(1287.32 -13.43) rotate(90)"/><line class="cls-17" x1="768.48" y1="597.58" x2="532.26" y2="597.58"/><line class="cls-17" x1="768.48" y1="676.32" x2="532.26" y2="676.32"/><line class="cls-17" x1="689.74" y1="755.05" x2="689.74" y2="518.84"/><line class="cls-17" x1="611" y1="755.05" x2="611" y2="518.84"/><rect class="cls-17" x="532.26" y="282.62" width="236.22" height="236.22" transform="translate(1051.1 -249.65) rotate(90)"/><line class="cls-17" x1="768.48" y1="361.36" x2="532.26" y2="361.36"/><line class="cls-17" x1="768.48" y1="440.1" x2="532.26" y2="440.1"/><line class="cls-17" x1="689.74" y1="518.84" x2="689.74" y2="282.62"/><line class="cls-17" x1="611" y1="518.84" x2="611" y2="282.62"/><rect class="cls-17" x="532.26" y="46.4" width="236.22" height="236.22" transform="translate(814.88 -485.86) rotate(90)"/><line class="cls-17" x1="768.48" y1="125.14" x2="532.26" y2="125.14"/><line class="cls-17" x1="768.48" y1="203.88" x2="532.26" y2="203.88"/><line class="cls-17" x1="689.74" y1="282.62" x2="689.74" y2="46.4"/><line class="cls-17" x1="611" y1="282.62" x2="611" y2="46.4"/><rect class="cls-17" x="296.05" y="518.84" width="236.22" height="236.22" transform="translate(1051.1 222.79) rotate(90)"/><line class="cls-17" x1="532.26" y1="597.58" x2="296.05" y2="597.58"/><line class="cls-17" x1="532.26" y1="676.32" x2="296.05" y2="676.32"/><line class="cls-17" x1="453.52" y1="755.05" x2="453.52" y2="518.84"/><line class="cls-17" x1="374.79" y1="755.05" x2="374.79" y2="518.84"/><rect class="cls-17" x="296.05" y="282.62" width="236.22" height="236.22" transform="translate(814.88 -13.43) rotate(90)"/><line class="cls-17" x1="532.26" y1="361.36" x2="296.05" y2="361.36"/><line class="cls-17" x1="532.26" y1="440.1" x2="296.05" y2="440.1"/><line class="cls-17" x1="453.52" y1="518.84" x2="453.52" y2="282.62"/><line class="cls-17" x1="374.79" y1="518.84" x2="374.79" y2="282.62"/><rect class="cls-17" x="296.05" y="46.4" width="236.22" height="236.22" transform="translate(578.66 -249.65) rotate(90)"/><line class="cls-17" x1="532.26" y1="125.14" x2="296.05" y2="125.14"/><line class="cls-17" x1="532.26" y1="203.88" x2="296.05" y2="203.88"/><line class="cls-17" x1="453.52" y1="282.62" x2="453.52" y2="46.4"/><line class="cls-17" x1="374.79" y1="282.62" x2="374.79" y2="46.4"/><rect class="cls-17" x="59.83" y="518.84" width="236.22" height="236.22" transform="translate(814.88 459.01) rotate(90)"/><line class="cls-17" x1="296.05" y1="597.58" x2="59.83" y2="597.58"/><line class="cls-17" x1="296.05" y1="676.32" x2="59.83" y2="676.32"/><line class="cls-17" x1="217.31" y1="755.05" x2="217.31" y2="518.84"/><line class="cls-17" x1="138.57" y1="755.05" x2="138.57" y2="518.84"/><rect class="cls-17" x="59.83" y="282.62" width="236.22" height="236.22" transform="translate(578.66 222.79) rotate(90)"/><line class="cls-17" x1="296.05" y1="361.36" x2="59.83" y2="361.36"/><line class="cls-17" x1="296.05" y1="440.1" x2="59.83" y2="440.1"/><line class="cls-17" x1="217.31" y1="518.84" x2="217.31" y2="282.62"/><line class="cls-17" x1="138.57" y1="518.84" x2="138.57" y2="282.62"/><rect class="cls-17" x="59.83" y="46.4" width="236.22" height="236.22" transform="translate(342.45 -13.43) rotate(90)"/><line class="cls-17" x1="296.05" y1="125.14" x2="59.83" y2="125.14"/><line class="cls-17" x1="296.05" y1="203.88" x2="59.83" y2="203.88"/><line class="cls-17" x1="217.31" y1="282.62" x2="217.31" y2="46.4"/><line class="cls-17" x1="138.57" y1="282.62" x2="138.57" y2="46.4"/><rect class="cls-17" x="59.83" y="361.36" width="78.74" height="78.74"/><circle class="cls-18" cx="256.68" cy="479.47" r="29.13"/><circle class="cls-18" cx="256.68" cy="558.21" r="29.13"/><circle class="cls-18" cx="414.15" cy="715.68" r="29.13"/><path class="cls-18" d="M256.68,508.6V548a10.2,10.2,0,0,1-10.19,10.19H182.27"/><polygon class="cls-19" points="195.53 541.85 198.26 544.78 183.81 558.2 198.26 571.63 195.53 574.56 177.94 558.2 195.53 541.85"/><path class="cls-18" d="M492.89,351.12v41.17a20.4,20.4,0,0,1-6,14.41l-61.06,61.05"/><polygon class="cls-19" points="423.67 446.81 427.67 446.96 426.95 466.67 446.66 465.95 446.8 469.95 422.8 470.82 423.67 446.81"/><path class="cls-18" d="M335.42,272.71v31.16a7.64,7.64,0,0,0,13,5.4l62.63-62.63"/><polygon class="cls-19" points="413.28 267.58 409.28 267.44 410 247.73 390.29 248.45 390.15 244.45 414.16 243.58 413.28 267.58"/><line class="cls-18" x1="285.81" y1="558.21" x2="331.08" y2="558.21"/><polygon class="cls-19" points="317.82 574.57 315.1 571.64 329.54 558.21 315.1 544.78 317.82 541.85 335.42 558.21 317.82 574.57"/><line class="cls-18" x1="463.76" y1="479.47" x2="430.72" y2="479.47"/><polygon class="cls-19" points="443.97 463.11 446.7 466.04 432.25 479.46 446.7 492.89 443.97 495.82 426.38 479.46 443.97 463.11"/><path class="cls-18" d="M600.77,243.25H629a10.19,10.19,0,0,1,10.19,10.19v52"/><polygon class="cls-19" points="622.81 292.17 625.74 289.44 639.16 303.89 652.59 289.44 655.52 292.17 639.16 309.76 622.81 292.17"/><path class="cls-18" d="M700,243.25H671.77a10.19,10.19,0,0,0-10.19,10.19v52"/><polygon class="cls-19" points="645.22 292.17 648.15 289.44 661.58 303.89 675.01 289.44 677.94 292.17 661.58 309.76 645.22 292.17"/><circle class="cls-18" cx="492.89" cy="479.47" r="29.13"/><line class="cls-18" x1="522.03" y1="479.47" x2="724.77" y2="479.47"/><polygon class="cls-19" points="711.52 495.83 708.79 492.9 723.24 479.47 708.79 466.04 711.52 463.11 729.11 479.47 711.52 495.83"/><circle class="cls-18" cx="492.89" cy="321.99" r="29.13"/><circle class="cls-18" cx="729.11" cy="243.25" r="29.13"/><circle class="cls-18" cx="571.63" cy="243.25" r="29.13"/><line class="cls-18" x1="522.03" y1="321.99" x2="724.77" y2="321.99"/><polygon class="cls-19" points="711.52 338.35 708.79 335.42 723.24 321.99 708.79 308.56 711.52 305.63 729.11 321.99 711.52 338.35"/><circle class="cls-18" cx="492.89" cy="85.77" r="29.13"/><line class="cls-18" x1="522.03" y1="85.77" x2="724.77" y2="85.77"/><polygon class="cls-19" points="711.52 102.13 708.79 99.2 723.24 85.77 708.79 72.34 711.52 69.41 729.11 85.77 711.52 102.13"/><line class="cls-18" x1="277.11" y1="106.2" x2="332.35" y2="161.44"/><polygon class="cls-19" points="311.41 163.64 311.55 159.64 331.26 160.36 330.54 140.65 334.54 140.5 335.41 164.51 311.41 163.64"/><circle class="cls-18" cx="256.68" cy="85.44" r="29.13"/><circle class="cls-18" cx="256.68" cy="164.51" r="29.13"/><line class="cls-18" x1="236.24" y1="185.27" x2="181" y2="240.51"/><polygon class="cls-19" points="178.81 219.57 182.81 219.71 182.09 239.42 201.8 238.7 201.94 242.7 177.93 243.57 178.81 219.57"/><circle class="cls-18" cx="335.42" cy="243.58" r="29.13"/><circle class="cls-18" cx="650.37" cy="558.21" r="29.13"/><path class="cls-18" d="M679.51,558.21h39.41a10.19,10.19,0,0,1,10.19,10.18v143"/><polygon class="cls-19" points="712.75 698.09 715.68 695.36 729.11 709.81 742.54 695.36 745.47 698.09 729.11 715.68 712.75 698.09"/><circle class="cls-18" cx="99.2" cy="400.73" r="29.13"/><circle class="cls-18" cx="99.53" cy="321.99" r="29.13"/><circle class="cls-18" cx="178.26" cy="321.99" r="29.13"/><path class="cls-18" d="M99.2,371.59V344.1a10.19,10.19,0,0,1,10.19-10.19h143"/><polygon class="cls-19" points="239.08 350.27 236.35 347.34 250.8 333.92 236.35 320.49 239.08 317.56 256.68 333.92 239.08 350.27"/><line class="cls-18" x1="443.29" y1="715.68" x2="567.3" y2="715.68"/><polygon class="cls-19" points="554.04 732.04 551.31 729.12 565.76 715.69 551.31 702.26 554.04 699.33 571.63 715.69 554.04 732.04"/><circle class="cls-18" cx="492.89" cy="636.95" r="29.13"/><line class="cls-18" x1="463.76" y1="636.95" x2="339.75" y2="636.95"/><polygon class="cls-19" points="353.01 620.59 355.74 623.52 341.29 636.94 355.74 650.37 353.01 653.3 335.42 636.94 353.01 620.59"/><line class="cls-18" x1="128.66" y1="321.99" x2="252.34" y2="321.99"/><polygon class="cls-19" points="239.08 338.35 236.35 335.42 250.8 321.99 236.35 308.56 239.08 305.63 256.68 321.99 239.08 338.35"/><line class="cls-18" x1="204.84" y1="310.07" x2="252.34" y2="310.07"/><polygon class="cls-19" points="239.08 326.43 236.35 323.5 250.8 310.07 236.35 296.64 239.08 293.71 256.68 310.07 239.08 326.43"/><path d="M21.58,415.59a14.71,14.71,0,0,1-4.73-.79A10.91,10.91,0,0,1,13,412.64l1.55-3.39a14.1,14.1,0,0,0,3.51,2,9.89,9.89,0,0,0,3.61.69,5.18,5.18,0,0,0,3.68-1.21,4.47,4.47,0,0,0,1.29-3.44,5,5,0,0,0-.59-2.48,4.1,4.1,0,0,0-1.68-1.62,5.39,5.39,0,0,0-2.55-.58,7.23,7.23,0,0,0-2.81.56,7.43,7.43,0,0,0-2.41,1.64H13.81V389.71h16v3.63H18.34v8.46l-1.4-.21a7,7,0,0,1,2.59-2,8.16,8.16,0,0,1,3.42-.69A8.3,8.3,0,0,1,27.18,400,7.35,7.35,0,0,1,30,402.85a8.56,8.56,0,0,1,1,4.28,8.42,8.42,0,0,1-1.17,4.45,7.81,7.81,0,0,1-3.28,3A11.24,11.24,0,0,1,21.58,415.59Z"/><path d="M82.77,30.82V27.07H98.61v3.75Zm5.58-2.13V8.6l2.34.51-7.52,4.53V9.5l7.12-4.32H93V28.69Z"/><path d="M111.1,31.07a13.54,13.54,0,0,1-5-.85,7.47,7.47,0,0,1-3.37-2.46,6.31,6.31,0,0,1-1.2-3.86,5.89,5.89,0,0,1,1.76-4.41,8.23,8.23,0,0,1,4.83-2.1l-.15.54a7.93,7.93,0,0,1-4.28-2.18,5.5,5.5,0,0,1-1.59-4,5.92,5.92,0,0,1,1.17-3.67,7.49,7.49,0,0,1,3.21-2.38,13.45,13.45,0,0,1,9.25,0,7.52,7.52,0,0,1,3.2,2.38,5.92,5.92,0,0,1,1.17,3.67,5.58,5.58,0,0,1-1.58,4,7.44,7.44,0,0,1-4.25,2.13l-.14-.54a8.25,8.25,0,0,1,4.8,2.16,5.84,5.84,0,0,1,1.75,4.35,6.25,6.25,0,0,1-1.21,3.86,7.39,7.39,0,0,1-3.36,2.46A13.55,13.55,0,0,1,111.1,31.07Zm0-3.6a6.53,6.53,0,0,0,3.82-1,3.34,3.34,0,0,0,1.4-2.9,3.4,3.4,0,0,0-1.45-2.9,8,8,0,0,0-3.77-1.35,7.93,7.93,0,0,0-3.76,1.35,3.41,3.41,0,0,0-1.46,2.9,3.32,3.32,0,0,0,1.41,2.9A6.5,6.5,0,0,0,111.1,27.47Zm0-11.09A7.12,7.12,0,0,0,114.38,15a3.36,3.36,0,0,0,1.29-2.79,3.31,3.31,0,0,0-1.24-2.79,6.31,6.31,0,0,0-6.66,0,3.33,3.33,0,0,0-1.24,2.79,3.34,3.34,0,0,0,1.3,2.79A7,7,0,0,0,111.1,16.38Z"/><path d="M179.06,31.1a8,8,0,0,1-6.95-3.34Q169.7,24.4,169.7,18t2.39-9.76a8.94,8.94,0,0,1,13.94,0q2.39,3.36,2.39,9.72T186,27.76A8,8,0,0,1,179.06,31.1Zm0-3.6a3.82,3.82,0,0,0,3.64-2.28c.76-1.53,1.15-3.94,1.15-7.26s-.39-5.67-1.15-7.16a4.08,4.08,0,0,0-7.28,0c-.76,1.5-1.15,3.88-1.15,7.14s.39,5.73,1.15,7.26A3.83,3.83,0,0,0,179.06,27.5Z"/><path d="M12.53,100.71V80.8h1.08L4.75,93.51l0-1.48h16v3.64H1.4V92.25l12-17.17H17.1v25.63Z"/><path d="M24.16,100.71V97.29l8.67-9.4a15.13,15.13,0,0,0,2.23-3.09A6.06,6.06,0,0,0,35.78,82a3.39,3.39,0,0,0-1-2.66,4.27,4.27,0,0,0-2.92-.9,9.54,9.54,0,0,0-3.47.67,13.72,13.72,0,0,0-3.48,2l-1.58-3.38a11.25,11.25,0,0,1,3.92-2.16,15.13,15.13,0,0,1,4.83-.79,10.68,10.68,0,0,1,4.39.83A6.38,6.38,0,0,1,39.35,78a6.78,6.78,0,0,1,1,3.73,9.47,9.47,0,0,1-.94,4.16,18.89,18.89,0,0,1-3.17,4.33l-7.81,8.28L27.9,97H41.33v3.75Z"/><path d="M178.47,661.15a24.59,24.59,0,0,1-8.1-1.35,18,18,0,0,1-6.48-3.75l2.22-4.62a22.1,22.1,0,0,0,5.88,3.51,17.19,17.19,0,0,0,6.3,1.17q4.38,0,6.57-1.83a6.82,6.82,0,0,0,2.19-5.55,6.37,6.37,0,0,0-2.28-5.37q-2.28-1.77-6.9-1.77h-5.22v-5h4.26q4.44,0,6.75-1.86a6.53,6.53,0,0,0,2.31-5.4,6.38,6.38,0,0,0-1.92-5,7.85,7.85,0,0,0-5.46-1.74,16.33,16.33,0,0,0-6,1.17,22.27,22.27,0,0,0-5.85,3.51l-2.22-4.62a18.93,18.93,0,0,1,6.45-3.72,23.5,23.5,0,0,1,7.95-1.38,16.82,16.82,0,0,1,7,1.35,10.21,10.21,0,0,1,4.59,3.87,11.79,11.79,0,0,1-.45,12.54,10.24,10.24,0,0,1-5.64,3.78l-.12-.6a11.14,11.14,0,0,1,6.54,3.66,11.86,11.86,0,0,1-1.65,15.81Q185.19,661.15,178.47,661.15Z"/><path d="M482.77,31.07a16,16,0,0,1-5-.78,10.67,10.67,0,0,1-3.94-2.17l1.58-3.39a12.85,12.85,0,0,0,3.48,2,10.57,10.57,0,0,0,3.69.67,5.79,5.79,0,0,0,3.67-1,3.57,3.57,0,0,0,1.19-3,3.4,3.4,0,0,0-1.23-2.88,6.22,6.22,0,0,0-3.78-.93h-3.38V16h2.77a6.19,6.19,0,0,0,3.73-.93,3.29,3.29,0,0,0,1.24-2.81,3.44,3.44,0,0,0-1.08-2.74,4.44,4.44,0,0,0-3-.93,10.06,10.06,0,0,0-3.53.66,12.82,12.82,0,0,0-3.42,2L474.2,7.85a11.25,11.25,0,0,1,3.92-2.16A15.27,15.27,0,0,1,483,4.9a10.73,10.73,0,0,1,4.38.82,6.57,6.57,0,0,1,2.86,2.36,6.39,6.39,0,0,1,1,3.58A6.4,6.4,0,0,1,490,15.57a6.23,6.23,0,0,1-3.35,2.25l0-.36a6.77,6.77,0,0,1,3.87,2.21,6.4,6.4,0,0,1,1.35,4.2,6.33,6.33,0,0,1-2.47,5.27A10.47,10.47,0,0,1,482.77,31.07Z"/><path d="M505.63,31.1a9.07,9.07,0,0,1-7.47-3.25q-2.66-3.27-2.65-9.38a19.54,19.54,0,0,1,1.24-7.33,10,10,0,0,1,3.6-4.64A9.73,9.73,0,0,1,506,4.9a13.63,13.63,0,0,1,4.48.75,11.19,11.19,0,0,1,3.8,2.2l-1.58,3.38a13.36,13.36,0,0,0-3.4-2,8.72,8.72,0,0,0-3.12-.63,5,5,0,0,0-4.48,2.54c-1,1.69-1.57,4.12-1.57,7.29v1.94l-.5-.9a5.9,5.9,0,0,1,1.3-2.68A6.61,6.61,0,0,1,503.27,15a7.62,7.62,0,0,1,3.11-.63,7.7,7.7,0,0,1,4.07,1.07,7.46,7.46,0,0,1,2.77,2.91,8.72,8.72,0,0,1,1,4.27A8.7,8.7,0,0,1,513.12,27a8,8,0,0,1-3,3A9,9,0,0,1,505.63,31.1Zm-.22-3.67a4.17,4.17,0,0,0,3.19-1.28,4.75,4.75,0,0,0,1.2-3.4,4.77,4.77,0,0,0-1.2-3.4,4.24,4.24,0,0,0-3.22-1.28,4.58,4.58,0,0,0-2.36.6,4,4,0,0,0-1.6,1.65,5.42,5.42,0,0,0,0,4.88,4.14,4.14,0,0,0,1.6,1.64A4.73,4.73,0,0,0,505.41,27.43Z"/><path d="M4,730.62v-3.74H19.87v3.74Zm5.58-2.12V708.41l2.34.51-7.52,4.53v-4.14L11.56,705h2.7V728.5Z"/><path d="M32.36,730.88a14.73,14.73,0,0,1-4.73-.8,10.61,10.61,0,0,1-3.87-2.16l1.55-3.38a14.76,14.76,0,0,0,3.51,2,9.93,9.93,0,0,0,3.62.68,5.22,5.22,0,0,0,3.67-1.2,4.49,4.49,0,0,0,1.29-3.44,4.87,4.87,0,0,0-.59-2.48,4.07,4.07,0,0,0-1.67-1.62,5.32,5.32,0,0,0-2.56-.58,7.26,7.26,0,0,0-2.81.56,7.43,7.43,0,0,0-2.41,1.64H24.59V705H40.64v3.64H29.12v8.46l-1.4-.22a7.27,7.27,0,0,1,2.59-2,9,9,0,0,1,7.65.36,7.58,7.58,0,0,1,2.85,2.88,8.7,8.7,0,0,1,1,4.29,8.36,8.36,0,0,1-1.17,4.44,7.72,7.72,0,0,1-3.27,3A11.18,11.18,0,0,1,32.36,730.88Z"/><path d="M416.84,193.08V147H419l-21.59,31.09.08-3.24h35.75v6.56H391.61v-6.09l26.74-38.52h6.56v56.32Z"/><path d="M341.56,427.87V381.75h2.14l-21.6,31.09.08-3.24h35.76v6.56H316.33v-6.09l26.74-38.52h6.56v56.32Z"/><path class="cls-20" d="M254.9,370.92q10.44,0,16.09,7.12t5.66,20.4A44.4,44.4,0,0,1,274,414.66a22.26,22.26,0,0,1-7.63,10.28,20.12,20.12,0,0,1-12,3.56,27.52,27.52,0,0,1-9.61-1.74,25,25,0,0,1-8.26-5l3-6.09a29.73,29.73,0,0,0,7.56,4.7,18.75,18.75,0,0,0,7.15,1.47,11.77,11.77,0,0,0,10.6-6.05q3.72-6.06,3.72-17.21v-5.69l1.11,2a14.36,14.36,0,0,1-2.93,6.53,14.92,14.92,0,0,1-5.54,4.23,17.45,17.45,0,0,1-7.27,1.5,17.86,17.86,0,0,1-9.06-2.25,15.9,15.9,0,0,1-6.13-6.33,19.25,19.25,0,0,1-2.21-9.37,18.71,18.71,0,0,1,2.37-9.45,17.15,17.15,0,0,1,6.56-6.53A19,19,0,0,1,254.9,370.92Zm.47,6.64a10.51,10.51,0,0,0-8,3.17,13.11,13.11,0,0,0,0,16.69,10.59,10.59,0,0,0,8.07,3.16,11.81,11.81,0,0,0,5.85-1.46,10.23,10.23,0,0,0,4-4.08,13.34,13.34,0,0,0,0-12,10.24,10.24,0,0,0-4-4A11.88,11.88,0,0,0,255.37,377.56Z"/><path class="cls-20" d="M248.17,489.92a10.69,10.69,0,0,1-3.51-.59,7.82,7.82,0,0,1-2.8-1.62l1-2a9.55,9.55,0,0,0,2.54,1.52,7.43,7.43,0,0,0,2.73.51,4.33,4.33,0,0,0,2.84-.8,2.94,2.94,0,0,0,.95-2.4,2.74,2.74,0,0,0-1-2.32,4.83,4.83,0,0,0-3-.77h-2.26v-2.18h1.84a4.54,4.54,0,0,0,2.92-.8,2.83,2.83,0,0,0,1-2.34,2.77,2.77,0,0,0-.83-2.15,3.39,3.39,0,0,0-2.36-.75,7.24,7.24,0,0,0-2.61.5,9.78,9.78,0,0,0-2.53,1.52l-1-2a8.22,8.22,0,0,1,2.79-1.61,10.37,10.37,0,0,1,3.44-.59,7.28,7.28,0,0,1,3,.58,4.42,4.42,0,0,1,2,1.67,5.11,5.11,0,0,1-.19,5.43,4.38,4.38,0,0,1-2.44,1.63l-.05-.26a4.81,4.81,0,0,1,2.83,1.59,4.59,4.59,0,0,1,1,3,4.64,4.64,0,0,1-1.7,3.8A7.09,7.09,0,0,1,248.17,489.92Z"/><path class="cls-20" d="M264.57,489.94a6.38,6.38,0,0,1-5.27-2.33c-1.24-1.56-1.87-3.79-1.87-6.7a14.49,14.49,0,0,1,.87-5.32,7.29,7.29,0,0,1,2.52-3.38,6.68,6.68,0,0,1,3.93-1.16,9,9,0,0,1,3.17.57,8.23,8.23,0,0,1,2.7,1.63l-1,2a9.29,9.29,0,0,0-2.47-1.54,6.26,6.26,0,0,0-2.36-.48,3.9,3.9,0,0,0-3.49,2,10.79,10.79,0,0,0-1.23,5.65v1.87l-.34-.68a4.71,4.71,0,0,1,1-2.14,4.93,4.93,0,0,1,1.8-1.39,5.63,5.63,0,0,1,2.38-.49,5.83,5.83,0,0,1,3,.74,5.1,5.1,0,0,1,2,2.07,6.54,6.54,0,0,1,.71,3.08,6.13,6.13,0,0,1-.78,3.1,5.64,5.64,0,0,1-2.14,2.14A6.19,6.19,0,0,1,264.57,489.94Zm-.13-2.18a3.44,3.44,0,0,0,2.61-1,3.78,3.78,0,0,0,1-2.75,3.74,3.74,0,0,0-1-2.72,3.46,3.46,0,0,0-2.63-1,3.85,3.85,0,0,0-1.94.48,3.31,3.31,0,0,0-1.31,1.34,4,4,0,0,0-.47,1.94,4.07,4.07,0,0,0,.47,2,3.39,3.39,0,0,0,1.31,1.32A3.9,3.9,0,0,0,264.44,487.76Z"/><path class="cls-20" d="M326.18,489.92a10.69,10.69,0,0,1-3.51-.59,7.82,7.82,0,0,1-2.8-1.62l1-2a9.55,9.55,0,0,0,2.54,1.52,7.43,7.43,0,0,0,2.73.51,4.33,4.33,0,0,0,2.84-.8,2.94,2.94,0,0,0,.95-2.4,2.74,2.74,0,0,0-1-2.32,4.81,4.81,0,0,0-3-.77h-2.26v-2.18h1.84a4.54,4.54,0,0,0,2.92-.8,2.83,2.83,0,0,0,1-2.34,2.73,2.73,0,0,0-.83-2.15,3.39,3.39,0,0,0-2.36-.75,7.24,7.24,0,0,0-2.61.5,9.78,9.78,0,0,0-2.53,1.52l-1-2a8.22,8.22,0,0,1,2.79-1.61,10.37,10.37,0,0,1,3.44-.59,7.28,7.28,0,0,1,3,.58,4.45,4.45,0,0,1,2,1.67,4.76,4.76,0,0,1,.68,2.55,4.71,4.71,0,0,1-.88,2.88,4.38,4.38,0,0,1-2.44,1.63l-.05-.26a4.81,4.81,0,0,1,2.83,1.59,4.59,4.59,0,0,1,1,3,4.67,4.67,0,0,1-1.7,3.8A7.12,7.12,0,0,1,326.18,489.92Z"/><path class="cls-20" d="M342.58,489.94a6.38,6.38,0,0,1-5.27-2.33c-1.24-1.56-1.87-3.79-1.87-6.7a14.49,14.49,0,0,1,.87-5.32,7.29,7.29,0,0,1,2.52-3.38,6.68,6.68,0,0,1,3.93-1.16,9,9,0,0,1,3.17.57,8.23,8.23,0,0,1,2.7,1.63l-1,2a9.29,9.29,0,0,0-2.47-1.54,6.26,6.26,0,0,0-2.36-.48,3.9,3.9,0,0,0-3.49,2,10.79,10.79,0,0,0-1.23,5.65v1.87l-.34-.68a4.82,4.82,0,0,1,1-2.14,4.93,4.93,0,0,1,1.8-1.39,5.63,5.63,0,0,1,2.38-.49,5.83,5.83,0,0,1,3,.74,5.1,5.1,0,0,1,2,2.07,6.54,6.54,0,0,1,.71,3.08,6.13,6.13,0,0,1-.78,3.1,5.64,5.64,0,0,1-2.14,2.14A6.19,6.19,0,0,1,342.58,489.94Zm-.13-2.18a3.43,3.43,0,0,0,2.61-1,3.78,3.78,0,0,0,1-2.75,3.74,3.74,0,0,0-1-2.72,3.46,3.46,0,0,0-2.63-1,3.85,3.85,0,0,0-1.94.48,3.31,3.31,0,0,0-1.31,1.34,4,4,0,0,0-.47,1.94,4.07,4.07,0,0,0,.47,2,3.39,3.39,0,0,0,1.31,1.32A3.9,3.9,0,0,0,342.45,487.76Z"/><path class="cls-20" d="M179.56,430.41a30,30,0,0,1-10.28-1.82,24.06,24.06,0,0,1-8.39-4.9l2.85-6.09a32.76,32.76,0,0,0,7.83,4.59,21.63,21.63,0,0,0,8.07,1.58q5.61,0,8.74-3c2.08-2,3.12-4.83,3.12-8.42a12.27,12.27,0,0,0-1.42-6.05,10.06,10.06,0,0,0-4-4,12.38,12.38,0,0,0-6.05-1.42,15.34,15.34,0,0,0-12.26,5.77h-5.22V373.54H197v6.57H170.62V401l-2.53-.4a16,16,0,0,1,5.81-4.74,17.88,17.88,0,0,1,7.87-1.66,18.67,18.67,0,0,1,9.3,2.25,15.57,15.57,0,0,1,6.17,6.29,19.54,19.54,0,0,1,2.17,9.41,18.42,18.42,0,0,1-2.45,9.53,16.8,16.8,0,0,1-6.88,6.45A22.61,22.61,0,0,1,179.56,430.41Z"/><path class="cls-20" d="M179.93,506q-10.35,0-16.05-7.11t-5.7-20.41a44.23,44.23,0,0,1,2.65-16.22A22.12,22.12,0,0,1,168.5,452a20.23,20.23,0,0,1,12-3.56,27.41,27.41,0,0,1,9.65,1.74,25.09,25.09,0,0,1,8.22,5l-2.92,6.09a28.42,28.42,0,0,0-7.52-4.7,19.07,19.07,0,0,0-7.2-1.47,11.84,11.84,0,0,0-10.63,6.06q-3.76,6-3.76,17.2V484l-1-2.05a14.41,14.41,0,0,1,2.93-6.53,15,15,0,0,1,5.49-4.23,17.21,17.21,0,0,1,7.24-1.5,18.09,18.09,0,0,1,9.1,2.25,15.64,15.64,0,0,1,6.13,6.33,19.6,19.6,0,0,1,2.17,9.37,18.74,18.74,0,0,1-2.37,9.46,17.25,17.25,0,0,1-6.53,6.52A18.85,18.85,0,0,1,179.93,506Zm-.39-6.64a10.53,10.53,0,0,0,8-3.16,11.59,11.59,0,0,0,3-8.39,11.46,11.46,0,0,0-3-8.3,10.64,10.64,0,0,0-8-3.17,11.62,11.62,0,0,0-5.89,1.47,10.17,10.17,0,0,0-4,4.07,13.34,13.34,0,0,0,0,12,10.29,10.29,0,0,0,4,4A11.89,11.89,0,0,0,179.54,499.36Z"/><path d="M397.78,427.87v-6.09l19.38-21.28a35.35,35.35,0,0,0,5.42-7.47,14.76,14.76,0,0,0,1.7-6.69,8.33,8.33,0,0,0-2.49-6.52q-2.49-2.26-7.08-2.26a21.48,21.48,0,0,0-7.87,1.54,30.8,30.8,0,0,0-7.79,4.63l-2.93-6.09a24.87,24.87,0,0,1,8.5-4.9A30.64,30.64,0,0,1,415,370.92a21.56,21.56,0,0,1,9.21,1.82,13.87,13.87,0,0,1,6.05,5.18,14.61,14.61,0,0,1,2.14,8,20.74,20.74,0,0,1-2.14,9.21,41.75,41.75,0,0,1-7.12,9.77l-18.11,19.54-.79-3.32h30.45v6.72Z"/><path d="M332,193.63a32.35,32.35,0,0,1-10.68-1.78,23.63,23.63,0,0,1-8.54-4.94l2.93-6.09a29,29,0,0,0,7.75,4.62,22.57,22.57,0,0,0,8.3,1.55q5.78,0,8.67-2.42t2.88-7.31q0-4.75-3-7.08c-2-1.56-5-2.33-9.1-2.33h-6.88V161.2h5.61c3.91,0,6.87-.82,8.9-2.45a8.62,8.62,0,0,0,3.05-7.12,8.44,8.44,0,0,0-2.53-6.57c-1.69-1.52-4.09-2.29-7.2-2.29a21.49,21.49,0,0,0-7.95,1.54,29.3,29.3,0,0,0-7.71,4.63l-2.93-6.09a24.87,24.87,0,0,1,8.5-4.9,30.87,30.87,0,0,1,10.48-1.82,22.11,22.11,0,0,1,9.18,1.78,13.38,13.38,0,0,1,6,5.1,14.19,14.19,0,0,1,2.1,7.75,14.38,14.38,0,0,1-2.69,8.78,13.46,13.46,0,0,1-7.44,5l-.16-.79a14.68,14.68,0,0,1,8.63,4.83,14,14,0,0,1,3,9.25q0,7.37-5.18,11.59T332,193.63Z"/><circle class="cls-21" cx="453.52" cy="400.73" r="10"/><circle class="cls-14" cx="492.89" cy="361.36" r="9"/><path class="cls-21" d="M492.89,353.36a8,8,0,1,1-8,8,8,8,0,0,1,8-8m0-2a10,10,0,1,0,10,10,10,10,0,0,0-10-10Z"/><line class="cls-22" x1="178.26" y1="164.51" x2="99.53" y2="243.25"/><circle class="cls-23" cx="178.26" cy="164.51" r="29.13"/><circle class="cls-23" cx="99.53" cy="243.25" r="29.13"/></g></svg>