<svg xmlns="http://www.w3.org/2000/svg" viewBox="0 0 770.98 757.55"><defs><style>.cls-1{fill:#f0edf2;}.cls-10,.cls-11,.cls-12,.cls-13,.cls-14,.cls-15,.cls-16,.cls-19,.cls-2,.cls-20,.cls-21,.cls-23,.cls-25,.cls-26,.cls-32,.cls-33,.cls-34,.cls-35,.cls-36,.cls-4,.cls-6,.cls-7,.cls-8,.cls-9{fill:none;}.cls-2,.cls-23,.cls-25,.cls-26{stroke:#949494;}.cls-10,.cls-11,.cls-12,.cls-13,.cls-14,.cls-2,.cls-20,.cls-21,.cls-23,.cls-29,.cls-30,.cls-32,.cls-4,.cls-6,.cls-7,.cls-8,.cls-9{stroke-miterlimit:10;}.cls-2,.cls-23,.cls-25,.cls-26,.cls-29{stroke-width:4px;}.cls-3{fill:#f2ebeb;}.cls-16,.cls-4{stroke:#d8d8d8;stroke-width:20px;}.cls-15,.cls-16,.cls-23,.cls-26,.cls-33,.cls-34,.cls-35,.cls-36,.cls-4{stroke-linecap:round;}.cls-5{fill:#d8d8d8;}.cls-10,.cls-11,.cls-12,.cls-13,.cls-14,.cls-6,.cls-7,.cls-8,.cls-9{stroke:#798089;stroke-width:3px;}.cls-7{stroke-dasharray:4.13 4.13;}.cls-8{stroke-dasharray:4.13 4.13;}.cls-9{stroke-dasharray:4.02 4.02;}.cls-10{stroke-dasharray:4.04 4.04;}.cls-11{stroke-dasharray:4.13 4.13;}.cls-12{stroke-dasharray:3.98 3.98;}.cls-13{stroke-dasharray:3.93 3.93;}.cls-14{stroke-dasharray:4.02 4.02;}.cls-15{stroke:#c7a189;stroke-width:10px;}.cls-15,.cls-16,.cls-19,.cls-25,.cls-26,.cls-33,.cls-34,.cls-35,.cls-36{stroke-linejoin:round;}.cls-17,.cls-29,.cls-30{fill:#fff;}.cls-18{fill:#798089;}.cls-19,.cls-29{stroke:#c18bb7;}.cls-19{stroke-width:9px;}.cls-20,.cls-21{stroke:#737373;}.cls-20,.cls-33,.cls-34,.cls-35,.cls-36{stroke-width:5px;}.cls-22{fill:#5a5f66;}.cls-24{fill:#949494;}.cls-27{fill:#4e72b0;}.cls-28{fill:#242424;}.cls-30{stroke:#474747;}.cls-30,.cls-32{stroke-width:2px;}.cls-31{fill:#474747;}.cls-32{stroke:#000;}.cls-33{stroke:#cf9fcf;}.cls-34{stroke:#8fcbcf;}.cls-34,.cls-35,.cls-36{stroke-dasharray:8 8;}.cls-35{stroke:#cfa872;}.cls-36{stroke:#cfd184;}</style></defs><g id="ui"><rect class="cls-1" x="217.31" y="597.58" width="78.74" height="78.74"/><polyline class="cls-2" points="266.3 603.69 256.68 606.28 247.05 603.69"/><polyline class="cls-2" points="247.05 670.2 256.68 667.61 266.3 670.2"/><polyline class="cls-2" points="289.93 646.57 287.34 636.95 289.93 627.32"/><rect class="cls-3" x="296.05" y="676.32" width="78.74" height="78.74"/><polyline class="cls-2" points="325.79 685.15 335.42 682.55 345.04 685.15"/><polyline class="cls-2" points="365.95 706.06 368.55 715.68 365.95 725.31"/><polyline class="cls-2" points="304.88 725.31 302.29 715.68 304.88 706.06"/><rect class="cls-3" x="374.79" y="597.58" width="78.74" height="78.74"/><polyline class="cls-2" points="423.78 667.48 414.15 670.08 404.53 667.48"/><polyline class="cls-2" points="444.69 627.32 447.29 636.95 444.69 646.57"/><polyline class="cls-2" points="383.62 646.57 381.02 636.95 383.62 627.32"/><rect class="cls-3" x="374.79" y="518.84" width="78.74" height="78.74"/><polyline class="cls-2" points="404.53 527.67 414.15 525.08 423.78 527.67"/><polyline class="cls-2" points="444.69 548.58 447.29 558.21 444.69 567.83"/><polyline class="cls-2" points="383.62 567.83 381.02 558.21 383.62 548.58"/><rect class="cls-1" x="138.57" y="597.58" width="78.74" height="78.74"/><polyline class="cls-2" points="187.56 603.69 177.94 606.28 168.31 603.69"/><polyline class="cls-2" points="144.68 627.32 147.28 636.95 144.68 646.57"/><polyline class="cls-2" points="168.31 670.2 177.94 667.61 187.56 670.2"/><path class="cls-4" d="M414.16,322V225.34a60.84,60.84,0,0,0-60.84-60.83H337.43"/><circle class="cls-5" cx="337.43" cy="164.67" r="33"/><circle class="cls-5" cx="337.43" cy="87.38" r="33"/><circle class="cls-5" cx="571.61" cy="164.67" r="33"/><circle class="cls-5" cx="571.61" cy="321.21" r="33"/><rect class="cls-5" x="309.33" y="373.59" width="54.28" height="54.28"/><polyline class="cls-6" points="289.65 431.7 289.65 433.7 287.65 433.7"/><line class="cls-7" x1="283.52" y1="433.7" x2="227.77" y2="433.7"/><polyline class="cls-6" points="225.7 433.7 223.7 433.7 223.7 431.7"/><line class="cls-7" x1="223.7" y1="427.57" x2="223.7" y2="371.82"/><polyline class="cls-6" points="223.7 369.75 223.7 367.75 225.7 367.75"/><line class="cls-7" x1="229.83" y1="367.75" x2="285.58" y2="367.75"/><polyline class="cls-6" points="287.65 367.75 289.65 367.75 289.65 369.75"/><line class="cls-7" x1="289.65" y1="373.88" x2="289.65" y2="429.64"/><rect class="cls-5" x="387.01" y="373.59" width="54.28" height="54.28" rx="27.14"/><polyline class="cls-6" points="208.91 525.24 210.91 525.24 210.91 527.24"/><line class="cls-8" x1="210.91" y1="531.37" x2="210.91" y2="587.11"/><polyline class="cls-6" points="210.91 589.18 210.91 591.18 208.91 591.18"/><line class="cls-9" x1="204.89" y1="591.18" x2="70.23" y2="591.18"/><polyline class="cls-6" points="68.22 591.18 66.22 591.18 66.22 589.18"/><line class="cls-10" x1="66.22" y1="585.13" x2="66.22" y2="449.65"/><polyline class="cls-6" points="66.22 447.63 66.22 445.63 68.22 445.63"/><line class="cls-11" x1="72.35" y1="445.63" x2="128.11" y2="445.63"/><polyline class="cls-6" points="130.17 445.63 132.17 445.63 132.17 447.63"/><line class="cls-12" x1="132.17" y1="451.61" x2="132.17" y2="521.25"/><polyline class="cls-6" points="132.17 523.24 132.17 525.24 134.17 525.24"/><line class="cls-13" x1="138.11" y1="525.24" x2="206.95" y2="525.24"/><polyline class="cls-6" points="208.91 367.76 210.91 367.76 210.91 369.76"/><line class="cls-14" x1="210.91" y1="373.78" x2="210.91" y2="508.43"/><polyline class="cls-6" points="210.91 510.44 210.91 512.44 208.91 512.44"/><line class="cls-11" x1="204.78" y1="512.44" x2="149.03" y2="512.44"/><polyline class="cls-6" points="146.96 512.44 144.96 512.44 144.96 510.44"/><line class="cls-14" x1="144.96" y1="506.42" x2="144.96" y2="371.77"/><polyline class="cls-6" points="144.96 369.76 144.96 367.76 146.96 367.76"/><line class="cls-11" x1="151.09" y1="367.76" x2="206.85" y2="367.76"/><polyline class="cls-15" points="256.68 636.95 414.15 483.01 414.15 321.99"/><path class="cls-4" d="M571.63,322l55.43-55a13.61,13.61,0,0,1,23.19,9.65V400.73"/><path class="cls-4" d="M571.61,164.67l59.38,59a66.43,66.43,0,0,0,46.34,19.28l51.78.34"/><line class="cls-4" x1="337.43" y1="87.38" x2="493.1" y2="243.04"/><polyline class="cls-16" points="256.68 305.51 256.68 243.58 335.42 243.58"/><rect class="cls-17" x="138.57" y="361.36" width="23.01" height="17.58"/><path class="cls-18" d="M142.66,376.76v-2h7.44v2Zm2.47-1.15v-8.27l1.18.11-3.49,2.07v-2.2l3.35-1.95h1.45v10.24Z"/><path class="cls-18" d="M152.25,376.76v-2h7.44v2Zm2.46-1.15v-8.27l1.18.11-3.48,2.07v-2.2l3.34-1.95h1.46v10.24Z"/><rect class="cls-17" x="61.83" y="440.1" width="23.01" height="17.58"/><path class="cls-18" d="M65.32,455.5v-1.84l3.79-4a6.42,6.42,0,0,0,.89-1.22,2.53,2.53,0,0,0,.29-1.13,1.24,1.24,0,0,0-.4-1,1.77,1.77,0,0,0-1.15-.33,4.42,4.42,0,0,0-1.48.27,6.78,6.78,0,0,0-1.53.83l-.8-1.79a5,5,0,0,1,1.76-.94,7.09,7.09,0,0,1,2.18-.34,5,5,0,0,1,2,.38,3.08,3.08,0,0,1,1.35,1.1,3,3,0,0,1,.47,1.67,4.17,4.17,0,0,1-.41,1.84A8,8,0,0,1,71,450.81l-3.26,3.43-.32-.74h5.76v2Z"/><path class="cls-18" d="M78.67,455.65a3.69,3.69,0,0,1-3.16-1.5,7.33,7.33,0,0,1-1.09-4.36,7.16,7.16,0,0,1,1.09-4.3,4.1,4.1,0,0,1,6.32,0,7.09,7.09,0,0,1,1.1,4.3,7.24,7.24,0,0,1-1.1,4.35A3.65,3.65,0,0,1,78.67,455.65Zm0-1.92a1.44,1.44,0,0,0,1.38-.93,7.62,7.62,0,0,0,.43-3,7.47,7.47,0,0,0-.43-3,1.48,1.48,0,0,0-2.75,0,7.47,7.47,0,0,0-.43,3,7.62,7.62,0,0,0,.43,3A1.44,1.44,0,0,0,78.67,453.73Z"/><rect class="cls-17" x="217.31" y="361.36" width="14.5" height="17.58"/><path class="cls-18" d="M224.17,365.23a4.16,4.16,0,0,1,3.42,1.47,6.5,6.5,0,0,1,1.2,4.21,8.15,8.15,0,0,1-.57,3.21,4.65,4.65,0,0,1-1.65,2.07,4.48,4.48,0,0,1-2.56.72,6.47,6.47,0,0,1-2-.33,4.89,4.89,0,0,1-1.69-.95l.81-1.79a6.29,6.29,0,0,0,1.51.84,3.81,3.81,0,0,0,1.31.26,2,2,0,0,0,1.81-1,5.75,5.75,0,0,0,.62-3v-.58l.26.38a2.45,2.45,0,0,1-.58,1.06,2.91,2.91,0,0,1-1,.7,3.35,3.35,0,0,1-1.28.24,3.31,3.31,0,0,1-1.78-.47,3.35,3.35,0,0,1-1.23-1.3,4.08,4.08,0,0,1-.44-1.91,3.87,3.87,0,0,1,.5-2,3.7,3.7,0,0,1,1.38-1.37A4.06,4.06,0,0,1,224.17,365.23Zm.14,1.95a1.58,1.58,0,0,0-1.23.5,1.86,1.86,0,0,0-.45,1.31,1.91,1.91,0,0,0,.45,1.33,1.58,1.58,0,0,0,1.23.49,1.75,1.75,0,0,0,.89-.22,1.51,1.51,0,0,0,.61-.64,2.12,2.12,0,0,0,.22-1,2,2,0,0,0-.22-.95,1.67,1.67,0,0,0-.61-.63A1.76,1.76,0,0,0,224.31,367.18Z"/><circle class="cls-5" cx="256.68" cy="321.99" r="33"/></g><g id="puzzle"><polyline class="cls-19" points="99.53 243.25 178.26 164.51 99.2 87.38 178.26 87.38"/><rect class="cls-20" x="59.83" y="46.4" width="708.65" height="708.65" transform="translate(814.88 -13.43) rotate(90)"/><line class="cls-20" x1="768.48" y1="282.62" x2="59.83" y2="282.62"/><line class="cls-20" x1="768.48" y1="518.84" x2="59.83" y2="518.84"/><polyline class="cls-20" points="532.26 46.4 532.26 597.58 453.52 597.58 453.52 676.32 610.94 676.32 611 755.05"/><line class="cls-20" x1="296.05" y1="755.05" x2="296.05" y2="46.4"/><rect class="cls-21" x="532.26" y="518.84" width="236.22" height="236.22"/><line class="cls-21" x1="768.48" y1="597.58" x2="532.26" y2="597.58"/><line class="cls-21" x1="768.48" y1="676.32" x2="532.26" y2="676.32"/><line class="cls-21" x1="689.74" y1="755.05" x2="689.74" y2="518.84"/><line class="cls-21" x1="611" y1="755.05" x2="611" y2="518.84"/><rect class="cls-21" x="532.26" y="282.62" width="236.22" height="236.22" transform="translate(1051.1 -249.65) rotate(90)"/><line class="cls-21" x1="768.48" y1="361.36" x2="532.26" y2="361.36"/><line class="cls-21" x1="768.48" y1="440.1" x2="532.26" y2="440.1"/><line class="cls-21" x1="689.74" y1="518.84" x2="689.74" y2="282.62"/><line class="cls-21" x1="611" y1="518.84" x2="611" y2="282.62"/><rect class="cls-21" x="532.26" y="46.4" width="236.22" height="236.22" transform="translate(814.88 -485.86) rotate(90)"/><line class="cls-21" x1="768.48" y1="125.14" x2="532.26" y2="125.14"/><line class="cls-21" x1="768.48" y1="203.88" x2="532.26" y2="203.88"/><line class="cls-21" x1="689.74" y1="282.62" x2="689.74" y2="46.4"/><line class="cls-21" x1="611" y1="282.62" x2="611" y2="46.4"/><rect class="cls-21" x="296.05" y="518.84" width="236.22" height="236.22"/><line class="cls-21" x1="532.26" y1="597.58" x2="296.05" y2="597.58"/><line class="cls-21" x1="296.05" y1="676.32" x2="532.26" y2="676.32"/><line class="cls-21" x1="453.52" y1="755.05" x2="453.52" y2="518.84"/><line class="cls-21" x1="374.79" y1="755.05" x2="374.79" y2="518.84"/><rect class="cls-21" x="296.05" y="282.62" width="236.22" height="236.22" transform="translate(814.88 -13.43) rotate(90)"/><line class="cls-21" x1="532.26" y1="361.36" x2="296.05" y2="361.36"/><line class="cls-21" x1="532.26" y1="440.1" x2="296.05" y2="440.1"/><line class="cls-21" x1="453.52" y1="518.84" x2="453.52" y2="282.62"/><line class="cls-21" x1="374.79" y1="518.84" x2="374.79" y2="282.62"/><rect class="cls-21" x="296.05" y="46.4" width="236.22" height="236.22" transform="translate(578.66 -249.65) rotate(90)"/><line class="cls-21" x1="532.26" y1="125.14" x2="296.05" y2="125.14"/><line class="cls-21" x1="532.26" y1="203.88" x2="296.05" y2="203.88"/><line class="cls-21" x1="453.52" y1="282.62" x2="453.52" y2="46.4"/><line class="cls-21" x1="374.79" y1="282.62" x2="374.79" y2="46.4"/><rect class="cls-21" x="59.83" y="518.84" width="236.22" height="236.22" transform="translate(814.88 459.01) rotate(90)"/><line class="cls-21" x1="296.05" y1="597.58" x2="59.83" y2="597.58"/><line class="cls-21" x1="296.05" y1="676.32" x2="59.83" y2="676.32"/><line class="cls-21" x1="217.31" y1="755.05" x2="217.31" y2="518.84"/><line class="cls-21" x1="138.57" y1="755.05" x2="138.57" y2="518.84"/><rect class="cls-21" x="59.83" y="282.62" width="236.22" height="236.22" transform="translate(578.66 222.79) rotate(90)"/><rect class="cls-17" x="282.39" y="308.34" width="27.3" height="27.3" rx="13.65"/><polygon class="cls-22" points="304.82 330.66 300 330.66 288.29 314.95 293.07 314.95 304.82 330.66"/><polygon class="cls-22" points="304.74 314.95 292.96 330.66 288.15 330.66 299.93 314.95 304.74 314.95"/><line class="cls-21" x1="296.05" y1="361.36" x2="59.83" y2="361.36"/><line class="cls-21" x1="296.05" y1="440.1" x2="59.83" y2="440.1"/><line class="cls-21" x1="217.31" y1="518.84" x2="217.31" y2="282.62"/><line class="cls-21" x1="138.57" y1="518.84" x2="138.57" y2="282.62"/><rect class="cls-21" x="59.83" y="46.4" width="236.22" height="236.22" transform="translate(342.45 -13.43) rotate(90)"/><line class="cls-21" x1="296.05" y1="125.14" x2="59.83" y2="125.14"/><line class="cls-21" x1="296.05" y1="203.88" x2="59.83" y2="203.88"/><line class="cls-21" x1="217.31" y1="282.62" x2="217.31" y2="46.4"/><line class="cls-21" x1="138.57" y1="282.62" x2="138.57" y2="46.4"/><rect class="cls-21" x="59.83" y="361.36" width="78.74" height="78.74"/><circle class="cls-2" cx="256.68" cy="479.47" r="32.05"/><circle class="cls-2" cx="256.68" cy="558.21" r="32.05"/><circle class="cls-2" cx="414.15" cy="715.68" r="32.05"/><polyline class="cls-23" points="256.68 511.51 256.68 558.21 182.28 558.21"/><polygon class="cls-24" points="195.53 541.85 198.26 544.78 183.81 558.2 198.26 571.63 195.53 574.56 177.94 558.2 195.53 541.85"/><polyline class="cls-25" points="492.89 354.03 492.89 400.73 425.87 467.75"/><polygon class="cls-24" points="423.67 446.81 427.67 446.96 426.95 466.67 446.66 465.95 446.8 469.95 422.8 470.82 423.67 446.81"/><polyline class="cls-25" points="335.42 275.62 335.42 322.32 411.09 246.64"/><polygon class="cls-24" points="413.28 267.58 409.28 267.44 410 247.73 390.29 248.45 390.15 244.45 414.16 243.58 413.28 267.58"/><line class="cls-2" x1="288.72" y1="558.21" x2="331.08" y2="558.21"/><polygon class="cls-24" points="317.82 574.57 315.1 571.64 329.54 558.21 315.1 544.78 317.82 541.85 335.42 558.21 317.82 574.57"/><line class="cls-2" x1="460.85" y1="479.47" x2="430.72" y2="479.47"/><polygon class="cls-24" points="443.97 463.11 446.7 466.04 432.25 479.46 446.7 492.89 443.97 495.82 426.38 479.46 443.97 463.11"/><polyline class="cls-25" points="603.68 243.25 639.17 243.25 639.17 305.42"/><polygon class="cls-24" points="622.81 292.17 625.74 289.44 639.16 303.89 652.59 289.44 655.52 292.17 639.16 309.76 622.81 292.17"/><polyline class="cls-25" points="697.07 243.25 661.58 243.25 661.58 305.42"/><polygon class="cls-24" points="645.22 292.17 648.15 289.44 661.58 303.89 675.01 289.44 677.94 292.17 661.58 309.76 645.22 292.17"/><circle class="cls-2" cx="492.89" cy="479.47" r="32.05"/><circle class="cls-2" cx="492.89" cy="321.99" r="32.05"/><circle class="cls-2" cx="729.11" cy="243.25" r="32.05"/><circle class="cls-2" cx="571.63" cy="243.25" r="32.05"/><line class="cls-2" x1="524.94" y1="321.99" x2="724.77" y2="321.99"/><polygon class="cls-24" points="711.52 338.35 708.79 335.42 723.24 321.99 708.79 308.56 711.52 305.63 729.11 321.99 711.52 338.35"/><circle class="cls-2" cx="492.89" cy="85.77" r="32.05"/><line class="cls-2" x1="524.94" y1="85.77" x2="724.77" y2="85.77"/><polygon class="cls-24" points="711.52 102.13 708.79 99.2 723.24 85.77 708.79 72.34 711.52 69.41 729.11 85.77 711.52 102.13"/><line class="cls-2" x1="279.17" y1="108.26" x2="332.35" y2="161.44"/><polygon class="cls-24" points="311.41 163.64 311.55 159.64 331.26 160.36 330.54 140.65 334.54 140.5 335.41 164.51 311.41 163.64"/><circle class="cls-2" cx="256.68" cy="85.44" r="32.05"/><circle class="cls-2" cx="256.68" cy="164.51" r="32.05"/><line class="cls-2" x1="234.18" y1="187.33" x2="181" y2="240.51"/><polygon class="cls-24" points="178.81 219.57 182.81 219.71 182.09 239.42 201.8 238.7 201.94 242.7 177.93 243.57 178.81 219.57"/><circle class="cls-2" cx="335.42" cy="243.58" r="32.05"/><circle class="cls-2" cx="650.37" cy="558.21" r="32.05"/><polyline class="cls-26" points="682.42 558.21 729.11 558.21 729.11 711.35"/><polygon class="cls-24" points="712.75 698.09 715.68 695.36 729.11 709.81 742.54 695.36 745.47 698.09 729.11 715.68 712.75 698.09"/><circle class="cls-2" cx="99.2" cy="400.73" r="32.05"/><circle class="cls-2" cx="99.53" cy="321.99" r="32.05"/><circle class="cls-2" cx="178.26" cy="321.99" r="32.05"/><polyline class="cls-25" points="99.2 368.68 99.2 333.91 252.34 333.91"/><polygon class="cls-24" points="239.08 350.27 236.35 347.34 250.8 333.92 236.35 320.49 239.08 317.56 256.68 333.92 239.08 350.27"/><line class="cls-2" x1="446.2" y1="715.68" x2="567.3" y2="715.68"/><polygon class="cls-24" points="554.04 732.04 551.31 729.12 565.76 715.69 551.31 702.26 554.04 699.33 571.63 715.69 554.04 732.04"/><circle class="cls-2" cx="492.89" cy="636.95" r="32.05"/><line class="cls-2" x1="460.85" y1="636.95" x2="339.75" y2="636.95"/><polygon class="cls-24" points="353.01 620.59 355.74 623.52 341.29 636.94 355.74 650.37 353.01 653.3 335.42 636.94 353.01 620.59"/><line class="cls-2" x1="131.57" y1="321.99" x2="252.34" y2="321.99"/><polygon class="cls-24" points="239.08 338.35 236.35 335.42 250.8 321.99 236.35 308.56 239.08 305.63 256.68 321.99 239.08 338.35"/><line class="cls-2" x1="208.02" y1="310.07" x2="252.34" y2="310.07"/><polygon class="cls-24" points="239.08 326.43 236.35 323.5 250.8 310.07 236.35 296.64 239.08 293.71 256.68 310.07 239.08 326.43"/><path d="M12.58,415.59a13.83,13.83,0,0,1-4.68-.83,10.89,10.89,0,0,1-3.82-2.23l1.3-2.77a15,15,0,0,0,3.56,2.09,9.84,9.84,0,0,0,3.68.72,5.45,5.45,0,0,0,4-1.39A5.09,5.09,0,0,0,18,407.35a5.63,5.63,0,0,0-.65-2.76,4.62,4.62,0,0,0-1.82-1.82,5.62,5.62,0,0,0-2.75-.64,7.2,7.2,0,0,0-3.06.64,7.37,7.37,0,0,0-2.52,2H4.84v-15h15.7v3h-12v9.51L7.36,402A7.19,7.19,0,0,1,10,399.86a8,8,0,0,1,3.58-.76,8.39,8.39,0,0,1,4.23,1A7.1,7.1,0,0,1,20.63,403a8.87,8.87,0,0,1,1,4.28,8.4,8.4,0,0,1-1.12,4.34,7.66,7.66,0,0,1-3.13,2.94A10.38,10.38,0,0,1,12.58,415.59Z"/><path d="M83.09,30.82V27.76h15v3.06Zm5.62-1.7V7.67l2,.72-7.2,4.46V9.43l6.8-4.25h2.17V29.12Z"/><path d="M111.1,31.07a13,13,0,0,1-4.93-.85,7.3,7.3,0,0,1-3.26-2.45A6.23,6.23,0,0,1,101.74,24a6,6,0,0,1,1.79-4.45,8.13,8.13,0,0,1,4.8-2.14l-.14.54a7.81,7.81,0,0,1-4.32-2.18,5.59,5.59,0,0,1-1.55-4,6,6,0,0,1,1.13-3.66,7.36,7.36,0,0,1,3.1-2.36,13.06,13.06,0,0,1,9.11,0,7.33,7.33,0,0,1,3.09,2.36,6,6,0,0,1,1.14,3.66,5.71,5.71,0,0,1-1.55,4,7.58,7.58,0,0,1-4.29,2.16l-.17-.54a8.24,8.24,0,0,1,4.84,2.19,6,6,0,0,1,1.74,4.4,6.23,6.23,0,0,1-1.17,3.79A7.27,7.27,0,0,1,116,30.22,13,13,0,0,1,111.1,31.07Zm0-2.95A7,7,0,0,0,115.37,27a3.8,3.8,0,0,0,1.53-3.26,3.71,3.71,0,0,0-1.64-3.2,8.82,8.82,0,0,0-4.16-1.44A8.78,8.78,0,0,0,107,20.52a3.69,3.69,0,0,0-1.64,3.2A3.8,3.8,0,0,0,106.84,27,7,7,0,0,0,111.1,28.12Zm0-11.52a7.4,7.4,0,0,0,3.71-1.44,3.76,3.76,0,0,0,1.44-3.1A3.77,3.77,0,0,0,114.88,9a7,7,0,0,0-7.56,0A3.76,3.76,0,0,0,106,12.06a3.76,3.76,0,0,0,1.43,3.1A7.43,7.43,0,0,0,111.1,16.6Z"/><path d="M179.06,31.1a7.78,7.78,0,0,1-6.8-3.33q-2.34-3.33-2.34-9.77t2.32-9.76a8.63,8.63,0,0,1,13.64,0q2.33,3.36,2.33,9.72c0,4.3-.79,7.56-2.34,9.8A7.8,7.8,0,0,1,179.06,31.1Zm0-3a4.36,4.36,0,0,0,4.12-2.45q1.32-2.45,1.32-7.71t-1.32-7.63a4.72,4.72,0,0,0-8.24,0q-1.32,2.43-1.32,7.61t1.32,7.71A4.36,4.36,0,0,0,179.06,28.12Z"/><path d="M241.47,25.68V21.21h14.82v4.47Zm4.59-2.61V9h2.58l-6.87,3.93V8.07l6.6-3.75h3.3V23.07Z"/><path d="M265.29,25.92a14.51,14.51,0,0,1-4.11-.61,9,9,0,0,1-3.27-1.67l1.74-4a11.58,11.58,0,0,0,2.85,1.44,9.06,9.06,0,0,0,2.88.48,3.84,3.84,0,0,0,2.49-.67,2.57,2.57,0,0,0,.81-2.09,2.91,2.91,0,0,0-.39-1.56,2.49,2.49,0,0,0-1.11-1,4.16,4.16,0,0,0-1.74-.33,6.67,6.67,0,0,0-1.83.29,8.57,8.57,0,0,0-1.8.73h-3.09V4.32h14.1V8.58h-8.64v5l-1.65-.3a6.18,6.18,0,0,1,2-1.24,7.41,7.41,0,0,1,2.55-.41,7,7,0,0,1,3.54.87A6.37,6.37,0,0,1,273.07,15a7.13,7.13,0,0,1,.89,3.61,7,7,0,0,1-1.07,3.9,6.94,6.94,0,0,1-3,2.55A10.86,10.86,0,0,1,265.29,25.92Z"/><path d="M3.27,254.85v-4.14l7-7.26a9.1,9.1,0,0,0,1.46-2,4,4,0,0,0,.49-1.85,1.89,1.89,0,0,0-.63-1.56,2.85,2.85,0,0,0-1.83-.51,8.08,8.08,0,0,0-2.67.5,12.25,12.25,0,0,0-2.79,1.42l-1.77-4a9.63,9.63,0,0,1,3.35-1.66,14.49,14.49,0,0,1,4.18-.62,10.26,10.26,0,0,1,4,.74,6,6,0,0,1,2.67,2.1,5.45,5.45,0,0,1,.94,3.19,7.72,7.72,0,0,1-.73,3.41A14.07,14.07,0,0,1,14.43,246l-5.67,5.79L8,250.38H18.33v4.47Z"/><path d="M28.56,255.12a7.13,7.13,0,0,1-6.07-2.82q-2.11-2.82-2.12-8.16t2.12-8a7.14,7.14,0,0,1,6.07-2.81,7.16,7.16,0,0,1,6.08,2.81q2.11,2.81,2.11,8t-2.11,8.16A7.14,7.14,0,0,1,28.56,255.12Zm0-4.23a2.15,2.15,0,0,0,2.07-1.57,15.23,15.23,0,0,0,.63-5.18,14.69,14.69,0,0,0-.63-5.07,2.15,2.15,0,0,0-4.14,0,14.69,14.69,0,0,0-.63,5.07,15.23,15.23,0,0,0,.63,5.18A2.15,2.15,0,0,0,28.56,250.89Z"/><path d="M14.67,100.71v-21h1L5.81,93.87l0-1.48H22.12v3H3.18V92.61L15.35,75.08h3v25.63Z"/><path d="M25.94,100.71V97.94l8.82-9.69a16,16,0,0,0,2.46-3.4,6.64,6.64,0,0,0,.78-3,3.78,3.78,0,0,0-1.14-3,4.6,4.6,0,0,0-3.22-1,9.67,9.67,0,0,0-3.58.71,13.9,13.9,0,0,0-3.55,2.1l-1.33-2.77a11.22,11.22,0,0,1,3.87-2.23,13.83,13.83,0,0,1,4.73-.83,9.78,9.78,0,0,1,4.2.83A6.31,6.31,0,0,1,40.73,78a6.63,6.63,0,0,1,1,3.65,9.43,9.43,0,0,1-1,4.19,19.37,19.37,0,0,1-3.24,4.45l-8.24,8.89-.36-1.51H42.75v3.06Z"/><path d="M482.88,31.07a14.75,14.75,0,0,1-4.86-.81A10.8,10.8,0,0,1,474.13,28l1.33-2.77a13.42,13.42,0,0,0,3.53,2.1,10.27,10.27,0,0,0,3.78.7A6.05,6.05,0,0,0,486.71,27,4.1,4.1,0,0,0,488,23.62a3.84,3.84,0,0,0-1.36-3.23,6.79,6.79,0,0,0-4.14-1.06h-3.14v-3h2.56A6.29,6.29,0,0,0,486,15.19,3.92,3.92,0,0,0,487.38,12a3.84,3.84,0,0,0-1.16-3,4.72,4.72,0,0,0-3.27-1,9.75,9.75,0,0,0-3.62.7,13.26,13.26,0,0,0-3.51,2.11L474.49,8a11.4,11.4,0,0,1,3.87-2.24,14.16,14.16,0,0,1,4.77-.82,10.07,10.07,0,0,1,4.17.81A6.15,6.15,0,0,1,490.06,8a6.52,6.52,0,0,1,.95,3.53,6.55,6.55,0,0,1-1.22,4,6.16,6.16,0,0,1-3.39,2.27l-.07-.36a6.68,6.68,0,0,1,3.93,2.2,6.38,6.38,0,0,1,1.36,4.21,6.43,6.43,0,0,1-2.35,5.27A9.8,9.8,0,0,1,482.88,31.07Z"/><path d="M505.63,31.1a8.82,8.82,0,0,1-7.31-3.24q-2.6-3.24-2.59-9.28a20.23,20.23,0,0,1,1.2-7.38,10.08,10.08,0,0,1,3.5-4.68,9.17,9.17,0,0,1,5.45-1.62,12.4,12.4,0,0,1,4.39.79A11.35,11.35,0,0,1,514,8l-1.34,2.77a12.52,12.52,0,0,0-3.42-2.14A8.58,8.58,0,0,0,506,7.92a5.4,5.4,0,0,0-4.84,2.75q-1.71,2.76-1.71,7.83v2.6l-.47-.94a6.51,6.51,0,0,1,1.33-3,6.9,6.9,0,0,1,2.5-1.93,8,8,0,0,1,3.3-.68,8.15,8.15,0,0,1,4.14,1A7,7,0,0,1,513,18.49a8.87,8.87,0,0,1,1,4.26,8.5,8.5,0,0,1-1.08,4.3,7.84,7.84,0,0,1-3,3A8.6,8.6,0,0,1,505.63,31.1Zm-.18-3a4.81,4.81,0,0,0,3.62-1.44,5.28,5.28,0,0,0,1.38-3.82A5.24,5.24,0,0,0,509.07,19a4.87,4.87,0,0,0-3.66-1.44,5.38,5.38,0,0,0-2.68.67,4.63,4.63,0,0,0-1.82,1.85,6.06,6.06,0,0,0,0,5.46,4.64,4.64,0,0,0,1.82,1.83A5.35,5.35,0,0,0,505.45,28.08Z"/><path d="M5.92,730.62v-3.06h15v3.06Zm5.62-1.69V707.48l2,.72-7.2,4.46v-3.42l6.8-4.25h2.16v23.94Z"/><path d="M34.14,730.88a13.83,13.83,0,0,1-4.68-.83,11.09,11.09,0,0,1-3.81-2.23L26.94,725a14.69,14.69,0,0,0,3.57,2.09,9.79,9.79,0,0,0,3.67.72,5.49,5.49,0,0,0,4-1.38,5.12,5.12,0,0,0,1.42-3.84,5.62,5.62,0,0,0-.65-2.75,4.55,4.55,0,0,0-1.82-1.82,5.59,5.59,0,0,0-2.75-.65,7.27,7.27,0,0,0-3.06.65,7.14,7.14,0,0,0-2.52,2H26.4V705H42.1v3h-12v9.5l-1.16-.18a7.48,7.48,0,0,1,2.65-2.16,8.19,8.19,0,0,1,3.58-.75,8.49,8.49,0,0,1,4.23,1,7.12,7.12,0,0,1,2.81,2.87,8.87,8.87,0,0,1,1,4.28,8.33,8.33,0,0,1-1.12,4.34,7.51,7.51,0,0,1-3.13,2.93A10.23,10.23,0,0,1,34.14,730.88Z"/><path d="M418.67,189.62V150h1.84L401.94,176.7l.07-2.79h30.74v5.65H397v-5.24l23-33.12h5.65v48.42Z"/><path d="M340.86,424.37V384.73h1.84l-18.57,26.72.07-2.79h30.74v5.65H319.17v-5.24l23-33.11h5.65v48.41Z"/><path d="M177.29,662.81a27.89,27.89,0,0,1-9.18-1.53,20.2,20.2,0,0,1-7.34-4.25l2.51-5.23a25.15,25.15,0,0,0,6.67,4,19.31,19.31,0,0,0,7.14,1.33c3.3,0,5.79-.69,7.44-2.07s2.48-3.48,2.48-6.29-.86-4.75-2.58-6.09-4.33-2-7.82-2h-5.92v-5.71h4.83q5,0,7.65-2.11a7.37,7.37,0,0,0,2.62-6.12,7.24,7.24,0,0,0-2.18-5.64,8.9,8.9,0,0,0-6.18-2,18.6,18.6,0,0,0-6.84,1.32,25.49,25.49,0,0,0-6.63,4l-2.51-5.23a21.24,21.24,0,0,1,7.31-4.22,26.65,26.65,0,0,1,9-1.56,19,19,0,0,1,7.88,1.53,11.64,11.64,0,0,1,5.21,4.38,13.37,13.37,0,0,1-.51,14.21,11.64,11.64,0,0,1-6.4,4.29l-.13-.68a12.58,12.58,0,0,1,7.41,4.15,13.44,13.44,0,0,1-1.87,17.91Q184.9,662.82,177.29,662.81Z"/><path class="cls-27" d="M255.15,375.41q9,0,13.83,6.12t4.87,17.55A38,38,0,0,1,271.57,413a19.18,19.18,0,0,1-6.56,8.84,17.35,17.35,0,0,1-10.34,3.06,23.56,23.56,0,0,1-8.26-1.5,21.51,21.51,0,0,1-7.11-4.28l2.59-5.24a25.71,25.71,0,0,0,6.49,4.05,16.17,16.17,0,0,0,6.15,1.25,10.13,10.13,0,0,0,9.12-5.2q3.19-5.21,3.19-14.79v-4.89l1,1.76a12.21,12.21,0,0,1-2.51,5.61,12.82,12.82,0,0,1-4.76,3.64,15,15,0,0,1-6.26,1.29,15.3,15.3,0,0,1-7.78-1.93,13.66,13.66,0,0,1-5.27-5.44,16.61,16.61,0,0,1-1.91-8.06,16.09,16.09,0,0,1,2-8.13,14.71,14.71,0,0,1,5.65-5.61A16.26,16.26,0,0,1,255.15,375.41Zm.4,5.71a9,9,0,0,0-6.86,2.72,10,10,0,0,0-2.59,7.21,9.9,9.9,0,0,0,2.59,7.14,9.08,9.08,0,0,0,6.93,2.72,10.07,10.07,0,0,0,5-1.26,8.6,8.6,0,0,0,3.47-3.5,10.4,10.4,0,0,0,1.23-5.1,10.52,10.52,0,0,0-1.23-5.2,8.77,8.77,0,0,0-3.47-3.47A10.2,10.2,0,0,0,255.55,381.12Z"/><path class="cls-27" d="M248.17,489.92a10.69,10.69,0,0,1-3.51-.59,7.82,7.82,0,0,1-2.8-1.62l1-2a9.55,9.55,0,0,0,2.54,1.52,7.43,7.43,0,0,0,2.73.51,4.33,4.33,0,0,0,2.84-.8,2.94,2.94,0,0,0,.95-2.4,2.74,2.74,0,0,0-1-2.32,4.83,4.83,0,0,0-3-.77h-2.26v-2.18h1.84a4.54,4.54,0,0,0,2.92-.8,2.83,2.83,0,0,0,1-2.34,2.77,2.77,0,0,0-.83-2.15,3.39,3.39,0,0,0-2.36-.75,7.24,7.24,0,0,0-2.61.5,9.78,9.78,0,0,0-2.53,1.52l-1-2a8.22,8.22,0,0,1,2.79-1.61,10.37,10.37,0,0,1,3.44-.59,7.28,7.28,0,0,1,3,.58,4.42,4.42,0,0,1,2,1.67,5.11,5.11,0,0,1-.19,5.43,4.38,4.38,0,0,1-2.44,1.63l-.05-.26a4.81,4.81,0,0,1,2.83,1.59,4.59,4.59,0,0,1,1,3,4.64,4.64,0,0,1-1.7,3.8A7.09,7.09,0,0,1,248.17,489.92Z"/><path class="cls-27" d="M264.57,489.94a6.38,6.38,0,0,1-5.27-2.33c-1.24-1.56-1.87-3.79-1.87-6.7a14.49,14.49,0,0,1,.87-5.32,7.29,7.29,0,0,1,2.52-3.38,6.68,6.68,0,0,1,3.93-1.16,9,9,0,0,1,3.17.57,8.23,8.23,0,0,1,2.7,1.63l-1,2a9.29,9.29,0,0,0-2.47-1.54,6.26,6.26,0,0,0-2.36-.48,3.9,3.9,0,0,0-3.49,2,10.79,10.79,0,0,0-1.23,5.65v1.87l-.34-.68a4.71,4.71,0,0,1,1-2.14,4.93,4.93,0,0,1,1.8-1.39,5.63,5.63,0,0,1,2.38-.49,5.83,5.83,0,0,1,3,.74,5.1,5.1,0,0,1,2,2.07,6.54,6.54,0,0,1,.71,3.08,6.13,6.13,0,0,1-.78,3.1,5.64,5.64,0,0,1-2.14,2.14A6.19,6.19,0,0,1,264.57,489.94Zm-.13-2.18a3.44,3.44,0,0,0,2.61-1,3.78,3.78,0,0,0,1-2.75,3.74,3.74,0,0,0-1-2.72,3.46,3.46,0,0,0-2.63-1,3.85,3.85,0,0,0-1.94.48,3.31,3.31,0,0,0-1.31,1.34,4,4,0,0,0-.47,1.94,4.07,4.07,0,0,0,.47,2,3.39,3.39,0,0,0,1.31,1.32A3.9,3.9,0,0,0,264.44,487.76Z"/><path class="cls-27" d="M326.18,489.92a10.69,10.69,0,0,1-3.51-.59,7.82,7.82,0,0,1-2.8-1.62l1-2a9.55,9.55,0,0,0,2.54,1.52,7.43,7.43,0,0,0,2.73.51,4.33,4.33,0,0,0,2.84-.8,2.94,2.94,0,0,0,.95-2.4,2.74,2.74,0,0,0-1-2.32,4.81,4.81,0,0,0-3-.77h-2.26v-2.18h1.84a4.54,4.54,0,0,0,2.92-.8,2.83,2.83,0,0,0,1-2.34,2.73,2.73,0,0,0-.83-2.15,3.39,3.39,0,0,0-2.36-.75,7.24,7.24,0,0,0-2.61.5,9.78,9.78,0,0,0-2.53,1.52l-1-2a8.22,8.22,0,0,1,2.79-1.61,10.37,10.37,0,0,1,3.44-.59,7.28,7.28,0,0,1,3,.58,4.45,4.45,0,0,1,2,1.67,4.76,4.76,0,0,1,.68,2.55,4.71,4.71,0,0,1-.88,2.88,4.38,4.38,0,0,1-2.44,1.63l-.05-.26a4.81,4.81,0,0,1,2.83,1.59,4.59,4.59,0,0,1,1,3,4.67,4.67,0,0,1-1.7,3.8A7.12,7.12,0,0,1,326.18,489.92Z"/><path class="cls-27" d="M342.58,489.94a6.38,6.38,0,0,1-5.27-2.33c-1.24-1.56-1.87-3.79-1.87-6.7a14.49,14.49,0,0,1,.87-5.32,7.29,7.29,0,0,1,2.52-3.38,6.68,6.68,0,0,1,3.93-1.16,9,9,0,0,1,3.17.57,8.23,8.23,0,0,1,2.7,1.63l-1,2a9.29,9.29,0,0,0-2.47-1.54,6.26,6.26,0,0,0-2.36-.48,3.9,3.9,0,0,0-3.49,2,10.79,10.79,0,0,0-1.23,5.65v1.87l-.34-.68a4.82,4.82,0,0,1,1-2.14,4.93,4.93,0,0,1,1.8-1.39,5.63,5.63,0,0,1,2.38-.49,5.83,5.83,0,0,1,3,.74,5.1,5.1,0,0,1,2,2.07,6.54,6.54,0,0,1,.71,3.08,6.13,6.13,0,0,1-.78,3.1,5.64,5.64,0,0,1-2.14,2.14A6.19,6.19,0,0,1,342.58,489.94Zm-.13-2.18a3.43,3.43,0,0,0,2.61-1,3.78,3.78,0,0,0,1-2.75,3.74,3.74,0,0,0-1-2.72,3.46,3.46,0,0,0-2.63-1,3.85,3.85,0,0,0-1.94.48,3.31,3.31,0,0,0-1.31,1.34,4,4,0,0,0-.47,1.94,4.07,4.07,0,0,0,.47,2,3.39,3.39,0,0,0,1.31,1.32A3.9,3.9,0,0,0,342.45,487.76Z"/><path class="cls-27" d="M179.49,426.84a25.75,25.75,0,0,1-8.84-1.57,20.56,20.56,0,0,1-7.21-4.21l2.45-5.24a27.81,27.81,0,0,0,6.73,3.95,18.63,18.63,0,0,0,6.93,1.36c3.22,0,5.73-.88,7.52-2.62a9.65,9.65,0,0,0,2.68-7.24,10.56,10.56,0,0,0-1.22-5.21,8.7,8.7,0,0,0-3.43-3.43,10.56,10.56,0,0,0-5.21-1.22,13.59,13.59,0,0,0-5.78,1.22,13.84,13.84,0,0,0-4.76,3.74h-4.48V378h29.64v5.64H171.8v18l-2.17-.34a13.76,13.76,0,0,1,5-4.08,15.44,15.44,0,0,1,6.77-1.43,16,16,0,0,1,8,1.94,13.34,13.34,0,0,1,5.3,5.41,16.75,16.75,0,0,1,1.87,8.09,15.85,15.85,0,0,1-2.1,8.19,14.48,14.48,0,0,1-5.92,5.55A19.48,19.48,0,0,1,179.49,426.84Z"/><path class="cls-27" d="M179.67,502.42q-8.91,0-13.8-6.12T161,478.75a38,38,0,0,1,2.28-13.94,19,19,0,0,1,6.6-8.84,17.35,17.35,0,0,1,10.3-3.06,23.57,23.57,0,0,1,8.3,1.5,21.81,21.81,0,0,1,7.07,4.28L193,463.93a24.42,24.42,0,0,0-6.46-4.05,16.64,16.64,0,0,0-6.19-1.25,10.18,10.18,0,0,0-9.14,5.2Q168,469,168,478.62v4.89l-.89-1.76a12.33,12.33,0,0,1,2.52-5.61,12.84,12.84,0,0,1,4.72-3.64,14.84,14.84,0,0,1,6.23-1.29,15.56,15.56,0,0,1,7.82,1.93,13.53,13.53,0,0,1,5.27,5.44,16.94,16.94,0,0,1,1.87,8.06,16.09,16.09,0,0,1-2,8.13,14.82,14.82,0,0,1-5.61,5.61A16.25,16.25,0,0,1,179.67,502.42Zm-.34-5.71a9.09,9.09,0,0,0,6.84-2.72,10,10,0,0,0,2.62-7.21,9.88,9.88,0,0,0-2.62-7.14,9.14,9.14,0,0,0-6.91-2.72,10,10,0,0,0-5.06,1.26,8.84,8.84,0,0,0-3.44,3.5,10.51,10.51,0,0,0-1.22,5.1,10.63,10.63,0,0,0,1.22,5.2,9,9,0,0,0,3.44,3.47A10.16,10.16,0,0,0,179.33,496.71Z"/><path d="M402,424.37v-5.78H430.3v5.78Zm10.6-3.19V380.65l3.75,1.36-13.61,8.43V384l12.86-8h4.08v45.22Z"/><path d="M334.64,190.1a27.86,27.86,0,0,1-9.18-1.54,20.2,20.2,0,0,1-7.34-4.25l2.51-5.23a25.31,25.31,0,0,0,6.66,4,19.58,19.58,0,0,0,7.14,1.32c3.31,0,5.8-.69,7.45-2.07s2.48-3.48,2.48-6.29-.86-4.75-2.58-6.09-4.33-2-7.82-2H328v-5.71h4.83c3.36,0,5.91-.71,7.65-2.11a7.4,7.4,0,0,0,2.62-6.12,7.25,7.25,0,0,0-2.18-5.65,8.9,8.9,0,0,0-6.18-2,18.37,18.37,0,0,0-6.84,1.33,25.22,25.22,0,0,0-6.63,4l-2.52-5.24a21.59,21.59,0,0,1,7.31-4.22,26.75,26.75,0,0,1,9-1.56,19,19,0,0,1,7.88,1.53,11.59,11.59,0,0,1,5.21,4.39,12.21,12.21,0,0,1,1.8,6.66,12.36,12.36,0,0,1-2.31,7.55,11.68,11.68,0,0,1-6.4,4.28l-.13-.68a12.58,12.58,0,0,1,7.41,4.15,13.45,13.45,0,0,1-1.87,17.92Q342.26,190.09,334.64,190.1Z"/><circle class="cls-28" cx="453.52" cy="400.73" r="10"/><circle class="cls-17" cx="492.89" cy="361.36" r="9"/><path class="cls-28" d="M492.89,353.36a8,8,0,1,1-8,8,8,8,0,0,1,8-8m0-2a10,10,0,1,0,10,10,10,10,0,0,0-10-10Z"/><circle class="cls-29" cx="178.26" cy="87.38" r="32.05"/><circle class="cls-29" cx="99.53" cy="243.25" r="32.05"/><circle class="cls-30" cx="296.05" cy="518.84" r="23.07"/><path class="cls-31" d="M289.67,518.52a7.9,7.9,0,0,1-2.7-.46,5.72,5.72,0,0,1-2.16-1.25l.74-1.54a7.06,7.06,0,0,0,2,1.17,5.48,5.48,0,0,0,2.1.39,3.4,3.4,0,0,0,2.19-.6,2.31,2.31,0,0,0,.73-1.85,2.17,2.17,0,0,0-.76-1.8,3.77,3.77,0,0,0-2.3-.58h-1.74v-1.69h1.42a3.51,3.51,0,0,0,2.25-.62,2.48,2.48,0,0,0,.13-3.46,2.67,2.67,0,0,0-1.82-.58,5.65,5.65,0,0,0-2,.39,7.7,7.7,0,0,0-1.95,1.17l-.74-1.54a6.16,6.16,0,0,1,2.15-1.23,7.74,7.74,0,0,1,2.65-.46,5.62,5.62,0,0,1,2.32.44,3.54,3.54,0,0,1,1.53,1.29,3.64,3.64,0,0,1,.53,2,3.69,3.69,0,0,1-.68,2.23,3.41,3.41,0,0,1-1.88,1.25l0-.19a3.7,3.7,0,0,1,2.18,1.21,3.62,3.62,0,0,1,.76,2.35,3.58,3.58,0,0,1-1.31,2.92A5.43,5.43,0,0,1,289.67,518.52Z"/><path class="cls-31" d="M302.71,518.54a4.88,4.88,0,0,1-4.06-1.81,8.06,8.06,0,0,1-1.44-5.15,11.11,11.11,0,0,1,.67-4.1,5.5,5.5,0,0,1,1.94-2.6,5,5,0,0,1,3-.9,6.79,6.79,0,0,1,2.44.44,6.45,6.45,0,0,1,2.08,1.25l-.74,1.54a7.65,7.65,0,0,0-1.9-1.19,5,5,0,0,0-1.82-.37,3,3,0,0,0-2.69,1.54,8.19,8.19,0,0,0-1,4.35V513l-.26-.52a3.52,3.52,0,0,1,.74-1.65,3.81,3.81,0,0,1,1.39-1.08,4.37,4.37,0,0,1,1.83-.38,4.59,4.59,0,0,1,2.3.57,4.11,4.11,0,0,1,1.55,1.6,5.06,5.06,0,0,1,.55,2.38,4.77,4.77,0,0,1-.6,2.39,4.43,4.43,0,0,1-1.65,1.65A4.89,4.89,0,0,1,302.71,518.54Zm-.1-1.69a2.69,2.69,0,0,0,2-.79,3.29,3.29,0,0,0,0-4.23,2.7,2.7,0,0,0-2-.79,3,3,0,0,0-1.49.36,2.59,2.59,0,0,0-1,1,3.35,3.35,0,0,0,0,3,2.48,2.48,0,0,0,1,1A2.94,2.94,0,0,0,302.61,516.85Z"/><path class="cls-31" d="M291,534.38V522.71h.54L286,530.58l0-.83h9v1.67H284.57v-1.54l6.76-9.75H293v14.25Z"/><path class="cls-31" d="M302.45,534.52a7.1,7.1,0,0,1-2.74-.48,4,4,0,0,1-1.81-1.35,3.46,3.46,0,0,1-.65-2.11,3.34,3.34,0,0,1,1-2.48,4.52,4.52,0,0,1,2.67-1.18l-.08.29a4.23,4.23,0,0,1-2.4-1.21,3.09,3.09,0,0,1-.86-2.23,3.28,3.28,0,0,1,.63-2,3.94,3.94,0,0,1,1.72-1.31,7.19,7.19,0,0,1,5.06,0,4,4,0,0,1,1.72,1.31,3.28,3.28,0,0,1,.63,2,3.21,3.21,0,0,1-.86,2.25,4.19,4.19,0,0,1-2.38,1.19l-.1-.29a4.58,4.58,0,0,1,2.69,1.21,3.38,3.38,0,0,1,1,2.45,3.52,3.52,0,0,1-.65,2.11,4.1,4.1,0,0,1-1.81,1.35A7.17,7.17,0,0,1,302.45,534.52Zm0-1.64a3.93,3.93,0,0,0,2.37-.63,2.14,2.14,0,0,0,.85-1.81,2.08,2.08,0,0,0-.91-1.79,5.07,5.07,0,0,0-2.31-.8,5,5,0,0,0-2.31.8,2.06,2.06,0,0,0-.91,1.79,2.12,2.12,0,0,0,.85,1.81A3.88,3.88,0,0,0,302.45,532.88Zm0-6.4a4.07,4.07,0,0,0,2.06-.81,2.29,2.29,0,0,0,0-3.44,3.26,3.26,0,0,0-2.1-.61,3.22,3.22,0,0,0-2.1.61,2.29,2.29,0,0,0,0,3.44A4,4,0,0,0,302.45,526.48Z"/><circle class="cls-30" cx="374.78" cy="518.84" r="23.07"/><path class="cls-31" d="M364.17,518.38v-1.55l4.9-5.37a9.49,9.49,0,0,0,1.37-1.9,3.74,3.74,0,0,0,.43-1.68,2.08,2.08,0,0,0-.63-1.65,2.58,2.58,0,0,0-1.79-.58,5.59,5.59,0,0,0-2,.39,8,8,0,0,0-2,1.17l-.74-1.54a6.16,6.16,0,0,1,2.15-1.23,7.67,7.67,0,0,1,2.63-.46,5.44,5.44,0,0,1,2.33.46,3.45,3.45,0,0,1,1.53,1.31,3.67,3.67,0,0,1,.54,2,5.21,5.21,0,0,1-.54,2.33,10.58,10.58,0,0,1-1.8,2.48L366,517.52l-.2-.85h7.7v1.71Z"/><path class="cls-31" d="M381.11,518.52a7.89,7.89,0,0,1-2.61-.46,6.15,6.15,0,0,1-2.11-1.25l.72-1.54a8.3,8.3,0,0,0,2,1.17,5.6,5.6,0,0,0,2,.39,3,3,0,0,0,2.21-.77,2.81,2.81,0,0,0,.79-2.12,3.27,3.27,0,0,0-.35-1.54,2.46,2.46,0,0,0-1-1,3,3,0,0,0-1.52-.36,3.92,3.92,0,0,0-3.11,1.46h-1.31v-8.37h8.72v1.66h-6.68v5.29l-.64-.1a4.19,4.19,0,0,1,1.47-1.21,4.62,4.62,0,0,1,2-.42,4.73,4.73,0,0,1,2.35.57,4,4,0,0,1,1.56,1.6,5,5,0,0,1,.54,2.38,4.63,4.63,0,0,1-.62,2.41,4.32,4.32,0,0,1-1.73,1.63A5.83,5.83,0,0,1,381.11,518.52Z"/><path class="cls-31" d="M374.33,520a5,5,0,0,1,4.08,1.79,8.18,8.18,0,0,1,1.42,5.17,11.37,11.37,0,0,1-.66,4.1,5.58,5.58,0,0,1-1.93,2.59,5.13,5.13,0,0,1-3,.91,7.1,7.1,0,0,1-2.44-.44,6.55,6.55,0,0,1-2.09-1.27l.76-1.54a7.47,7.47,0,0,0,1.91,1.19,4.74,4.74,0,0,0,1.82.37,3,3,0,0,0,2.67-1.52,8.33,8.33,0,0,0,.95-4.35v-1.44l.27.52a3.61,3.61,0,0,1-.74,1.65,3.74,3.74,0,0,1-1.39,1.06,4.36,4.36,0,0,1-1.84.38,4.5,4.5,0,0,1-2.29-.57,3.86,3.86,0,0,1-1.55-1.6,4.77,4.77,0,0,1-.57-2.36,4.69,4.69,0,0,1,.61-2.39,4.22,4.22,0,0,1,1.65-1.65A4.7,4.7,0,0,1,374.33,520Zm.13,1.67a2.67,2.67,0,0,0-2,.81,3.3,3.3,0,0,0,0,4.21,2.67,2.67,0,0,0,2,.81,3,3,0,0,0,1.49-.38,2.48,2.48,0,0,0,1-1,3.39,3.39,0,0,0,0-3,2.61,2.61,0,0,0-1-1A3.14,3.14,0,0,0,374.46,521.65Z"/><line class="cls-32" x1="232.45" y1="25.2" x2="222" y2="35.65"/><polygon points="220.9 25.18 222.9 25.25 222.54 35.11 232.4 34.75 232.47 36.75 220.47 37.18 220.9 25.18"/><line class="cls-32" x1="280.9" y1="25.2" x2="291.35" y2="35.65"/><polygon points="280.88 36.75 280.95 34.75 290.81 35.11 290.45 25.25 292.45 25.18 292.88 37.19 280.88 36.75"/><line class="cls-32" x1="36.46" y1="263.79" x2="46.91" y2="274.24"/><polygon points="36.44 275.34 36.51 273.34 46.36 273.7 46 263.84 48 263.77 48.44 275.77 36.44 275.34"/><rect class="cls-17" x="361.13" y="308.34" width="27.3" height="27.3" rx="13.65"/><polygon class="cls-22" points="383.56 330.66 378.74 330.66 367.03 314.95 371.81 314.95 383.56 330.66"/><polygon class="cls-22" points="383.48 314.95 371.7 330.66 366.89 330.66 378.67 314.95 383.48 314.95"/><polyline class="cls-33" points="492.89 558.21 414.15 558.21 492.89 636.95"/><path class="cls-27" d="M407.12,571.28a10.64,10.64,0,0,1-3.51-.59,7.82,7.82,0,0,1-2.8-1.62l1-2a9.55,9.55,0,0,0,2.54,1.52,7.4,7.4,0,0,0,2.73.51,4.33,4.33,0,0,0,2.84-.8,2.94,2.94,0,0,0,.95-2.4,2.76,2.76,0,0,0-1-2.32,4.83,4.83,0,0,0-3-.77H404.6v-2.18h1.84a4.56,4.56,0,0,0,2.92-.8,2.81,2.81,0,0,0,1-2.34,2.77,2.77,0,0,0-.83-2.15,3.41,3.41,0,0,0-2.36-.75,7.2,7.2,0,0,0-2.61.5,9.78,9.78,0,0,0-2.53,1.52l-1-2a8.22,8.22,0,0,1,2.79-1.61,10.32,10.32,0,0,1,3.44-.59,7.28,7.28,0,0,1,3,.58,4.48,4.48,0,0,1,2,1.67,5.11,5.11,0,0,1-.19,5.43,4.38,4.38,0,0,1-2.44,1.63l-.05-.26a4.84,4.84,0,0,1,2.83,1.59,5.14,5.14,0,0,1-.72,6.84A7.09,7.09,0,0,1,407.12,571.28Z"/><path class="cls-27" d="M423.52,571.3a6.38,6.38,0,0,1-5.27-2.33q-1.87-2.34-1.87-6.7a14.49,14.49,0,0,1,.87-5.32,7.29,7.29,0,0,1,2.52-3.38,6.68,6.68,0,0,1,3.93-1.16,9,9,0,0,1,3.17.57,8.23,8.23,0,0,1,2.7,1.63l-1,2a9.29,9.29,0,0,0-2.47-1.54,6.3,6.3,0,0,0-2.36-.48,3.88,3.88,0,0,0-3.49,2,10.79,10.79,0,0,0-1.24,5.65v1.87l-.33-.68a4.61,4.61,0,0,1,1-2.14,4.85,4.85,0,0,1,1.8-1.39,5.63,5.63,0,0,1,2.38-.49,5.93,5.93,0,0,1,3,.74,5,5,0,0,1,2,2.07,6.42,6.42,0,0,1,.72,3.08,6.13,6.13,0,0,1-.78,3.1,5.64,5.64,0,0,1-2.14,2.14A6.19,6.19,0,0,1,423.52,571.3Zm-.13-2.18a3.44,3.44,0,0,0,2.61-1,3.82,3.82,0,0,0,1-2.75,3.78,3.78,0,0,0-1-2.72,3.52,3.52,0,0,0-2.64-1,3.84,3.84,0,0,0-1.93.48,3.31,3.31,0,0,0-1.31,1.34,4,4,0,0,0-.47,1.94,4.07,4.07,0,0,0,.47,2,3.39,3.39,0,0,0,1.31,1.32A3.9,3.9,0,0,0,423.39,569.12Z"/><path class="cls-27" d="M564.47,410.93a6.35,6.35,0,0,1-5.27-2.33c-1.24-1.56-1.87-3.79-1.87-6.7a14.53,14.53,0,0,1,.87-5.32,7.26,7.26,0,0,1,2.52-3.37,6.62,6.62,0,0,1,3.93-1.17,9,9,0,0,1,3.17.57,8.26,8.26,0,0,1,2.7,1.64l-1,2a9.29,9.29,0,0,0-2.47-1.54,6.3,6.3,0,0,0-2.36-.48,3.88,3.88,0,0,0-3.49,2,10.79,10.79,0,0,0-1.24,5.65v1.87l-.33-.68a4.61,4.61,0,0,1,1-2.14,5,5,0,0,1,1.8-1.39,5.79,5.79,0,0,1,2.38-.49,5.93,5.93,0,0,1,3,.74,5,5,0,0,1,2,2.08,6.36,6.36,0,0,1,.72,3.07,6.1,6.1,0,0,1-.78,3.1,5.66,5.66,0,0,1-2.14,2.15A6.18,6.18,0,0,1,564.47,410.93Zm-.13-2.18a3.47,3.47,0,0,0,2.61-1,3.85,3.85,0,0,0,1-2.76,3.78,3.78,0,0,0-1-2.72,3.52,3.52,0,0,0-2.64-1,3.84,3.84,0,0,0-1.93.48,3.38,3.38,0,0,0-1.31,1.34,4.34,4.34,0,0,0,0,3.93,3.39,3.39,0,0,0,1.31,1.32A3.9,3.9,0,0,0,564.34,408.75Z"/><path class="cls-27" d="M579.42,410.91a9.41,9.41,0,0,1-3.56-.61,5.29,5.29,0,0,1-2.34-1.77,4.46,4.46,0,0,1-.85-2.73,4.29,4.29,0,0,1,1.29-3.21,5.85,5.85,0,0,1,3.46-1.54l-.1.38a5.59,5.59,0,0,1-3.12-1.57,4,4,0,0,1-1.11-2.89,4.25,4.25,0,0,1,.82-2.63,5.07,5.07,0,0,1,2.23-1.7,9.27,9.27,0,0,1,6.56,0,5.16,5.16,0,0,1,2.24,1.7,4.31,4.31,0,0,1,.81,2.63,4.13,4.13,0,0,1-1.11,2.91,5.49,5.49,0,0,1-3.09,1.55l-.13-.38a5.83,5.83,0,0,1,3.49,1.58,4.32,4.32,0,0,1,1.26,3.17,4.52,4.52,0,0,1-.84,2.73A5.38,5.38,0,0,1,583,410.3,9.41,9.41,0,0,1,579.42,410.91Zm0-2.13a5.06,5.06,0,0,0,3.08-.82,2.75,2.75,0,0,0,1.1-2.35,2.67,2.67,0,0,0-1.18-2.31,4.88,4.88,0,0,0-6,0,2.67,2.67,0,0,0-1.18,2.31,2.75,2.75,0,0,0,1.1,2.35A5.08,5.08,0,0,0,579.42,408.78Zm0-8.31a5.18,5.18,0,0,0,2.67-1,3,3,0,0,0,.06-4.48,4.25,4.25,0,0,0-2.73-.79,4.2,4.2,0,0,0-2.72.79,3,3,0,0,0,0,4.48A5.18,5.18,0,0,0,579.42,400.47Z"/><rect class="cls-17" x="439.87" y="308.34" width="27.3" height="27.3" rx="13.65"/><polygon class="cls-22" points="462.4 314.95 455.25 330.66 451.96 330.66 444.81 314.95 449.11 314.95 453.65 325.49 458.22 314.95 462.4 314.95"/><rect class="cls-17" x="518.61" y="387.08" width="27.3" height="27.3" rx="13.65"/><polygon class="cls-22" points="541.14 393.69 533.99 409.4 530.7 409.4 523.55 393.69 527.85 393.69 532.38 404.23 536.96 393.69 541.14 393.69"/><line class="cls-34" x1="650.37" y1="400.73" x2="492.89" y2="558.21"/><line class="cls-35" x1="494" y1="401.55" x2="727.03" y2="634.57"/><line class="cls-2" x1="524.94" y1="479.47" x2="724.77" y2="479.47"/><polygon class="cls-24" points="711.52 495.83 708.79 492.9 723.24 479.47 708.79 466.04 711.52 463.11 729.11 479.47 711.52 495.83"/><polyline class="cls-36" points="650.25 479.34 571.63 480.28 571.63 560.06 649.45 637.87"/><path class="cls-27" d="M561.59,486.91h-2.88l9-17.21.13.94H557.62v-2.21h12.51v2Z"/><path class="cls-27" d="M579.42,487.1a9.61,9.61,0,0,1-3.56-.61,5.29,5.29,0,0,1-2.34-1.77,4.47,4.47,0,0,1-.85-2.74,4.27,4.27,0,0,1,1.29-3.2,5.85,5.85,0,0,1,3.46-1.55l-.1.39a5.66,5.66,0,0,1-3.12-1.57,4.07,4.07,0,0,1-1.11-2.89,4.3,4.3,0,0,1,.82-2.64,5.22,5.22,0,0,1,2.23-1.7,9.41,9.41,0,0,1,6.56,0,5.31,5.31,0,0,1,2.24,1.7,4.36,4.36,0,0,1,.81,2.64,4.09,4.09,0,0,1-1.11,2.9,5.44,5.44,0,0,1-3.09,1.56l-.13-.39a5.89,5.89,0,0,1,3.49,1.59,4.3,4.3,0,0,1,1.26,3.16,4.53,4.53,0,0,1-.84,2.74,5.38,5.38,0,0,1-2.35,1.77A9.61,9.61,0,0,1,579.42,487.1Zm0-2.13a5.12,5.12,0,0,0,3.08-.82,2.77,2.77,0,0,0,1.1-2.35,2.65,2.65,0,0,0-1.18-2.31,4.85,4.85,0,0,0-6,0,2.65,2.65,0,0,0-1.18,2.31,2.77,2.77,0,0,0,1.1,2.35A5.15,5.15,0,0,0,579.42,485Zm0-8.31a5.19,5.19,0,0,0,2.67-1,3,3,0,0,0,.06-4.47,4.25,4.25,0,0,0-2.73-.8,4.2,4.2,0,0,0-2.72.8,3,3,0,0,0,0,4.47A5.19,5.19,0,0,0,579.42,476.66Z"/><path class="cls-27" d="M648.84,533.88q9,0,13.84,6.12t4.86,17.55a38.23,38.23,0,0,1-2.27,13.94,19.13,19.13,0,0,1-6.57,8.84,17.29,17.29,0,0,1-10.33,3.06,23.56,23.56,0,0,1-8.26-1.5,21.34,21.34,0,0,1-7.11-4.28l2.58-5.24a25.75,25.75,0,0,0,6.5,4,16.19,16.19,0,0,0,6.15,1.26,10.11,10.11,0,0,0,9.11-5.21q3.2-5.19,3.2-14.79v-4.89l1,1.77a12.52,12.52,0,0,1-2.51,5.61,12.9,12.9,0,0,1-4.76,3.63,14.9,14.9,0,0,1-6.26,1.3,15.37,15.37,0,0,1-7.79-1.94,13.73,13.73,0,0,1-5.27-5.44,16.61,16.61,0,0,1-1.9-8.06,16.09,16.09,0,0,1,2-8.13,14.75,14.75,0,0,1,5.64-5.61A16.31,16.31,0,0,1,648.84,533.88Zm.41,5.72a9,9,0,0,0-6.87,2.72,11.25,11.25,0,0,0,0,14.34,9.11,9.11,0,0,0,6.94,2.72,10.07,10.07,0,0,0,5-1.25,8.75,8.75,0,0,0,3.47-3.51,10.4,10.4,0,0,0,1.22-5.1,10.55,10.55,0,0,0-1.22-5.2,8.84,8.84,0,0,0-3.47-3.47A10.3,10.3,0,0,0,649.25,539.6Z"/></g></svg>