<svg id="ui" xmlns="http://www.w3.org/2000/svg" viewBox="0 0 25 25"><defs><style>.cls-1{fill:#fff;}</style></defs><path class="cls-1" d="M23.89,6.69C21.47,1.71,15.27-1,9.49.4A12.45,12.45,0,0,0,12.26,25a3,3,0,0,0,1.82-.77,2,2,0,0,0,.05-2.68,2,2,0,0,1-.39-2.25,2.12,2.12,0,0,1,2.15-1.14c.78,0,1.57,0,2.35,0A6.61,6.61,0,0,0,23.78,15C25.54,12.31,25.23,9.45,23.89,6.69Zm-19,6A2.17,2.17,0,1,1,7.08,10.5,2.17,2.17,0,0,1,4.91,12.67ZM9.05,7.14A2.17,2.17,0,1,1,11.22,5,2.17,2.17,0,0,1,9.05,7.14Zm6.88,0A2.17,2.17,0,1,1,18.1,5,2.17,2.17,0,0,1,15.93,7.14Zm4.12,5.53a2.17,2.17,0,1,1,2.17-2.17A2.17,2.17,0,0,1,20.05,12.67Z"/></svg>