<svg id="ui" xmlns="http://www.w3.org/2000/svg" viewBox="0 0 25 25"><defs><style>.cls-1{fill:#fff;}</style></defs><path class="cls-1" d="M12.5,1.84A10.66,10.66,0,1,0,23.15,12.5,10.66,10.66,0,0,0,12.5,1.84Zm1.37,17.48h-3V16.37h3Zm2.48-8.72a4.88,4.88,0,0,1-.79,1.09c-.32.33-.64.64-1,.93a7.45,7.45,0,0,0-.87.92,2.19,2.19,0,0,0-.44,1l-.11.62H11.54v-.92a3.57,3.57,0,0,1,.23-1.34,3.85,3.85,0,0,1,.58-1c.23-.28.46-.54.68-.79a5.65,5.65,0,0,0,.57-.77,1.79,1.79,0,0,0,.23-.89,1,1,0,0,0-.37-.85,1.76,1.76,0,0,0-1.08-.29,4.77,4.77,0,0,0-2.58.79V6.84a4.33,4.33,0,0,1,1.37-.57,6,6,0,0,1,1.44-.18,5.13,5.13,0,0,1,2.11.4,3.4,3.4,0,0,1,1.43,1.1,2.71,2.71,0,0,1,.51,1.64A2.91,2.91,0,0,1,16.35,10.6Z"/></svg>