<svg id="ui" xmlns="http://www.w3.org/2000/svg" viewBox="0 0 25 25"><defs><style>.cls-1{fill:#fff;}</style></defs><rect class="cls-1" x="8.37" y="8.37" width="3.98" height="3.98"/><path class="cls-1" d="M16.05,0H4.66A4.66,4.66,0,0,0,0,4.66V16.05a4.67,4.67,0,0,0,4.66,4.67h9.26a6.47,6.47,0,0,1,6.46-6.47,1.94,1.94,0,0,1,.34,0V4.66A4.67,4.67,0,0,0,16.05,0Zm1.28,8.37H14.52v4h2.81v2.17H14.52v2.81H12.35V14.52h-4v2.81H6.2V14.52H3.39V12.35H6.2v-4H3.39V6.2H6.2V3.39H8.37V6.2h4V3.39h2.17V6.2h2.81Z"/><path class="cls-1" d="M20.7,16.43h-.32a4.25,4.25,0,1,0,.32,0Zm.77,5.37v2.11H19.29V21.8H17.17V19.63h2.12V17.51h2.18v2.12h2.11V21.8Z"/></svg>