<svg id="ui" xmlns="http://www.w3.org/2000/svg" viewBox="0 0 25 25"><defs><style>.cls-1{fill:#fff;}</style></defs><path class="cls-1" d="M16.55,12.31H2A1.74,1.74,0,0,0,.21,14.05v9.21A1.74,1.74,0,0,0,2,25h14.6a1.74,1.74,0,0,0,1.74-1.74V14.05A1.74,1.74,0,0,0,16.55,12.31ZM9.25,22a3.82,3.82,0,1,1,3.81-3.81A3.81,3.81,0,0,1,9.25,22Z"/><polygon class="cls-1" points="24.79 3.27 22.92 3.27 22.92 1.87 21.52 1.87 21.52 0 24.79 0 24.79 3.27"/><rect class="cls-1" x="10.58" width="4.97" height="1.87"/><polygon class="cls-1" points="3.21 3.27 1.34 3.27 1.34 0 4.62 0 4.62 1.87 3.21 1.87 3.21 3.27"/><rect class="cls-1" x="1.34" y="6.4" width="1.87" height="2.99"/><polygon class="cls-1" points="24.79 23.87 21.52 23.87 21.52 22 22.92 22 22.92 20.59 24.79 20.59 24.79 23.87"/><rect class="cls-1" x="22.92" y="9.39" width="1.87" height="5.1"/><rect class="cls-1" x="4.29" y="10.71" width="9.92" height="2.65"/></svg>