<svg id="ui" xmlns="http://www.w3.org/2000/svg" viewBox="0 0 30.02 14.17"><defs><style>.cls-1{fill:none;stroke:#fff;stroke-miterlimit:10;stroke-width:4px;}.cls-2{fill:#fff;}.cls-3{fill:#637691;}</style></defs><path class="cls-1" d="M5,9.2a12.93,12.93,0,0,1,23.19,0"/><polygon class="cls-2" points="0 5.56 3.15 14.17 11.76 11.02 0 5.56"/><path class="cls-3" d="M-9.75-44.68a8,8,0,0,1,8,8v48a8,8,0,0,1-8,8H-57.7a8,8,0,0,1-8-8V-36.68a8,8,0,0,1,8-8h48m0-2H-57.7a10,10,0,0,0-10,10v48a10,10,0,0,0,10,10h48a10,10,0,0,0,10-10V-36.68a10,10,0,0,0-10-10Z"/></svg>