<svg id="ui" xmlns="http://www.w3.org/2000/svg" viewBox="0 0 16 16"><defs><style>.cls-1{fill:#fff;}</style></defs><path class="cls-1" d="M3.25,1.31a2.62,2.62,0,0,1,2.14.89,3.9,3.9,0,0,1,.75,2.57A4.55,4.55,0,0,1,5.77,6.7a2.75,2.75,0,0,1-1,1.24,2.88,2.88,0,0,1-1.6.43,4.16,4.16,0,0,1-1.27-.19,2.87,2.87,0,0,1-1-.55L1.4,6.35a4,4,0,0,0,.9.48A2.51,2.51,0,0,0,3.05,7a1,1,0,0,0,1-.55,3.12,3.12,0,0,0,.33-1.61V4.67l.16.23a1.39,1.39,0,0,1-.33.54,1.85,1.85,0,0,1-.57.36,1.88,1.88,0,0,1-.72.13,2,2,0,0,1-1-.29,2,2,0,0,1-.74-.8A2.41,2.41,0,0,1,.83,3.69a2.41,2.41,0,0,1,.32-1.24A2.21,2.21,0,0,1,2,1.61,2.57,2.57,0,0,1,3.25,1.31ZM3.36,2.7A.76.76,0,0,0,2.75,3a1,1,0,0,0-.21.66,1,1,0,0,0,.21.67.76.76,0,0,0,.61.25.89.89,0,0,0,.43-.11.75.75,0,0,0,.29-.32,1.07,1.07,0,0,0,.1-.49,1.06,1.06,0,0,0-.1-.48.72.72,0,0,0-.29-.31A.8.8,0,0,0,3.36,2.7Z"/><rect class="cls-1" x="10.75" y="6.55" width="1.5" height="9.9" transform="translate(-4.76 11.5) rotate(-45)"/><polygon class="cls-1" points="15.75 15.75 10 15.75 10 14.25 14.25 14.25 14.25 10 15.75 10 15.75 15.75"/></svg>