<?xml version="1.0" encoding="utf-8"?>
<!-- Generator: Adobe Illustrator 25.2.3, SVG Export Plug-In . SVG Version: 6.00 Build 0)  -->
<svg version="1.1" id="ui" xmlns="http://www.w3.org/2000/svg" xmlns:xlink="http://www.w3.org/1999/xlink" x="0px" y="0px"
	 viewBox="0 0 16 16" style="enable-background:new 0 0 16 16;" xml:space="preserve">
<style type="text/css">
	.st0{fill:#FFFFFF;}
</style>
<path class="st0" d="M12.6,1.5c1.1,0,1.9,0.9,1.9,1.9v9.1c0,1.1-0.9,1.9-1.9,1.9H3.4c-1.1,0-1.9-0.9-1.9-1.9V3.4
	c0-1.1,0.9-1.9,1.9-1.9H12.6 M12.6,0H3.4C1.5,0,0,1.5,0,3.4v9.1C0,14.5,1.5,16,3.4,16h9.1c1.9,0,3.4-1.5,3.4-3.4V3.4
	C16,1.5,14.5,0,12.6,0L12.6,0z"/>
</svg>
