<svg id="ui" xmlns="http://www.w3.org/2000/svg" viewBox="0 0 16 16"><defs><style>.cls-1{fill:#fff;}</style></defs><path class="cls-1" d="M7.9,1.77a6.5,6.5,0,1,0,6.5,6.5A6.5,6.5,0,0,0,7.9,1.77Zm3.11,2a5.44,5.44,0,0,1,1.78,2H10.31A11.49,11.49,0,0,1,11,3.74Zm-3.11-1a5.34,5.34,0,0,1,2.23.48,12.6,12.6,0,0,0-.85,2.52H6.73a12.24,12.24,0,0,0-.89-2.6A5.44,5.44,0,0,1,7.9,2.77Zm-1,4H9.11A9.78,9.78,0,0,0,9,8,9.16,9.16,0,0,0,9.2,9.77H6.81A9.16,9.16,0,0,0,7,8,9.78,9.78,0,0,0,6.9,6.77ZM5,3.64A12.38,12.38,0,0,1,5.7,5.77H3A5.45,5.45,0,0,1,5,3.64ZM2.4,8.27a5.33,5.33,0,0,1,.21-1.5H5.89A8.28,8.28,0,0,1,6,8,9.07,9.07,0,0,1,5.8,9.77H2.61A5.33,5.33,0,0,1,2.4,8.27Zm2.35,4.5a5.41,5.41,0,0,1-1.74-2H5.56A12.59,12.59,0,0,1,4.75,12.77Zm3.15,1a5.4,5.4,0,0,1-2.28-.5,12.09,12.09,0,0,0,1-2.5H9.42a11.9,11.9,0,0,0,.93,2.42A5.46,5.46,0,0,1,7.9,13.77Zm3.3-1.11a12.44,12.44,0,0,1-.75-1.89h2.34A5.38,5.38,0,0,1,11.2,12.66Zm-1-2.89A9.07,9.07,0,0,1,10,8a8.28,8.28,0,0,1,.09-1.23h3.07a5.46,5.46,0,0,1,0,3Z"/></svg>