<svg xmlns="http://www.w3.org/2000/svg" viewBox="0 0 771.28 757.55"><defs><style>.cls-1,.cls-10,.cls-11,.cls-12,.cls-13,.cls-14,.cls-15,.cls-16,.cls-17,.cls-18,.cls-19,.cls-2,.cls-20,.cls-22,.cls-23,.cls-3,.cls-4,.cls-5,.cls-6,.cls-7,.cls-8,.cls-9{fill:none;stroke:#000;stroke-miterlimit:10;}.cls-1,.cls-10,.cls-11,.cls-12,.cls-13,.cls-14,.cls-15,.cls-16,.cls-17,.cls-18,.cls-19,.cls-2,.cls-20,.cls-3,.cls-4,.cls-5,.cls-6,.cls-7,.cls-8,.cls-9{stroke-width:1.5px;}.cls-2{stroke-dasharray:5.99 2.99;}.cls-3{stroke-dasharray:5.86 2.93;}.cls-4{stroke-dasharray:5.98 2.99;}.cls-5{stroke-dasharray:5.98 2.99;}.cls-6{stroke-dasharray:6 3;}.cls-7{stroke-dasharray:5.93 2.96;}.cls-8{stroke-dasharray:6.27 3.13;}.cls-9{stroke-dasharray:7 3.5;}.cls-10{stroke-dasharray:5.86 2.93;}.cls-11{stroke-dasharray:6.1 3.05;}.cls-12{stroke-dasharray:6 3;}.cls-13{stroke-dasharray:5.99 2.99;}.cls-14{stroke-dasharray:6 3;}.cls-15{stroke-dasharray:5.93 2.96;}.cls-16{stroke-dasharray:6.27 3.14;}.cls-17{stroke-dasharray:5.98 2.99;}.cls-18{stroke-dasharray:5.98 2.99;}.cls-19{stroke-dasharray:6.1 3.05;}.cls-20{stroke-dasharray:5.86 2.93;}.cls-21{fill:#fff;}.cls-22{stroke-width:4px;}</style></defs><g id="puzzle"><polyline class="cls-1" points="21.88 371.18 18.88 371.18 18.88 368.18"/><line class="cls-2" x1="18.88" y1="365.18" x2="18.88" y2="142.1"/><polyline class="cls-1" points="18.88 140.61 18.88 137.61 21.88 137.61"/><line class="cls-3" x1="24.81" y1="137.61" x2="120.01" y2="137.61"/><polyline class="cls-1" points="121.47 137.61 124.47 137.61 124.47 140.61"/><line class="cls-4" x1="124.47" y1="143.6" x2="124.47" y2="258.7"/><polyline class="cls-1" points="124.47 260.2 124.47 263.2 127.47 263.2"/><line class="cls-5" x1="130.46" y1="263.2" x2="245.56" y2="263.2"/><polyline class="cls-1" points="247.05 263.2 250.05 263.2 250.05 266.2"/><line class="cls-6" x1="250.05" y1="269.2" x2="250.05" y2="366.68"/><polyline class="cls-1" points="250.05 368.18 250.05 371.18 247.05 371.18"/><line class="cls-7" x1="244.09" y1="371.18" x2="23.36" y2="371.18"/><polyline class="cls-1" points="147.46 619.95 144.46 619.95 144.46 616.95"/><line class="cls-8" x1="144.46" y1="613.81" x2="144.46" y2="521.33"/><polyline class="cls-1" points="144.46 519.77 144.46 516.77 144.47 516.77 144.47 513.77"/><line class="cls-9" x1="144.47" y1="510.27" x2="144.47" y2="501.52"/><polyline class="cls-1" points="144.47 499.77 144.47 496.77 141.47 496.77"/><line class="cls-4" x1="138.48" y1="496.77" x2="23.38" y2="496.77"/><polyline class="cls-1" points="21.88 496.77 18.88 496.77 18.88 493.77"/><line class="cls-10" x1="18.88" y1="490.84" x2="18.88" y2="395.64"/><polyline class="cls-1" points="18.88 394.18 18.88 391.18 21.88 391.18"/><line class="cls-7" x1="24.85" y1="391.18" x2="245.57" y2="391.18"/><polyline class="cls-1" points="247.05 391.18 250.05 391.18 250.05 394.18"/><line class="cls-11" x1="250.05" y1="397.23" x2="250.05" y2="615.42"/><polyline class="cls-1" points="250.05 616.95 250.05 619.95 247.05 619.95"/><line class="cls-3" x1="244.12" y1="619.95" x2="148.93" y2="619.95"/><rect class="cls-12" x="134.46" y="504.37" width="0.01" height="2.4"/><polyline class="cls-1" points="273.05 496.77 270.05 496.77 270.05 493.77"/><line class="cls-13" x1="270.05" y1="490.77" x2="270.05" y2="267.69"/><polyline class="cls-1" points="270.05 266.2 270.05 263.2 273.05 263.2"/><line class="cls-10" x1="275.98" y1="263.2" x2="371.18" y2="263.2"/><polyline class="cls-1" points="372.64 263.2 375.64 263.2 375.64 266.2"/><line class="cls-13" x1="375.64" y1="269.19" x2="375.64" y2="492.27"/><polyline class="cls-1" points="375.64 493.77 375.64 496.77 372.64 496.77"/><line class="cls-10" x1="369.71" y1="496.77" x2="274.52" y2="496.77"/><polyline class="cls-1" points="524.22 371.18 521.22 371.18 521.22 368.18"/><line class="cls-2" x1="521.22" y1="365.18" x2="521.22" y2="142.1"/><polyline class="cls-1" points="521.22 140.61 521.22 137.61 524.22 137.61"/><line class="cls-10" x1="527.15" y1="137.61" x2="622.35" y2="137.61"/><polyline class="cls-1" points="623.81 137.61 626.81 137.61 626.81 140.61"/><line class="cls-5" x1="626.81" y1="143.6" x2="626.81" y2="258.69"/><polyline class="cls-1" points="626.81 260.19 626.81 263.19 629.81 263.19"/><line class="cls-5" x1="632.8" y1="263.19" x2="747.9" y2="263.19"/><polyline class="cls-1" points="749.39 263.19 752.39 263.19 752.39 266.19"/><line class="cls-14" x1="752.39" y1="269.19" x2="752.39" y2="366.68"/><polyline class="cls-1" points="752.39 368.18 752.39 371.18 749.39 371.18"/><line class="cls-15" x1="746.43" y1="371.18" x2="525.7" y2="371.18"/><polyline class="cls-1" points="524.22 619.95 521.22 619.95 521.22 616.95"/><line class="cls-11" x1="521.22" y1="613.9" x2="521.22" y2="395.7"/><polyline class="cls-1" points="521.22 394.18 521.22 391.18 524.22 391.18"/><line class="cls-15" x1="527.19" y1="391.18" x2="747.91" y2="391.18"/><polyline class="cls-1" points="749.39 391.18 752.39 391.18 752.39 394.18"/><line class="cls-16" x1="752.39" y1="397.31" x2="752.39" y2="489.8"/><polyline class="cls-1" points="752.39 491.37 752.39 494.37 749.39 494.37"/><line class="cls-5" x1="746.4" y1="494.37" x2="631.31" y2="494.37"/><polyline class="cls-1" points="629.81 494.37 626.81 494.37 626.81 497.37"/><line class="cls-17" x1="626.81" y1="500.36" x2="626.81" y2="615.45"/><polyline class="cls-1" points="626.81 616.95 626.81 619.95 623.81 619.95"/><line class="cls-10" x1="620.88" y1="619.95" x2="525.69" y2="619.95"/><polyline class="cls-1" points="273.05 243.19 270.05 243.19 270.05 240.19"/><line class="cls-3" x1="270.05" y1="237.26" x2="270.05" y2="142.06"/><polyline class="cls-1" points="270.05 140.6 270.05 137.6 273.05 137.6"/><line class="cls-18" x1="276.04" y1="137.6" x2="391.15" y2="137.6"/><polyline class="cls-1" points="392.64 137.6 395.64 137.6 395.64 134.6"/><line class="cls-19" x1="395.64" y1="131.55" x2="395.64" y2="14.14"/><polyline class="cls-1" points="395.64 12.62 395.64 9.62 398.64 9.62"/><line class="cls-20" x1="401.57" y1="9.62" x2="496.76" y2="9.62"/><polyline class="cls-1" points="498.22 9.62 501.22 9.62 501.22 12.62"/><line class="cls-2" x1="501.22" y1="15.61" x2="501.22" y2="238.69"/><polyline class="cls-1" points="501.22 240.19 501.22 243.19 498.22 243.19"/><line class="cls-7" x1="495.26" y1="243.19" x2="274.53" y2="243.19"/><rect class="cls-12" x="134.46" y="504.37" width="0.01" height="2.4"/><polyline class="cls-1" points="398.64 745.54 395.64 745.54 395.64 742.54"/><line class="cls-18" x1="395.64" y1="739.55" x2="395.64" y2="624.44"/><polyline class="cls-1" points="395.64 622.95 395.64 619.95 392.64 619.95"/><line class="cls-18" x1="389.65" y1="619.95" x2="274.55" y2="619.95"/><polyline class="cls-1" points="273.05 619.95 270.05 619.95 270.05 616.95"/><line class="cls-20" x1="270.05" y1="614.02" x2="270.05" y2="518.83"/><polyline class="cls-1" points="270.05 517.37 270.05 514.37 273.05 514.37"/><line class="cls-7" x1="276.02" y1="514.37" x2="496.74" y2="514.37"/><polyline class="cls-1" points="498.22 514.37 501.22 514.37 501.22 517.37"/><line class="cls-7" x1="501.22" y1="520.33" x2="501.22" y2="741.06"/><polyline class="cls-1" points="501.22 742.54 501.22 745.54 498.22 745.54"/><line class="cls-20" x1="495.29" y1="745.54" x2="400.11" y2="745.54"/><rect class="cls-21" x="8.88" y="127.61" width="41.3" height="31.69"/><path d="M20.29,152.41v-3.19H32.16v3.19Zm3.93-1.84V137.38l1.89.18-5.56,3.29v-3.5l5.33-3.11H28.2v16.33Z"/><path d="M34.61,152.41v-2.94l6-6.43a10,10,0,0,0,1.41-1.95,3.78,3.78,0,0,0,.47-1.8,2,2,0,0,0-.63-1.61,2.84,2.84,0,0,0-1.84-.53,7,7,0,0,0-2.36.44,10.65,10.65,0,0,0-2.44,1.32L34,136.05a7.84,7.84,0,0,1,2.8-1.49,11.19,11.19,0,0,1,3.47-.55,8.12,8.12,0,0,1,3.27.61,4.9,4.9,0,0,1,2.16,1.75,4.72,4.72,0,0,1,.75,2.67A6.6,6.6,0,0,1,45.8,142a13.07,13.07,0,0,1-2.18,3l-5.21,5.46-.51-1.17h9.19v3.19Z"/><rect class="cls-21" x="8.88" y="381.18" width="32.35" height="32.35"/><rect class="cls-21" x="8.88" y="381.18" width="23.12" height="28.04"/><path d="M21.65,406v-3.19H33.52V406Zm3.93-1.83V391l1.89.18-5.56,3.29v-3.49l5.33-3.12h2.32v16.34Z"/><path d="M42,406.21a5.85,5.85,0,0,1-5-2.38q-1.76-2.38-1.75-7T36.93,390a5.87,5.87,0,0,1,5-2.38A5.9,5.9,0,0,1,47,390q1.74,2.37,1.74,6.86T47,403.81A5.86,5.86,0,0,1,42,406.21Zm0-3.06a2.28,2.28,0,0,0,2.19-1.48,12.2,12.2,0,0,0,.69-4.8,11.91,11.91,0,0,0-.69-4.72,2.37,2.37,0,0,0-4.39,0,11.91,11.91,0,0,0-.69,4.72,12.2,12.2,0,0,0,.69,4.8A2.29,2.29,0,0,0,42,403.15Z"/><rect class="cls-21" x="260.05" y="254.85" width="32.35" height="32.35"/><rect class="cls-21" x="260.05" y="254.85" width="23.12" height="28.04"/><path d="M276.29,279.65H272l8.68-16.12.05,1.14h-9.42v-3.19h13v3Z"/><rect class="cls-21" x="260.05" y="504.36" width="32.35" height="32.35"/><rect class="cls-21" x="260.05" y="504.36" width="23.12" height="28.04"/><path d="M277.24,510.76a6.67,6.67,0,0,1,5.46,2.35,10.43,10.43,0,0,1,1.91,6.71,12.85,12.85,0,0,1-.92,5.13,7.32,7.32,0,0,1-2.62,3.3,7.22,7.22,0,0,1-4.09,1.14,10.25,10.25,0,0,1-3.26-.52,7.55,7.55,0,0,1-2.71-1.52l1.3-2.86a9.94,9.94,0,0,0,2.4,1.36,6.2,6.2,0,0,0,2.09.4,3.18,3.18,0,0,0,2.9-1.62,9.17,9.17,0,0,0,1-4.73V519l.41.61a3.94,3.94,0,0,1-.92,1.69,4.73,4.73,0,0,1-1.61,1.11,5.26,5.26,0,0,1-2,.39,5.35,5.35,0,0,1-2.84-.75,5.22,5.22,0,0,1-1.95-2.08,6.25,6.25,0,0,1-.72-3,6.19,6.19,0,0,1,.81-3.18,5.69,5.69,0,0,1,2.2-2.18A6.44,6.44,0,0,1,277.24,510.76Zm.23,3.12a2.51,2.51,0,0,0-2,.79,3,3,0,0,0-.71,2.09,3.07,3.07,0,0,0,.71,2.12,2.51,2.51,0,0,0,2,.79,2.76,2.76,0,0,0,1.41-.36,2.34,2.34,0,0,0,1-1,3.26,3.26,0,0,0,.35-1.53,3.08,3.08,0,0,0-.35-1.5,2.55,2.55,0,0,0-1-1A2.68,2.68,0,0,0,277.47,513.88Z"/><rect class="cls-21" x="511.02" y="381.55" width="32.35" height="32.35"/><rect class="cls-21" x="511.02" y="381.55" width="23.12" height="28.04"/><path d="M528.82,406.56a9.82,9.82,0,0,1-3.61-.62,5.74,5.74,0,0,1-2.47-1.78,4.36,4.36,0,0,1-.89-2.75,4.14,4.14,0,0,1,1.25-3.12,5.87,5.87,0,0,1,3.39-1.48l0,.41a5.51,5.51,0,0,1-3-1.52,3.86,3.86,0,0,1-1.14-2.82,4.17,4.17,0,0,1,.86-2.63,5.53,5.53,0,0,1,2.33-1.69,9.62,9.62,0,0,1,6.69,0,5.56,5.56,0,0,1,2.34,1.69,4.17,4.17,0,0,1,.85,2.63,3.89,3.89,0,0,1-1.14,2.86,5.16,5.16,0,0,1-3,1.45l-.08-.38a5.93,5.93,0,0,1,3.39,1.52,4.14,4.14,0,0,1,1.23,3.08,4.3,4.3,0,0,1-.89,2.75,5.71,5.71,0,0,1-2.46,1.78A9.86,9.86,0,0,1,528.82,406.56Zm0-3a4.14,4.14,0,0,0,2.36-.61,2,2,0,0,0,.9-1.81,2.09,2.09,0,0,0-.92-1.81,3.51,3.51,0,0,0-4.69,0,2.11,2.11,0,0,0-.92,1.81,2,2,0,0,0,.91,1.81A4.11,4.11,0,0,0,528.82,403.52Zm0-7.6a4.34,4.34,0,0,0,2-.84,2.17,2.17,0,0,0,.79-1.76,2,2,0,0,0-.78-1.75,3.76,3.76,0,0,0-4,0,2,2,0,0,0-.77,1.75,2.15,2.15,0,0,0,.79,1.76A4.3,4.3,0,0,0,528.82,395.92Z"/><rect class="cls-21" x="511.22" y="127.61" width="32.35" height="32.35"/><rect class="cls-21" x="511.22" y="127.61" width="23.12" height="28.04"/><path d="M527.46,152.41H523.2l8.68-16.13,0,1.15h-9.42v-3.19h13v3Z"/><rect class="cls-21" x="385.64" y="2.02" width="32.35" height="32.35"/><rect class="cls-21" x="385.64" y="2.02" width="23.12" height="28.04"/><path d="M404.05,27.05a6.67,6.67,0,0,1-5.46-2.35c-1.3-1.56-1.94-3.8-1.94-6.71a12.85,12.85,0,0,1,.92-5.13,6.93,6.93,0,0,1,6.73-4.44,10.28,10.28,0,0,1,3.27.53,7.53,7.53,0,0,1,2.71,1.51L409,13.32A8.49,8.49,0,0,0,406.6,12a6.39,6.39,0,0,0-2.12-.41,3.18,3.18,0,0,0-2.88,1.62,9.19,9.19,0,0,0-1,4.74v.91l-.38-.61a3.73,3.73,0,0,1,.88-1.68,4.3,4.3,0,0,1,1.61-1.11,5.2,5.2,0,0,1,2.05-.4,5.21,5.21,0,0,1,4.79,2.83,6.4,6.4,0,0,1,.7,3,6.31,6.31,0,0,1-.79,3.18,5.69,5.69,0,0,1-2.2,2.18A6.37,6.37,0,0,1,404.05,27.05Zm-.23-3.11a2.57,2.57,0,0,0,2-.79,2.93,2.93,0,0,0,.74-2.1,3,3,0,0,0-.72-2.11,2.56,2.56,0,0,0-2-.79,2.8,2.8,0,0,0-1.42.35,2.51,2.51,0,0,0-1,1,3.31,3.31,0,0,0-.34,1.53,3.12,3.12,0,0,0,.34,1.51,2.62,2.62,0,0,0,1,1A2.81,2.81,0,0,0,403.82,23.94Z"/><line class="cls-22" x1="8.88" y1="504.36" x2="762.4" y2="504.36"/><line class="cls-23" x1="385.64" y1="381.18" x2="762.4" y2="381.18"/><line class="cls-23" x1="8.88" y1="381.18" x2="385.64" y2="381.18"/><rect class="cls-22" x="8.88" y="2.02" width="753.51" height="753.51" transform="translate(771.28 757.55) rotate(180)"/><line class="cls-22" x1="762.4" y1="755.53" x2="762.4" y2="2.02"/><line class="cls-22" x1="385.64" y1="755.53" x2="385.64" y2="2.02"/><line class="cls-22" x1="8.88" y1="253.19" x2="762.4" y2="253.19"/><line class="cls-23" x1="260.05" y1="755.53" x2="260.05" y2="504.36"/><line class="cls-23" x1="134.47" y1="755.53" x2="134.47" y2="504.36"/><line class="cls-23" x1="636.81" y1="755.53" x2="636.81" y2="504.36"/><line class="cls-23" x1="511.22" y1="755.53" x2="511.22" y2="504.36"/><line class="cls-23" x1="260.05" y1="755.53" x2="260.05" y2="378.78"/><line class="cls-23" x1="134.47" y1="378.78" x2="134.47" y2="755.53"/><line class="cls-23" x1="8.88" y1="629.95" x2="385.64" y2="629.95"/><line class="cls-23" x1="8.88" y1="504.36" x2="385.64" y2="504.36"/><line class="cls-23" x1="636.81" y1="755.53" x2="636.81" y2="378.78"/><line class="cls-23" x1="511.22" y1="755.53" x2="511.22" y2="378.78"/><line class="cls-23" x1="385.64" y1="629.95" x2="762.4" y2="629.95"/><line class="cls-23" x1="260.05" y1="378.78" x2="260.05" y2="2.02"/><line class="cls-23" x1="134.47" y1="378.78" x2="134.47" y2="2.02"/><line class="cls-23" x1="8.88" y1="253.19" x2="385.64" y2="253.19"/><line class="cls-23" x1="8.88" y1="127.61" x2="385.64" y2="127.61"/><line class="cls-23" x1="636.81" y1="378.78" x2="636.81" y2="2.02"/><line class="cls-23" x1="511.22" y1="378.78" x2="511.22" y2="2.02"/><line class="cls-23" x1="385.64" y1="253.19" x2="762.4" y2="253.19"/><line class="cls-23" x1="385.64" y1="127.61" x2="762.4" y2="127.61"/></g></svg>