<svg xmlns="http://www.w3.org/2000/svg" viewBox="0 0 305.99 304.76"><defs><style>.cls-1{fill:#423232;}.cls-2{fill:#5683d4;}.cls-3{fill:#a561c9;}.cls-4,.cls-5{fill:none;stroke-linecap:round;}.cls-4{stroke:#a561c9;stroke-miterlimit:10;stroke-width:19px;}.cls-5{stroke:#cc8806;stroke-linejoin:round;stroke-width:15px;}.cls-6{fill:#39ad50;}.cls-7{fill:#cc8806;}</style></defs><g id="Layer_2" data-name="Layer 2"><g id="ui"><path class="cls-1" d="M292.36,81.23C262.76,20.29,186.87-12.35,116.14,4.34,48.87,20.22.68,81.21,0,151.24c-.79,84.28,66.4,153.48,150,153.52,7.55,0,16.59-4.29,22.34-9.46,9.27-8.34,8.56-21.86.51-32.78-6.22-8.47-10.17-17.17-4.72-27.47,5.57-10.59,14.63-14.55,26.37-14,9.55.41,19.14.43,28.67,0,28.66-1.43,52.23-13.25,67.88-37.5C312.66,150,308.79,115.08,292.36,81.23ZM60.09,154.45a26.58,26.58,0,1,1,26.56-26.59A26.59,26.59,0,0,1,60.09,154.45ZM195,86.81a26.58,26.58,0,1,1,26.59-26.58A26.56,26.56,0,0,1,195,86.81Z"/><path class="cls-2" d="M129.48,79.8v3.85A3.44,3.44,0,0,1,126,87.09H97.35a3.44,3.44,0,0,1-3.44-3.44V79.8a3.44,3.44,0,0,1,3.44-3.44h4.14a3.44,3.44,0,0,0,3.44-3.44V56.46a3.44,3.44,0,0,0-5.15-3h0a3.44,3.44,0,0,1-5.15-3V46.83a3.45,3.45,0,0,1,1.74-3l13.31-7.56a3.45,3.45,0,0,1,1.7-.45H115a3.44,3.44,0,0,1,3.44,3.44V72.92a3.44,3.44,0,0,0,3.44,3.44H126A3.44,3.44,0,0,1,129.48,79.8Z"/><circle class="cls-3" cx="60.07" cy="127.88" r="26.57"/></g><g id="puzzle"><line class="cls-4" x1="60.07" y1="127.88" x2="131.86" y2="199.66"/><polyline class="cls-5" points="194.98 60.24 132.74 122.48 194.3 184.05"/><polyline class="cls-5" points="194.3 157.71 194.3 184.05 167.97 184.05"/><rect class="cls-6" x="218.8" y="101.3" width="53.15" height="53.15" rx="9.34"/><circle class="cls-7" cx="194.98" cy="60.24" r="26.57"/></g></g></svg>