<svg id="ui" xmlns="http://www.w3.org/2000/svg" viewBox="0 0 25 25"><defs><style>.cls-1{fill:#fff;}</style></defs><path class="cls-1" d="M23.93,14.54l-2.1-.69V11.14l2.1-.69a1.56,1.56,0,0,0,1-2,11.74,11.74,0,0,0-.83-2A1.53,1.53,0,0,0,22,5.86l-2,1L18.13,4.94l1-2A1.59,1.59,0,0,0,18.43.86a13.08,13.08,0,0,0-1.9-.78,1.57,1.57,0,0,0-2,1l-.67,2.1H11.14l-.68-2.1a1.56,1.56,0,0,0-2-1,13.08,13.08,0,0,0-1.9.78A1.59,1.59,0,0,0,5.86,3l1,2L4.94,6.86l-2-1a1.54,1.54,0,0,0-2.07.63,14.17,14.17,0,0,0-.83,2,1.57,1.57,0,0,0,1,2l2.1.68v2.72l-2.1.67a1.57,1.57,0,0,0-1,2,13.19,13.19,0,0,0,.78,1.91A1.59,1.59,0,0,0,3,19.14l2-1,1.93,1.93-1,2a1.58,1.58,0,0,0,.71,2.12,14.17,14.17,0,0,0,1.89.78,1.56,1.56,0,0,0,2-1l.69-2.11h2.73l.67,2.11a1.58,1.58,0,0,0,2,1,13.64,13.64,0,0,0,1.89-.78A1.59,1.59,0,0,0,19.14,22l-1-2,1.93-1.93,2,1a1.57,1.57,0,0,0,2.11-.71,12.09,12.09,0,0,0,.79-1.9A1.57,1.57,0,0,0,23.93,14.54ZM12.5,16.25a4.1,4.1,0,1,1,4.1-4.09A4.09,4.09,0,0,1,12.5,16.25Z"/></svg>