<svg id="ui" xmlns="http://www.w3.org/2000/svg" viewBox="0 0 16 16"><defs><style>.cls-1{fill:#fff;}</style></defs><path class="cls-1" d="M11.93,0H4.07A4.07,4.07,0,0,0,0,4.07v7.86A4.07,4.07,0,0,0,4.07,16h7.86A4.07,4.07,0,0,0,16,11.93V4.07A4.07,4.07,0,0,0,11.93,0ZM14.5,11.93a2.57,2.57,0,0,1-2.57,2.57H4.07A2.57,2.57,0,0,1,1.5,11.93V4.07A2.57,2.57,0,0,1,4.07,1.5h7.86A2.57,2.57,0,0,1,14.5,4.07Z"/><rect class="cls-1" x="3.46" y="7.7" width="8.44" height="1.5" transform="translate(-3.72 7.9) rotate(-45)"/><polygon class="cls-1" points="11.68 10.61 10.18 10.61 10.18 5.95 5.51 5.95 5.51 4.45 11.68 4.45 11.68 10.61"/></svg>