<svg id="ui" xmlns="http://www.w3.org/2000/svg" viewBox="0 0 16 16"><defs><style>.cls-1{fill:#fff;}</style></defs><path class="cls-1" d="M12.56,1.5A1.94,1.94,0,0,1,14.5,3.44v9.12a1.94,1.94,0,0,1-1.94,1.94H3.44A1.94,1.94,0,0,1,1.5,12.56V3.44A1.94,1.94,0,0,1,3.44,1.5h9.12m0-1.5H3.44A3.44,3.44,0,0,0,0,3.44v9.12A3.44,3.44,0,0,0,3.44,16h9.12A3.44,3.44,0,0,0,16,12.56V3.44A3.44,3.44,0,0,0,12.56,0Z"/><rect class="cls-1" x="-1.49" y="7.25" width="19.14" height="1.5" transform="translate(-3.29 8.06) rotate(-45)"/></svg>