<svg xmlns="http://www.w3.org/2000/svg" viewBox="0 0 16 16"><defs><style>.cls-1{fill:#fff;}</style></defs><g id="ui"><path class="cls-1" d="M11.93,0H4.07A4.07,4.07,0,0,0,0,4.07v7.86A4.07,4.07,0,0,0,4.07,16h7.86A4.07,4.07,0,0,0,16,11.93V4.07A4.07,4.07,0,0,0,11.93,0ZM14.5,11.93a2.57,2.57,0,0,1-2.57,2.57H4.07A2.57,2.57,0,0,1,1.5,11.93V4.07A2.57,2.57,0,0,1,4.07,1.5h7.86A2.57,2.57,0,0,1,14.5,4.07Z"/><circle class="cls-1" cx="8" cy="11.2" r="0.96"/><circle class="cls-1" cx="11.2" cy="11.2" r="0.96"/><circle class="cls-1" cx="4.8" cy="11.2" r="0.96"/><circle class="cls-1" cx="4.8" cy="8" r="0.96"/><circle class="cls-1" cx="4.8" cy="4.8" r="0.96"/><circle class="cls-1" cx="8" cy="8" r="0.96"/><circle class="cls-1" cx="8" cy="4.8" r="0.96"/><circle class="cls-1" cx="11.2" cy="8" r="0.96"/><circle class="cls-1" cx="11.2" cy="4.8" r="0.96"/></g></svg>