<svg id="ui" xmlns="http://www.w3.org/2000/svg" viewBox="0 0 25 25"><defs><style>.cls-1{fill:#fff;}</style></defs><path class="cls-1" d="M19.82,11.44a2.28,2.28,0,0,1,2.28,2.28v7A2.28,2.28,0,0,1,19.82,23H5.18A2.28,2.28,0,0,1,2.9,20.72v-7a2.28,2.28,0,0,1,2.28-2.28H19.82m0-2H5.18A4.28,4.28,0,0,0,.9,13.72v7A4.28,4.28,0,0,0,5.18,25H19.82a4.28,4.28,0,0,0,4.28-4.28v-7a4.28,4.28,0,0,0-4.28-4.28Z"/><rect class="cls-1" x="9.98" y="7.26" width="5.03" height="7.19"/><polygon class="cls-1" points="19.68 7.76 5.32 7.76 12.5 0 19.68 7.76"/></svg>