<svg id="ui" xmlns="http://www.w3.org/2000/svg" viewBox="0 0 16 16"><defs><style>.cls-1{fill:#fff;}</style></defs><path class="cls-1" d="M12.56,0H3.44A3.44,3.44,0,0,0,0,3.44v9.12A3.44,3.44,0,0,0,3.44,16h9.12A3.44,3.44,0,0,0,16,12.56V3.44A3.44,3.44,0,0,0,12.56,0ZM9.77,12.57a2.18,2.18,0,0,1-.8,1,2.27,2.27,0,0,1-1.24.33,3.24,3.24,0,0,1-1-.15,2.08,2.08,0,0,1-.81-.42l.44-1a2.87,2.87,0,0,0,.7.38,1.86,1.86,0,0,0,.58.1.81.81,0,0,0,.75-.42,1.89,1.89,0,0,0,.23-.89.69.69,0,0,1-.11.13,1.33,1.33,0,0,1-.44.28,1.42,1.42,0,0,1-.55.1,1.5,1.5,0,0,1-.82-.22,1.62,1.62,0,0,1-.57-.62,1.87,1.87,0,0,1-.21-.9,1.84,1.84,0,0,1,.91-1.61,2,2,0,0,1,1-.23,2,2,0,0,1,1.65.69,3,3,0,0,1,.58,2A3.62,3.62,0,0,1,9.77,12.57ZM10.15,7H6.44V5.87H7.59V3.18l-1.07.61V2.58l1.65-.94H9V5.87h1.16ZM8.23,9.56a.63.63,0,0,0-.33-.09.58.58,0,0,0-.47.19.77.77,0,0,0-.17.51.76.76,0,0,0,.17.52.58.58,0,0,0,.47.19.58.58,0,0,0,.56-.33.89.89,0,0,0,.08-.38.8.8,0,0,0-.08-.36A.62.62,0,0,0,8.23,9.56Z"/></svg>