<svg id="ui" xmlns="http://www.w3.org/2000/svg" viewBox="0 0 16 16"><defs><style>.cls-1{fill:#fff;}</style></defs><path class="cls-1" d="M11.93,0H4.07A4.07,4.07,0,0,0,0,4.07v7.86A4.07,4.07,0,0,0,4.07,16h7.86A4.07,4.07,0,0,0,16,11.93V4.07A4.07,4.07,0,0,0,11.93,0ZM14.5,11.93a2.57,2.57,0,0,1-2.57,2.57H4.07A2.57,2.57,0,0,1,1.5,11.93V4.07A2.57,2.57,0,0,1,4.07,1.5h7.86A2.57,2.57,0,0,1,14.5,4.07Z"/><rect class="cls-1" x="4.16" y="7.43" width="6.91" height="1.5"/><polygon class="cls-1" points="8.15 12.54 7.09 11.48 10.39 8.18 7.09 4.88 8.15 3.82 12.51 8.18 8.15 12.54"/></svg>